<?xml version="1.0" encoding="utf-8"?>
<!-- Generator: Adobe Illustrator 22.0.1, SVG Export Plug-In . SVG Version: 6.00 Build 0)  -->
<svg version="1.1" id="Layer_1" xmlns="http://www.w3.org/2000/svg" xmlns:xlink="http://www.w3.org/1999/xlink" x="0px" y="0px"
	 viewBox="0 0 841.9 595.3" style="enable-background:new 0 0 841.9 595.3;" xml:space="preserve">
<style type="text/css">
	.st0{opacity:0.4;fill:#CDE9EF;}
	.st1{fill:#CDE9EF;}
	.st2{fill:#FFFFFF;}
	.st3{fill:#040000;}
</style>
<g>
	<path class="st0" d="M319.9,309.4c-23.8,11.2-44.2,26.4-61.2,42.2c36.9-3.5,89.1-10.2,147.9-25.9c43.3-11.6,76.1-24.3,105-35.6
		C505.3,286.4,441.1,252.1,319.9,309.4z"/>
	<path class="st1" d="M678.1,266.4c0,0-5.4-87.8-110.9-120.9c-54.5-17.1-139.1-6.8-139.1-6.8s-27.3-40.1-66.5-49.4
		c-16.5-3.9-27.7-1-27.8,7.5c-0.1,8.5,18.6,11.2,26.7,32.1c8.1,20.9,4.1,24.7,4.1,24.7s-54.4,11.1-111.4,68.5
		c-98,98.7-85.9,207.2-85.9,207.2s-45.3,25.5-54.7,47.3c-9.4,21.8,0.8,59.2,0.8,59.2s16.8-22.9,31.7-26.8
		c12.4-3.3,23.5-16,32.4-24.3c0,0,18,21,31.3,27.3c14.5,6.8,23.4,24.1,23.4,24.1s14.9-35.4,0-68.9c-9.8-22.1-35.2-35.8-35.2-35.8
		s21-41.7,61.8-79.7c17-15.8,37.4-30.9,61.2-42.2c121.1-57.3,185.4-23,191.7-19.3c0.3,0.2,0.5,0.3,0.5,0.3l-28.7,39.5
		c0,0,32.1,2.1,55.7-8.1c18.9-8.2,30.9-23,44.1-26.7c31.5-8.7,83.9,14.2,83.9,14.2s38.1,12.5,46.6,3
		C722.8,302.5,678.1,266.4,678.1,266.4z"/>
</g>
<circle class="st2" cx="641.3" cy="240.7" r="22"/>
<circle class="st3" cx="650.8" cy="246.1" r="7.3"/>
</svg>
