<?xml version="1.0" encoding="utf-8"?>
<!-- Generator: Adobe Illustrator 22.0.1, SVG Export Plug-In . SVG Version: 6.00 Build 0)  -->
<svg version="1.1" id="Layer_1" xmlns="http://www.w3.org/2000/svg" xmlns:xlink="http://www.w3.org/1999/xlink" x="0px" y="0px"
	 viewBox="0 0 841.9 595.3" style="enable-background:new 0 0 841.9 595.3;" xml:space="preserve">
<style type="text/css">
	.st0{fill:#751833;}
	.st1{fill:#040000;}
	.st2{fill:none;}
</style>
<path class="st0" d="M417.7,105.6c1.9,0,3.4-0.7,4.6-2.1c1.2-1.4,1.8-3.4,1.7-6.2c0-2.7-0.7-4.7-1.9-6c-1.2-1.3-2.8-1.9-4.7-1.9
	c-2,0-3.5,0.7-4.7,2.1c-1.2,1.4-1.7,3.4-1.7,6.1c0,2.7,0.7,4.7,1.9,6C414.3,105,415.8,105.6,417.7,105.6z"/>
<path class="st0" d="M451,500.2c-0.9-0.7-2-0.9-3.2-0.8c-1.2,0.1-2.1,0.6-2.9,1.5c-0.8,0.9-1.2,2-1,3.1c0.1,1.2,0.7,2.1,1.7,2.8
	c1,0.7,2,1,3.2,0.8c1.2-0.1,2.1-0.7,2.9-1.5c0.8-0.9,1.1-2,1-3.1C452.5,501.8,452,500.9,451,500.2z"/>
<path class="st1" d="M496.7,482.5l1.7-0.7l-1.7-4.2l-1.6,0.7c0.3,0.5,0.6,1.1,0.8,1.7C496.3,480.9,496.5,481.7,496.7,482.5z"/>
<polygon class="st0" points="561.8,146.7 553.5,150.9 558.2,155.3 "/>
<path class="st0" d="M489.9,478.4c-1-0.8-2-1-3-0.6c-1,0.4-1.6,1.2-1.7,2.5c-0.1,1.2,0.1,2.5,0.6,3.8c0.5,1.4,1.3,2.4,2.2,3.2
	c1,0.8,2,1,3,0.6c1-0.4,1.6-1.3,1.7-2.5c0.2-1.2,0-2.4-0.6-3.8C491.6,480.1,490.8,479.1,489.9,478.4z"/>
<path class="st0" d="M220,314.8c-0.3-0.6-0.7-1.1-1.3-1.4c-0.6-0.3-1.2-0.4-1.9-0.4c-0.9,0.1-1.5,0.4-2,1c-0.5,0.6-0.8,1.2-0.9,2
	c-0.1,0.6,0,1.7,0.2,3.4l0.2,2.3l6.6-0.6l-0.3-2.6C220.6,316.6,220.3,315.4,220,314.8z"/>
<polygon class="st1" points="241.7,195.2 247.7,202.3 250.9,196.7 "/>
<path class="st0" d="M332.1,124.9c1.7,0.7,3.4,0.6,5.1-0.2c1.7-0.8,2.8-2.1,3.3-3.9c0.5-1.8,0.1-3.9-1-6.3c-1.2-2.4-2.6-4-4.2-4.7
	c-1.6-0.7-3.3-0.6-5.1,0.3c-1.8,0.9-2.9,2.1-3.4,3.9c-0.5,1.7-0.1,3.8,1,6.3C329,122.7,330.4,124.2,332.1,124.9z"/>
<polygon class="st2" points="295.8,156.7 291.2,151.3 291.7,145.8 303.7,150 308.4,146.1 292,141.1 292.8,129.3 309.7,145.3 
	314,142.4 308.3,125.1 321.9,137.3 326.1,134.5 318,111.7 314,114.3 320,130.1 307.5,118.6 302.8,121.7 308,137.6 296.2,126 
	292.1,128.6 292.4,128.8 288,132.5 287.4,146.7 280.6,138.7 277,141.8 292.2,159.8 "/>
<polygon class="st2" points="254.1,209.9 250.4,205.5 255.1,197.4 260.7,198.2 262.5,195.1 262.6,195.2 265.1,191.6 252.7,182.6 
	270.7,183.9 273.5,180 254.4,166.3 251.8,169.8 264.6,179 246.2,177.6 243.5,181.4 259.9,193.3 238.2,190.2 235.7,194.6 
	251.6,214.2 "/>
<path class="st2" d="M264.6,172c1.7,1.5,3.5,2.6,5.6,3.2c2,0.6,4.1,0.6,6.1-0.1s3.8-1.9,5.5-3.7c1.3-1.4,2.3-3.1,3-5
	c0.7-1.9,1.1-3.5,1-4.9l-7-6.3l-6.9,7.6l2.9,2.7l3.6-4l2.2,2c-0.1,0.9-0.3,1.9-0.7,2.9c-0.4,1-0.9,1.9-1.6,2.6
	c-1.3,1.5-3,2.2-4.8,2.2c-1.9,0-3.8-1-5.9-2.8c-1.9-1.7-3-3.5-3.1-5.3c-0.2-1.8,0.5-3.5,1.8-5c0.9-1,1.9-1.6,3-1.9
	c1.1-0.2,2.2-0.1,3.3,0.4l2.5-4.1c-1.9-1.1-3.9-1.4-5.9-1c-2,0.4-4,1.7-5.9,3.9c-1.5,1.7-2.5,3.3-2.9,5c-0.6,2.2-0.5,4.2,0.2,6.3
	C261.5,168.6,262.8,170.4,264.6,172z"/>
<path class="st2" d="M371.4,102.7c1.2,0.7,3.1,1.1,5.7,1.1c2,0.1,3.4,0.1,3.9,0.2c0.9,0.1,1.5,0.3,1.9,0.6c0.4,0.3,0.7,0.7,0.8,1.3
	c0.2,0.8,0,1.7-0.7,2.5c-0.6,0.8-1.7,1.4-3.2,1.7c-1.4,0.3-2.6,0.2-3.6-0.3c-1-0.5-1.8-1.5-2.4-3l-4.4,1.4c0.9,2.5,2.2,4.3,4.1,5.3
	s4.2,1.2,7.1,0.6c2-0.4,3.6-1.1,4.8-1.9c1.2-0.9,2.1-1.9,2.5-3.2c0.5-1.3,0.6-2.6,0.3-3.9c-0.3-1.5-0.9-2.6-1.7-3.5
	s-1.8-1.4-3.1-1.8c-1.2-0.3-3-0.5-5.4-0.6c-2.4,0-3.9-0.2-4.6-0.6c-0.5-0.3-0.9-0.7-1-1.2c-0.1-0.6,0-1.1,0.4-1.6
	c0.6-0.7,1.6-1.2,3-1.5c1.3-0.3,2.3-0.2,3.1,0.1c0.8,0.4,1.4,1.1,1.8,2.3l4.6-1.2c-0.5-2.1-1.7-3.6-3.4-4.6c-1.7-0.9-4-1.1-6.9-0.5
	c-1.8,0.4-3.2,1-4.4,1.8s-1.9,1.8-2.4,3c-0.4,1.2-0.5,2.3-0.3,3.5C368.6,100.3,369.7,101.7,371.4,102.7z"/>
<path class="st2" d="M330.1,129.2c2.8,1,5.8,0.8,8.9-0.8c3.1-1.5,5.1-3.7,6-6.5c0.9-2.8,0.6-6-1.1-9.4c-1.7-3.4-3.9-5.7-6.7-6.7
	s-5.8-0.8-8.9,0.7c-1.7,0.8-3.1,1.9-4.2,3.1c-0.8,0.9-1.4,2-1.8,3.2s-0.6,2.5-0.6,3.9c0.1,1.8,0.6,3.7,1.7,5.9
	C325.1,126,327.3,128.1,330.1,129.2z"/>
<polygon class="st2" points="352.9,121.9 347.7,107.4 361.8,118.7 366.3,117.1 358.4,94.9 354.2,96.4 359.5,111.2 345.2,99.6 
	340.8,101.2 348.7,123.3 "/>
<circle class="st2" cx="230.3" cy="369.1" r="3"/>
<path class="st2" d="M225,320.7l-0.3-3.1c-0.2-2.1-0.5-3.8-0.8-4.9c-0.3-0.8-0.7-1.6-1.3-2.3s-1.5-1.3-2.5-1.8s-2.3-0.6-3.7-0.4
	c-1.9,0.2-3.3,0.8-4.4,1.8c-1.1,1-1.7,2.2-2,3.6c-0.1,0.9-0.1,2.8,0.2,5.7l0.7,7.6l23.4-2.3l-0.5-4.7L225,320.7z"/>
<polygon class="st2" points="249.2,220.1 251.2,215.8 242.3,211.6 233.6,198 231.2,202.9 237.4,211.8 226.6,212.9 224.2,217.9 
	240.2,215.9 "/>
<path class="st2" d="M241.5,229.3l-8.9-2.8l-3.1,9.8l3.8,1.2l1.6-5.2l2.8,0.9c0.3,0.9,0.5,1.8,0.6,2.9c0.1,1.1,0,2.1-0.3,3
	c-0.6,1.9-1.8,3.3-3.5,4c-1.7,0.8-3.9,0.7-6.6-0.1c-2.5-0.8-4.1-2-5-3.5c-0.9-1.6-1-3.3-0.4-5.3c0.4-1.3,1.1-2.3,2-3
	c0.9-0.7,2-1,3.2-1l0.6-4.8c-2.2-0.2-4.1,0.3-5.8,1.5c-1.7,1.2-2.9,3.2-3.8,6c-0.7,2.1-0.9,4.1-0.6,5.7c0.4,2.2,1.3,4.1,2.8,5.6
	c1.5,1.6,3.4,2.7,5.8,3.4c2.2,0.7,4.3,0.9,6.4,0.6c2.1-0.3,3.9-1.2,5.5-2.6c1.5-1.4,2.7-3.3,3.4-5.7c0.6-1.8,0.8-3.8,0.7-5.8
	C242.5,232.1,242.2,230.5,241.5,229.3z"/>
<polygon class="st2" points="214.1,251 229.5,254 212.2,260.4 211.3,264.9 234.4,269.6 235.3,265.2 220.2,262.2 237.1,255.9 
	238.1,251.3 215,246.6 "/>
<polygon class="st2" points="232.6,300.8 232.5,296 222.6,296.2 208.8,287.7 208.9,293.2 218.3,298.5 209.1,304.2 209.2,309.8 
	222.7,300.9 "/>
<path class="st2" d="M227.6,288.2c0.9-0.1,1.8-0.5,2.7-1.1c0.9-0.6,1.6-1.4,2.3-2.6c0.6-1.1,1-2.8,1.3-5c0.2-1.9,0.1-3.4-0.3-4.6
	c-0.4-1.2-0.9-2.2-1.6-2.9c-0.7-0.8-1.7-1.3-2.8-1.7s-3.1-0.7-5.9-0.9l-12.3-1.2l-0.4,4.7l13,1.2c1.9,0.2,3.2,0.4,4,0.6
	c0.8,0.2,1.4,0.7,1.9,1.4c0.5,0.7,0.7,1.8,0.5,3.1c-0.1,1.3-0.5,2.3-1.2,3c-0.7,0.7-1.5,1.1-2.4,1.2c-0.6,0.1-1.9,0-3.9-0.2
	l-12.7-1.2l-0.4,4.7l12.5,1.2C224.2,288.3,226.2,288.4,227.6,288.2z"/>
<polygon class="st2" points="407.4,109.5 407,105.6 393.9,107.1 393.2,100.8 404.9,99.4 404.4,95.4 392.7,96.8 392.1,91.7 
	404.7,90.1 404.2,86.2 386.9,88.3 389.7,111.6 "/>
<path class="st2" d="M544.6,155.4l5.1-2.6l6.9,6.4l-2.2,5.3l2.6,2.4l0,0l3.1,3.6l7.4-6.4l0.6,0.7c0.7,0.8,1.2,1.5,1.4,2
	c0.2,0.5,0.3,1.1,0.2,1.7c-0.1,0.7-0.4,2-1,4.2l-1.6,6l3.7,4.3l1.6-5.2c0.6-2.1,1-3.6,1.1-4.5c0.1-1,0-2-0.2-3.2
	c1.6,1.4,3.1,2.1,4.7,2.1s3-0.5,4.3-1.7c1-0.9,1.8-2,2.1-3.2c0.4-1.2,0.3-2.4-0.1-3.5s-1.5-2.7-3.1-4.6l-6.6-7.5l-15.3,13.3
	l7.9-20.4l-3.7-3.4l-22.8,10.9L544.6,155.4z"/>
<path class="st2" d="M593.9,215.8c-1.2,2.7-1.1,5.5,0.1,8.3c1,2.3,2.4,4,4.2,5c1.8,1,4,1.4,6.6,1l-0.5-4.8c-1.7,0.3-3.2,0.2-4.3-0.3
	c-1.1-0.5-1.9-1.4-2.4-2.5c-0.7-1.6-0.6-3.1,0.1-4.6c0.7-1.5,2.5-2.8,5.2-4c2.6-1.1,4.7-1.4,6.2-0.9c1.6,0.5,2.7,1.6,3.4,3.2
	c0.5,1.2,0.6,2.3,0.3,3.4c-0.3,1.1-1,2-2,2.7l2.9,3.9c1.5-1.2,2.5-2.5,3-3.9c0.9-2.3,0.7-4.8-0.4-7.5c-1.3-3-3.3-5.1-6.1-6.1
	c-2.8-1-6-0.7-9.6,0.8C597.4,211,595.1,213.1,593.9,215.8z"/>
<polygon class="st2" points="588.7,174.7 572.8,186.1 575.6,190 591.5,178.6 595.5,184.3 598.8,181.9 587.9,166.7 584.6,169.1 "/>
<path class="st2" d="M593.9,185.7c-1.6,0.9-2.6,2.4-3,4.3c-0.3,1.4,0,3.3,0.7,5.8c0.6,2,0.9,3.2,1,3.8c0.2,0.8,0.2,1.5,0,2
	c-0.2,0.5-0.5,0.9-1,1.1c-0.7,0.4-1.6,0.5-2.5,0.1c-1-0.3-1.8-1.2-2.6-2.5c-0.7-1.2-1-2.4-0.8-3.5s0.9-2.2,2.1-3.2l-2.7-3.8
	c-2.1,1.6-3.4,3.4-3.7,5.5c-0.4,2.1,0.2,4.4,1.7,7c1,1.8,2.2,3.1,3.3,4s2.5,1.4,3.9,1.4c1.4,0,2.7-0.3,3.8-1
	c1.3-0.8,2.2-1.7,2.8-2.7c0.6-1.1,0.8-2.2,0.7-3.5c-0.1-1.3-0.4-3-1.1-5.3c-0.7-2.3-1-3.8-0.9-4.6c0.1-0.6,0.4-1.1,0.9-1.3
	c0.5-0.3,1.1-0.3,1.6-0.1c0.9,0.4,1.7,1.2,2.4,2.4c0.7,1.2,1,2.2,0.8,3c-0.1,0.8-0.6,1.7-1.6,2.5l2.6,4c1.8-1.2,2.9-2.7,3.3-4.7
	s-0.2-4.2-1.7-6.7c-0.9-1.6-1.9-2.8-3.1-3.6c-1.1-0.8-2.3-1.3-3.5-1.3C596,184.8,594.9,185.1,593.9,185.7z"/>
<path class="st2" d="M608.6,280.8l8.9-0.6l0.2,3.1c0.1,2.1,0.4,3.8,0.7,4.9c0.2,0.8,0.7,1.6,1.3,2.4c0.6,0.8,1.4,1.4,2.5,1.8
	c1,0.5,2.2,0.6,3.7,0.5c1.9-0.1,3.4-0.7,4.5-1.7c1.1-1,1.8-2.2,2.1-3.5c0.2-0.9,0.2-2.8,0-5.7l-0.5-7.6l-23.5,1.6L608.6,280.8z"/>
<polygon class="st2" points="609.2,307.5 609.1,312.7 632.8,303.7 632.9,298.6 609.5,289.1 609.4,294.1 614.7,296.1 614.6,305.6 "/>
<polygon class="st2" points="445.4,110.6 445.7,106.6 433.9,105.7 435.5,86.4 430.7,86 428.8,109.3 "/>
<path class="st2" d="M454.2,110.9c1.6,1.4,3.6,2.3,6,2.8c1.9,0.4,3.8,0.4,5.8,0.1c2-0.3,3.6-0.9,4.8-1.6l1.9-9.2l-10-2.1l-0.8,3.9
	l5.3,1.1l-0.6,2.9c-0.8,0.4-1.8,0.7-2.8,0.9s-2.1,0.2-3.1,0c-2-0.4-3.4-1.4-4.4-3c-0.9-1.6-1.1-3.8-0.5-6.5c0.5-2.5,1.5-4.3,3-5.4
	s3.2-1.3,5.3-0.9c1.3,0.3,2.4,0.8,3.2,1.7c0.8,0.8,1.2,1.9,1.3,3.1l4.8,0.1c0-2.2-0.7-4.1-2.1-5.6c-1.4-1.5-3.5-2.6-6.3-3.2
	c-2.2-0.5-4.1-0.5-5.8,0c-2.1,0.6-3.9,1.7-5.3,3.4c-1.4,1.7-2.3,3.7-2.8,6.1c-0.5,2.2-0.4,4.4,0.1,6.4
	C451.5,107.8,452.6,109.5,454.2,110.9z"/>
<path class="st2" d="M528.4,128.3c-1.3,1.8-2.2,3.8-2.5,5.9c-0.4,2.1-0.1,4.1,0.8,6c0.9,1.9,2.3,3.6,4.3,5c1.6,1.1,3.3,1.9,5.3,2.5
	c2,0.5,3.6,0.7,5,0.5l5.5-7.6l-8.3-6l-2.3,3.2l4.4,3.2l-1.7,2.4c-0.9,0-1.9-0.1-2.9-0.3s-2-0.7-2.8-1.3c-1.6-1.2-2.6-2.7-2.7-4.5
	c-0.2-1.9,0.5-3.9,2.1-6.2c1.5-2.1,3.1-3.3,4.9-3.7c1.8-0.4,3.5,0.1,5.2,1.3c1.1,0.8,1.8,1.7,2.2,2.8c0.4,1.1,0.3,2.2-0.1,3.3l4.4,2
	c0.9-2,1-4,0.4-6c-0.6-2-2.1-3.8-4.5-5.5c-1.8-1.3-3.6-2.1-5.3-2.3c-2.2-0.3-4.3,0-6.2,0.9C531.5,124.8,529.8,126.3,528.4,128.3z"/>
<polygon class="st2" points="476.1,117.4 480.6,118.9 483.7,109.5 496.1,99.1 490.8,97.4 482.8,104.7 480.4,94.1 475.1,92.4 
	479.2,108 "/>
<path class="st2" d="M417.8,109.7c3.5-0.1,6.2-1.2,8.2-3.4c2-2.2,3-5.2,2.9-9c-0.1-3.8-1.2-6.8-3.3-8.9c-2.1-2.1-4.9-3.1-8.4-3.1
	c-1.9,0-3.6,0.4-5.1,1c-1.1,0.5-2.1,1.2-3,2.2c-0.9,1-1.6,2.1-2.1,3.3c-0.7,1.6-1,3.7-1,6.1c0.1,3.7,1.1,6.7,3.2,8.8
	C411.5,108.7,414.3,109.7,417.8,109.7z"/>
<polygon class="st2" points="509,131 516.6,117.6 517.3,135.6 521.4,138 533,117.5 529.2,115.3 521.4,129 520.8,110.6 516.7,108.3 
	505.2,128.8 "/>
<path class="st2" d="M489.6,116.5c-0.2,0.9-0.1,1.9,0.2,2.9c0.3,1,0.9,2,1.7,3s2.3,1.9,4.4,2.8c1.7,0.7,3.2,1.1,4.4,1.1
	s2.4-0.2,3.3-0.7c1-0.5,1.8-1.2,2.5-2.1s1.6-2.7,2.7-5.3l4.9-11.3l-4.4-1.9l-5.2,11.9c-0.7,1.7-1.3,2.9-1.8,3.6s-1.1,1.1-1.9,1.4
	c-0.8,0.2-1.9,0.1-3.1-0.5c-1.2-0.5-2.1-1.2-2.5-2.1s-0.6-1.7-0.4-2.7c0.1-0.6,0.6-1.8,1.4-3.7l5.1-11.7l-4.4-1.9l-5,11.5
	C490.5,113.3,489.8,115.2,489.6,116.5z"/>
<path class="st2" d="M542.3,470.1l-0.7-0.9l16.2-12.3l-4.6-6.1l-8.1,6.2l-0.7-0.9l8.8-6.7l-2.1-2.8l-21.1,16.1l2.1,2.8l8.8-6.7
	l0.7,0.9l-8.1,6.2l2.1,2.7l16.2-12.3l0.6,0.8l-16.2,12.3l3.3,4.4c0.5,0.7,1.1,1.1,1.6,1.2c0.5,0,1-0.2,1.6-0.6l18-13.7l-2.2-2.8
	L542.3,470.1z"/>
<path class="st2" d="M453.6,496.9c-1.9-1.3-4-1.8-6.3-1.5c-2.3,0.3-4.2,1.3-5.8,2.9c-1.6,1.8-2.3,3.9-2,6.3c0.3,2.4,1.4,4.2,3.4,5.6
	c1.9,1.3,4,1.8,6.3,1.5s4.3-1.3,5.8-3c1.7-1.8,2.4-3.9,2.1-6.2C456.8,500.1,455.7,498.2,453.6,496.9z"/>
<path class="st2" d="M493.9,470.7l1.3,3.3l-2.3,0.9l0.5,1.2c-0.5-0.5-1.1-1-1.7-1.4c-2-1.3-4.1-1.5-6.3-0.6
	c-2.2,0.9-3.6,2.5-4.1,4.8c-0.5,2.1-0.3,4.3,0.7,6.7c0.9,2.3,2.3,4,4.1,5.2c2,1.3,4.1,1.5,6.3,0.6c2.2-0.9,3.6-2.5,4.1-4.8
	c0.2-0.7,0.3-1.5,0.3-2.2l0.8,2l2.3-0.9l4.1,10l3.8-1.5l-10-24.7L493.9,470.7z"/>
<polygon class="st2" points="451.3,483.1 451.5,484.9 447.6,485.3 448,488.8 452,488.4 452.2,490.2 448.2,490.7 448.7,494.2 
	452.6,493.7 452.8,495.8 457.2,495.2 455.7,482.6 "/>
<polygon class="st2" points="401.4,486.6 396.5,485.9 395.9,489.6 400.8,490.3 400,496.3 404.3,497 406,485.2 401.7,484.6 "/>
<path class="st2" d="M380.6,498.6l18.7,2.7l-0.2,1.2l-18.7-2.7l-0.9,6.1c-0.1,0.9,0,1.5,0.3,1.9c0.3,0.4,0.8,0.6,1.5,0.7l20.9,3
	l0.6-3.8l-18.7-2.7l0.2-1.2l18.7,2.7l1.2-8.2l-23-3.3L380.6,498.6z"/>
<path class="st2" d="M446.6,485.8l-0.2-2.1l-14.8,1.8l0.4,3.8l10.2-1.2c0.2,1.5-0.5,2.9-1.9,4.1c-1.8,1.5-4.4,2.5-8,3.1l0.5,4
	c4-0.6,7.3-1.8,9.7-3.7C445.7,493.1,447,489.9,446.6,485.8z"/>
<path class="st2" d="M615.8,250.4c3.7-1.1,6.2-3,7.7-5.6s1.7-5.6,0.7-8.9c-0.6-1.8-1.3-3.4-2.4-4.6c-0.8-0.9-1.7-1.7-2.9-2.3
	s-2.4-1-3.7-1.2c-1.8-0.2-3.8,0-6.1,0.7c-3.6,1.1-6.1,2.9-7.5,5.5c-1.4,2.6-1.7,5.6-0.6,8.9c1,3.3,2.8,5.6,5.5,7
	C609,251.3,612.2,251.5,615.8,250.4z"/>
<path class="st2" d="M583.9,430.9l-4.6-3.5l-2.7,3.5l5.8,4.5c0.7,0.5,1.3,0.8,1.8,0.7c0.5-0.1,0.9-0.4,1.3-1l13-16.9l-3.1-2.4
	L583.9,430.9z"/>
<path class="st2" d="M589.3,416.8l2.7-3.5l-7-5.4l2.2-2.8l-3.1-2.4l-2.2,2.8l-4.4-3.4l-2.7,3.5l8.1,6.2l-9.7,12.6l-5-3.8l6.8-8.8
	l-3.1-2.4l-9.5,12.3l9.3,7.2c0.7,0.5,1.3,0.8,1.8,0.7c0.5-0.1,0.9-0.4,1.3-1l11.1-14.4L589.3,416.8z"/>
<rect x="504" y="466.8" transform="matrix(0.9265 -0.3763 0.3763 0.9265 -143.4883 225.7151)" class="st2" width="4.2" height="26.7"/>
<path class="st2" d="M534.9,456c1.6-2.1,2.5-3.9,2.5-5.4c1.5,0.3,3.4,0,5.8-1c2.1-0.9,4.2-2.1,6.2-3.6l-2.2-2.9
	c-2.5,1.8-4.7,2.9-6.4,3.4c-2,0.5-3.5,0-4.5-1.3l-3.9,2.9c1,1.3,1,2.9,0,4.7c-0.9,1.6-2.5,3.4-4.9,5.3l2.2,2.9
	C531.8,459.4,533.5,457.8,534.9,456z"/>
<path class="st2" d="M290.4,451.1c1.6,1.3,3.4,1.9,5.4,1.8c2.2-0.1,3.9-0.9,5.2-2.5c1.3-1.7,1.8-3.6,1.4-5.7c-0.4-2-1.4-3.6-3-4.9
	c-1.6-1.3-3.4-1.9-5.5-1.9c-2.1,0.1-3.9,0.9-5.2,2.6c-1.3,1.6-1.8,3.5-1.4,5.6C287.8,448.2,288.8,449.8,290.4,451.1z M292.1,443.2
	c0.6-0.7,1.4-1.2,2.4-1.2c0.9,0,1.8,0.3,2.5,0.9c0.7,0.6,1.2,1.3,1.3,2.2c0.2,1-0.1,1.8-0.7,2.6c-0.6,0.7-1.4,1.1-2.4,1.2
	c-0.9,0.1-1.8-0.2-2.5-0.8c-0.7-0.6-1.2-1.4-1.4-2.3C291.3,444.8,291.6,444,292.1,443.2z"/>
<polygon class="st2" points="632.9,308 618.5,315.3 608.6,314.3 608.2,319 618,320 630.7,329.9 631.3,324.5 622.5,318.2 
	632.3,313.6 "/>
<path class="st2" d="M298.5,455.9c-1.8-1.5-3.9-2.2-6.2-2.1c-2.4,0.1-4.4,1.1-5.9,3c-1.5,1.9-2,4-1.6,6.4c0.4,2.2,1.5,4.1,3.4,5.6
	c1.8,1.5,3.9,2.2,6.1,2.1c2.5-0.1,4.4-1,5.9-2.9c1.5-1.9,2-4,1.5-6.4C301.4,459.2,300.3,457.3,298.5,455.9z M296.8,465
	c-0.7,0.9-1.7,1.4-2.9,1.5c-1.1,0.1-2.2-0.2-3.1-1c-0.9-0.7-1.5-1.7-1.7-2.9c-0.2-1.2,0.1-2.3,0.8-3.2s1.7-1.4,2.9-1.5
	c1.2-0.1,2.2,0.3,3.1,1c0.9,0.7,1.5,1.7,1.6,2.8C297.8,463.1,297.5,464.1,296.8,465z"/>
<circle class="st2" cx="611.1" cy="370.1" r="3"/>
<path class="st2" d="M333.5,482.2l-4-1.8l-3.2,7.2c-0.3,0.8-0.4,1.5-0.2,1.9c0.2,0.4,0.6,0.8,1.3,1.1l19.5,8.5l1.6-3.6L331,488
	L333.5,482.2z"/>
<path class="st2" d="M386.8,482.4c-0.3,2.1-0.9,3.7-1.9,4.7c-1.2,1.3-3,2-5.5,2l-0.6,3.9c1.7,0.2,3.5,0,5.2-0.5
	c1.8-0.6,3.2-1.5,4.2-2.6c0.6,1.4,1.5,2.6,3,3.6c1.4,1,3.1,1.7,5,2l0.6-4c-2.4-0.7-4-1.8-4.8-3.4c-0.6-1.3-0.8-3-0.5-5.1
	L386.8,482.4z"/>
<polygon class="st2" points="351.9,476.1 348.1,474.4 349.4,471.3 334.9,465 333.4,468.6 343.8,473.1 341.3,478.9 329.7,473.9 
	328.2,477.5 336.3,481 334.4,485.4 338.4,487.2 340.3,482.8 345.6,485.1 347.2,481.5 345.3,480.7 346.5,478 350.4,479.7 
	345.4,491.1 349.4,492.9 357.3,474.8 353.3,473 "/>
<polygon class="st2" points="313.1,451.9 309.7,449.1 301.8,458.9 305.3,461.6 306.4,460.2 309.2,462.5 311.4,459.7 308.6,457.4 
	309.6,456.2 312.4,458.4 314.7,455.6 311.9,453.4 "/>
<polygon class="st2" points="608.4,275.6 631.6,271.4 630.3,264.4 613.8,263.1 628.8,256.1 627.6,249.1 604.4,253.2 605.2,257.5 
	623.4,254.3 606,262.1 606.8,266.6 625.9,268 607.6,271.2 "/>
<circle class="st2" cx="420.9" cy="297.6" r="158.5"/>
<rect x="258.8" y="406.6" transform="matrix(0.808 -0.5892 0.5892 0.808 -190.2956 232.265)" class="st1" width="4.9" height="3.1"/>
<path class="st0" d="M292.8,448.1c0.7,0.6,1.6,0.9,2.5,0.8c1-0.1,1.8-0.5,2.4-1.2c0.6-0.7,0.8-1.6,0.7-2.6c-0.2-0.9-0.6-1.6-1.3-2.2
	c-0.7-0.6-1.6-0.9-2.5-0.9c-1,0.1-1.8,0.5-2.4,1.2c-0.6,0.7-0.8,1.6-0.7,2.6C291.6,446.7,292.1,447.5,292.8,448.1z"/>
<path class="st0" d="M296,459.1c-0.9-0.7-2-1.1-3.1-1c-1.2,0.1-2.2,0.6-2.9,1.5s-1,2-0.8,3.2c0.2,1.2,0.7,2.1,1.7,2.9
	c0.9,0.7,2,1.1,3.1,1c1.2-0.1,2.2-0.6,2.9-1.5s1-2,0.8-3.2C297.4,460.7,296.9,459.8,296,459.1z"/>
<path class="st0" d="M622.3,286.3c0.3,0.6,0.7,1.1,1.3,1.4c0.5,0.3,1.2,0.5,1.9,0.4c0.9-0.1,1.5-0.4,2.1-0.9c0.5-0.5,0.8-1.2,0.9-2
	c0.1-0.6,0-1.7-0.1-3.4l-0.2-2.3l-6.7,0.5l0.2,2.6C621.8,284.4,622,285.7,622.3,286.3z"/>
<path class="st0" d="M614.5,245.6c2.6-0.8,4.3-1.9,5.3-3.5c0.9-1.5,1.1-3.2,0.5-5.1c-0.6-1.9-1.7-3.2-3.3-3.9s-3.7-0.7-6.3,0
	c-2.5,0.8-4.3,2-5.3,3.5c-1,1.6-1.2,3.3-0.6,5.1c0.6,1.8,1.7,3.1,3.3,3.9C609.7,246.4,611.9,246.4,614.5,245.6z"/>
<polygon class="st0" points="618.7,297.7 618.6,304.1 627.4,301 "/>
<path class="st0" d="M575.7,167.3c0.5,0.3,1.1,0.4,1.6,0.4c0.6-0.1,1.1-0.3,1.6-0.8c0.6-0.5,0.9-1.1,1-1.7s-0.1-1.3-0.5-2
	c-0.2-0.3-1-1.2-2.2-2.7l-2.4-2.8l-4.5,3.9l2.3,2.7C574.1,166,575.2,167,575.7,167.3z"/>
<g>
	<path class="st0" d="M431.5,374.6c-1.9,0.4-3.7,0.9-5.6,1.3c-3.3,0.7-6.5,2-9.9,2.2c-1.1,0.1-2.2,0.3-3.3,0.5
		c-2.2,0.4-3.2-0.3-3.5-2.4c0-0.1,0-0.2,0-0.3c-0.3-2-0.4-2.1,1.4-3c4.7-2.6,9.5-4.8,14.8-6c2.2-0.5,4.4-1.2,6.6-1.7
		c2.2-0.5,4.4-0.8,6.5-1.1c1.9-0.3,3.7-0.6,5.6-0.6c1.5-0.1,3,0.2,4.4,0.4c1.3,0.2,2,1.3,2.6,2.3c0.4,0.6,0.2,1.3-0.4,1.7
		c-0.6,0.4-1.3,0.8-2,0.9c-3,0.1-5.2,1.8-7.1,3.9c-2.1,2.4-4.1,4.9-6.1,7.4c-0.3,0.3-0.3,0.9-0.6,1.6c1.3,0,2.2,0,3.2,0
		c1.6,0,3.3,0.1,4.9,0.4c2.4,0.5,3.3,2.1,4,4c1.1,3,0.3,4.7-2.6,6.1c-3,1.4-6,2.6-9,4.1c-2.6,1.4-5.1,3-7.7,4.5
		c-0.6,0.4-0.7,0.8-0.4,1.6c0.4,0,0.8,0.1,1.2,0.1c2.2,0,4.4-0.1,6.5,0c2.3,0.1,4.6,0.5,6.7,1.8c1.7,1.1,1.9,3,0.5,4.5
		c-1.2,1.3-2.7,1.9-4.2,2.5c-6.3,2.4-12.9,4-19.4,5.7c-4.8,1.2-9.5,2.5-14.3,3.8c-2.5,0.7-5,1.6-7.4,2.5c-0.3,0.1-0.6,0.3-0.9,0.4
		c-0.5,0.2-1,0.5-0.8,1.2c0.2,0.6,0.8,0.5,1.3,0.4c2.2-0.4,4.3-0.8,6.5-1.2c1.4-0.3,2.9-0.5,4.4-0.7c1.2-0.2,2.5-0.4,3.7-0.6
		c2.1-0.3,4.2-0.6,6.2-0.9c3.4-0.4,6.8-0.8,10.2-1.3c0.3,0,0.6-0.1,0.9-0.1c5.6-0.1,11.2-0.8,16.8-0.4c3.2,0.2,6.4,0.2,9.6,0.4
		c2.2,0.1,4.3,0.5,6.4,0.8c1.5,0.2,3,0.4,4.6,0.6c1.9,0.3,3.8,0.8,5.4,1.9c1.4,0.9,2.3,2.2,2.2,4c-0.1,0.5-0.4,1.1-0.8,1.4
		c-0.4,0.4-1.1,0.7-1.6,0.9c-0.5,0.1-1.3,0.1-1.6-0.2c-1-0.9-2.2-1.1-3.4-1.2c-0.6-0.1-1.2-0.3-1.8-0.3c-2.2-0.2-4.4-0.3-6.6-0.9
		c-0.4-0.1-0.8-0.1-1.2-0.1c-2.1,0.2-4.1-0.2-6.1-0.7c-0.3-0.1-0.7-0.1-1,0c-1.8,0.5-3.5,0.2-5.2,0c-1.8-0.2-3.7-0.1-5.5-0.1
		c-3.7-0.1-7.3-0.3-11-0.3c-1.6,0-3.2,0.2-4.8,0.3c-3.1,0.2-6.2,0.3-9.2,0.6c-2.7,0.3-5.4,0.9-8.1,1.3c-2.3,0.4-4.6,0.7-6.9,1
		c-0.8,0.1-1.6,0.3-2.3,0.5c-4.5,0.9-9,1.8-13.4,3.1c-1.9,0.6-3.9,0.9-5.8,1.2c-0.5,0.1-1.1,0.2-1.5,0c-0.5-0.1-1-0.4-1.2-0.8
		c-0.8-1.5,0-4.1,1.6-4.9c1.4-0.7,2.9-1.4,4.4-1.9c4.5-1.6,9.1-3.3,13.7-4.8c5-1.7,10.1-3.2,15.1-4.8c6.1-1.9,12.2-3.9,18.3-5.8
		c3-0.9,6-1.8,8.9-2.7c1-0.3,2-0.8,3-1.2c0.5-0.2,1-0.4,0.9-1c-0.1-0.7-0.6-1-1.2-1.1c-1.5-0.1-3-0.3-4.4-0.2
		c-2.8,0.2-5.6,0.7-8.5,1c-1.1,0.1-2.3,0.1-3.4,0.1c-1.4,0-2.1-0.8-2-2.2c0.2-2.1,1-3.9,2.5-5.3c1.8-1.6,3.7-3.1,5.5-4.6
		c0.2-0.1,0.5-0.2,0.6-0.4c0.2-0.4,0.5-0.8,0.4-1.1c-0.1-0.3-0.8-0.7-1-0.6c-1.2,0.7-2.6,0.3-3.9,1c-1.5,0.9-3.2,1.4-4.8,2.1
		c-0.3,0.1-0.9,0.1-1.1-0.1c-0.7-0.6-1.5-1.2-2-2c-0.5-0.8-0.7-1.8-1-2.7c-0.4-1.5-0.2-2,1.2-2.8c2.1-1,4.3-2,6.5-2.9
		c1-0.4,2-0.8,3.1-0.9c1-0.1,1.6-0.7,1.8-1.6c0.5-2,1.6-3.6,2.7-5.3C431.8,375.7,431.8,375.7,431.5,374.6z"/>
	<path class="st0" d="M388.8,363.9c1,0.4,1.5-0.1,2-0.7c1.2-1.3,2.8-2.2,4.6-3c0.5,0.5,1.1,1,1.4,1.6c0.7,1.1,0.4,1.8-0.6,2.7
		c-1,0.9-2,1.9-2.6,3.1c-1.6,3.3-3.2,6.7-4.5,10.1c-1.1,2.7-1.9,5.6-2.4,8.5c0,0.3-0.2,0.5-0.4,0.9c-1.5-0.9-1.9-2.3-2.2-3.7
		c-0.5-2.7,0-5.3,0.7-7.9c0.2-0.6,0.1-1.3,0.2-2.3c-0.7,0.3-1.1,0.3-1.5,0.5c-1.7,1.2-3.3,2.4-5,3.6c-0.4,0.3-0.8,0.5-1.2,0.7
		c-1,0.5-1.6,0.3-2.2-0.6c-0.3-0.5-0.6-0.9-1-1.4c0.3-1.1,0.9-1.8,1.9-2.3c2.7-1.4,5.3-2.9,8-4.3c1-0.5,2-0.9,2.9-1.4
		c0.5-0.3,1-0.8,1.4-1.2c0.4-0.6,0.8-1.3,0.2-2c-0.7-0.9-1.5-1.2-2.5-0.8c-4.3,1.8-8.5,3.5-12.2,6.4c-0.8,0.6-1.6,1.3-2.4,1.9
		c-1,0.9-1.3,2.1-1.6,3.3c-0.1,0.4,0,0.9,0.3,1.3c1.8,3,1.3,5.8-0.3,8.7c-1.9,3.4-5.1,4.7-8.6,5.5c-1.7,0.4-2.7-0.4-3.6-1.7
		c-2.4-3.5-2.3-7.2-0.3-10.8c1.2-2.1,2.7-4.1,4.8-5.5c1-0.7,1.9-1.7,2.7-2.6c4.2-4.6,9.3-7.7,15-9.9c1.6-0.6,3.2-0.7,4.9-0.5
		C386.7,360,388.5,361.8,388.8,363.9z M367.2,378c-2.6,2.6-4.7,5.2-5.9,8.5c-0.1,0.3,0,0.6,0.1,0.9c2.2-0.8,5.3-3.7,6-5.9
		C367.7,380.4,368.2,379.3,367.2,378z"/>
	<path class="st0" d="M489.7,355.4c2.1,1.7,2.5,3.2,1.6,5.2c-1.1,2.2-2.2,4.4-3.3,6.6c-0.1,0.2-0.1,0.4-0.2,0.7
		c0.6,0.8,1.3,0.6,2,0.4c3.8-1.2,7.7-2,11.7-1.8c1.8,0.1,3.3,0.7,4.2,2.4c0.5,1,0.4,1.5-0.5,2.2c-0.1,0.1-0.3,0.2-0.4,0.3
		c-1.6,0.9-2.2,0.8-3.3-0.8c-3.6,0.2-7.2-0.5-10.8,0.5c-1.8,0.5-3.5,1.2-5.2,2c-1.5,0.7-2.3,2-3,3.4c-0.4,0.7-0.9,1.3-1.5,1.8
		c-0.7,0.5-1.4,0.3-1.7-0.5c-0.5-1.5-1.2-3-0.4-4.6c0.3-0.6,0.3-0.7-0.7-1.5c-2.3,1.4-4.7,2.8-7.1,4.3c-3.1,2-5.9,4.5-9.4,5.9
		c-0.5,0.2-1,0.5-1.4,0.9c-1,1-2.2,1.3-3.6,1.3c-1,0-1.8-0.4-2.2-1.3c-0.5-1.2-1-2.4-0.7-3.9c0.8-3.4,2.4-6.4,4.7-9
		c0.5-0.6,0.7-1.2,0.3-1.9c-0.4-0.6-0.7-1.3-1-2c-0.6-1.4-0.2-2.4,1.3-2.8c2.6-0.7,5.3-1.3,8.1-1.4c2.3-0.1,3.6,1.4,4.7,3.2
		c0.2,0.3,0.1,1-0.1,1.3c-0.9,1.2-1.9,2.3-3.5,2.6c-1.6,0.3-3,1-4.1,2.3c-1.2,1.4-2.6,2.6-3.9,3.9c-0.2,0.2-0.6,0.5-0.7,0.8
		c-0.1,0.5-0.3,1.1-0.1,1.4c0.3,0.5,0.9,0.2,1.4,0c3.1-1.4,6.2-2.8,9.4-4.1c2.5-1,5.1-1.8,7.7-2.7c2-0.6,3.3-1.9,4.3-3.8
		c1.9-3.3,4-6.3,6.1-9.5C488.8,356.4,489.3,356,489.7,355.4z"/>
	<path class="st0" d="M437.4,354.5c2.4,0.2,4.4,1,6.2,2.3c1.2,0.8,1.6,2.2,2.3,3.4c0.1,0.2,0,0.6-0.2,0.7c-1,0.6-1.7,1.6-3.2,1.5
		c0.3-0.5,0.5-0.9,0.9-1.6c-0.3-0.3-0.6-0.7-1-0.9c-0.9-0.4-1.8-0.8-2.7-0.8c-1.6,0-3.1-0.7-4.8-0.2c-1.1,0.3-2.2,0.1-3.3,0.1
		c-1.6,0-2.9,0.4-4.2,1.2c-2.4,1.3-4.7,2.6-7.1,3.9c-0.8,0.4-1.6,0.9-2.5,0.1c-1-0.9-1.8-1.9-1.5-3.3c0.2-0.8,0.4-1.7,1.2-2.3
		c1.9-1.6,3.7-3.2,5.6-4.7c1.7-1.4,3.5-2.8,5.3-4.1c1.4-1,2.8-2,4.2-2.9c1.3-0.8,1.9-0.7,2.8,0.6c0,0,0,0.1,0.1,0.1
		c1.7,1.7,2.2,3.8,1.9,6.1C437.2,353.8,437.3,354,437.4,354.5z"/>
	<path class="st0" d="M409.9,362.1c-4,4.6-6.2,10-8.6,15.3c-0.9,2-1.9,3.9-2.8,5.9c-0.4,0.9-0.7,1.8-0.9,2.7
		c-0.2,0.8-0.4,1.7-0.3,2.5c0.1,0.9,0.4,1.8,0.8,2.7c0.2,0.4,0.6,0.8,1,1.4c-1.5-0.5-3.4-2.2-4-3.5c-1.3-3-1.8-6-1.3-9.3
		c1-6.5,4.4-11.9,8.3-16.9c1.1-1.4,2.7-2.4,4.1-3.6c0.6-0.5,1.1-0.5,1.7,0.1C408.6,360.2,409.7,360.8,409.9,362.1z"/>
	<path class="st0" d="M496.2,392.1c-1.2,0-2.3,0-3.3,0c-2,0.1-4,0.1-6,0.2c-3.7,0.3-7.4,0.6-11.1,1c-1.3,0.1-2.7,0.5-3.9,0.9
		c-2.1,0.8-3.6-0.1-5-1.3c-0.7-0.6-0.9-1.8-0.7-2.9c0.3-1.3,0.9-2.5,2-3.3c1-0.7,2-1.3,3-2c0.8-0.6,1.7-0.2,2.1,0.5
		c0.5,0.8,0.2,1.8-0.7,2.3c-0.4,0.3-0.9,0.5-1.3,0.8c-0.4,0.3-0.6,0.8-0.2,1.2c0.2,0.2,0.7,0.5,1,0.4c2.7-0.4,5.4-1,8.1-1.2
		c3.6-0.2,7.3-1,10.9,0c1.9,0.5,3.7,1.2,5,2.8C496.1,391.8,496.1,392,496.2,392.1z"/>
</g>
<g>
	<path class="st0" d="M370.7,256.4c-0.7,3.8-3.4,5.4-6.5,7.1c-3.1,1.7-6.5,3-9.4,5.2c-2.3,1.8-5.3,2.7-8,3.9c-2.9,1.2-5,2.7-4.9,6.3
		c0,1.5-1.3,3-1.8,4.5c-2,5.7-4,11.5-6.1,17.1c-0.4,1.1-1,2.3-1.9,3c-1.9,1.7-3.8,0.9-4.7-1.5c-1.5-4.1-0.7-8.1,0.4-12.1
		c0.4-1.4,0.9-2.7,1.2-4.1c0.4-1.7-0.8-2.9-2.5-2.2c-8.2,3.2-16.4,6.5-24.6,9.8c-3.1,1.3-6.2,2.8-9.3,4.1c-2.3,1-4.7,0.1-5.9-2.2
		c-0.3-0.5-0.6-1.1-0.8-1.7c-0.8-2-0.9-3.8,1-5.3c3.8-3.1,7.5-6.2,11.3-9.2c6.7-5.2,14.1-9.4,21.4-13.7c1-0.6,1.9-1.6,2.6-2.6
		c5.4-9.1,10.7-18.3,16-27.5c0.2-0.3,0.5-0.5,0.5-0.8c0-0.7,0.2-1.6-0.2-2.2c-0.2-0.4-1.3-0.5-1.9-0.4c-1.9,0.4-3.8,1.1-5.7,1.5
		c-2.3,0.4-4.7,0.5-7,0.8c-1.9,0.2-3.3-0.7-4.2-2.2c-1.2-2.2-2.4-4.6-3.3-6.9c-0.6-1.6,0.7-2.7,1.9-3.2c4.8-2.2,9.6-4.7,15-5.4
		c1.8-0.3,3.5-0.8,5.5-0.4c8.4,1.9,13,7.8,15.5,15.3c1.3,4,1.1,8.4-1.5,12.2c-1.2,1.8-2.4,3.6-3.7,5.3c-0.7,1-1.2,2.2-0.3,3.1
		c0.4,0.5,1.8,0.4,2.5,0.1c4.3-1.5,8.7-1.4,13.2-1.2C367.2,251,369.3,253.2,370.7,256.4z"/>
	<path class="st0" d="M501,266.9c-1.8-2.2-2-2.3-3.9-1.3c-4.4,2.2-8.8,4.4-13.2,6.6c-3.4,1.7-5.3,1.3-7.1-2
		c-0.8-1.3-1.3-2.8-1.8-4.2c-0.8-2.2-0.7-2.7,1.1-3.9c5.7-3.8,11.5-7.5,18.1-9.2c3-0.7,6.4-0.5,9.5-0.3c1.1,0.1,2.2,1.4,3.2,2.2
		c1,0.9,1.8,1,3,0.5c2.8-1.2,5.7-2.4,8.7-3.3c2.8-0.9,5.7-0.8,8.5,0.4c0.7,0.3,1.5,0.8,2,1.4c1.2,1.3,0.8,3.1-0.9,3.3
		c-5.3,0.6-9.2,3.9-13.7,6.2c-1.8,0.9-2.6,4.2-1.5,5.9c0.5,0.9,1.2,1.4,2.3,0.8c0.9-0.5,1.8-1,2.8-1.4c6-2.8,11.9-5.7,17.9-8.4
		c2.1-0.9,3.4-2.2,4.2-4.2c2.3-5.5,5.2-10.8,8.6-15.7c0.9-1.2,1.9-2.3,2.9-3.5c2.5,1.3,3.6,3.3,4.3,5.5c0.6,1.7,0.7,3.6-0.7,5.2
		c-1.2,1.4-2,3.2-2.8,4.8c-3.6,6.6-6.8,13.4-10.9,19.7c-2.4,3.6-5,7.3-5.8,11.8c-0.1,0.5-0.4,1-0.7,1.8c-1.9-3-1.6-5.2-1.2-7.4
		c0.5-2.7,1-5.5,1.3-8.2c0.3-2.1-0.9-3-2.8-2.1c-1.5,0.7-2.8,1.8-4.2,2.7c-4.9,2.9-9.7,5.8-14.6,8.7c-0.3,0.2-0.8,0.4-1.2,0.3
		c-2.6-0.2-4,1.4-4.9,3.5c-3.1,6.8-7.2,12.9-11.6,19c-2,2.8-4.5,4.3-7.4,5.7c-1.6-0.6-2.2-1.9-2.2-3.2c0-2.6,0-5.2,0.6-7.7
		c1.5-6.6,4.8-12.5,7.9-18.4C496.9,274.8,498.9,270.9,501,266.9z"/>
	<path class="st0" d="M444.5,304.6c3,0,5.1,0.1,7.1,0c2.6-0.2,4.8,0.9,6.9,2.3c1.9,1.3,2.4,3.2,1.1,5.1c-1,1.4-2.4,2.7-3.8,3.5
		c-5.8,3.3-11.8,6.4-17.7,9.6c-3.4,1.9-6.9,3.8-10.2,5.8c-0.7,0.4-1.3,1.2-1.9,1.8c1.4,1.5,2.7,1.1,4,0.8c5.2-1.5,10.4-3.6,15.7-4.5
		c5.9-1,11.9-2,18.2-0.6c5.7,1.3,11.1,2.9,16.1,6c2.9,1.8,5,4.1,6.4,6.7c-1.9-0.8-3.7-1.2-5.2-2.2c-1.7-1.2-3.6-1.3-5.6-1.7
		c-5.7-1-11.3-0.9-16.9,0.3c-6.9,1.5-13.9,2.9-20.8,4.3c-4.8,1-9.7,1.8-14.5,2.8c-2.8,0.6-5.6,1.3-8.4,2c-0.3,0.1-0.6,0.3-0.9,0.3
		c-3.7,0.3-5,0.1-5.5-2c-0.8-2.9,0.8-6.6,3.1-7.8c5.6-2.8,11.3-5.6,16.7-8.8c6.2-3.7,12.2-7.7,18.3-11.6c2-1.3,3.8-2.8,5.7-4.3
		c1-0.7,1.3-1.6,0.6-2.8c-3-0.9-5.8,0.5-8.6,1c-2.9,0.5-5.9,1-8.9,1.2c-2.4,0.2-2.9-0.5-3-2.8c-0.2-4.2,1.1-7.9,4.1-10.9
		c3.3-3.2,6.7-6.1,10.1-9.2c0.6-0.5,1.1-1.2,1.6-1.8c-1.1-1.4-2-1.1-3.2-0.6c-4.4,2-8.9,3.8-13.3,5.8c-3.9,1.8-6,0.8-7.1-3.3
		c-1-3.4-0.9-3.3,2.1-5.4c5.3-3.7,11.1-6.4,17.4-8c3.6-0.9,7.3-1.7,11-1.2c1.5,0.2,3.2,1,4.4,2c1.4,1.2,2.6,2.7,3.5,4.3
		c1.6,2.8,0.4,5.5-1.2,7.7c-2,2.8-4.8,4.8-7.6,6.8c-2.7,1.8-5.4,3.9-7.9,6C445.4,302,445.2,303.1,444.5,304.6z"/>
	<path class="st0" d="M393.5,269.9c-0.3-2.9,0.9-5.6,2.4-8.2c3.9-6.5,8.3-12.5,13.6-17.9c3-3.1,5.8-6.5,8.8-9.6
		c2.1-2.1,4.5-3.9,6.7-6c2.2-2.1,5.1-2.3,7.8,0.8c2,2.3,2.8,5.3,3.2,8.3c0.2,1.4-0.8,3.2-1.8,4.4c-3.3,4.1-6.8,8-10.2,12
		c-1.2,1.4-0.8,2.6,1.2,3.1c2.3,0.6,4.6,1.2,6.9,1.6c3.6,0.6,6.9,1.8,10.1,3.6c1,0.6,1.9,1.2,1.5,2.3c-0.4,1-1.2,1.9-2.1,2.4
		c-0.6,0.4-1.7,0.3-2.4,0.1c-4.1-1.4-8.5-1-12.5-3.1c-1.5-0.8-3.4-0.9-5.1-1.1c-2.8-0.3-4.8,1.2-6.2,3.3c-3.1,4.7-6.1,9.5-9,14.4
		c-2.1,3.5-6.6,4.1-9,0.9C394.9,278.1,393.3,274.4,393.5,269.9z"/>
	<path class="st0" d="M461.6,266.3c-0.4-3.8-0.4-7.3-0.1-10.7c0.3-3.4,2.4-6.4,2.6-10.5c-1.2,0.3-2.2,0.2-2.9,0.7
		c-2.9,2.1-6.3,3-9.6,4.1c-1.5,0.5-3.1,1.4-4.6,1.5c-4,0.3-4.6-0.2-5.8-4.8c1.2-0.8,2.5-1.9,4-2.5c5.3-1.9,10.7-3.6,16.1-5.3
		c0.5-0.2,1-0.4,1.4-0.5c4.9-1.1,8.4-3.9,10.8-8.4c1.4-2.5,3.3-4.8,5.1-7c1.7-1.9,2.8-1.8,4.1,0.3c1.6,2.5,3.1,5.1,1.1,8.3
		c-0.8,1.3-0.5,3.3-1.2,4.8c-2.8,5.9-5.6,11.7-8.9,17.4c-1.6,2.7-4,5-6.2,7.3C465.7,262.7,463.8,264.3,461.6,266.3z"/>
	<path class="st0" d="M372,288c-1.9-2.6,1.2-5.7-1.6-8.3c-0.9,0.6-1.9,1.1-2.8,1.8c-3.1,2.4-6.7,3.4-10.4,4.4
		c-3.4,0.9-7,0.3-10.2,2.1c-1.4,0.8-2.8,0.1-3.7-1.3c-0.8-1.4-0.3-2.5,0.8-3.2c2.2-1.5,4.4-3,6.8-4.1c5.6-2.4,11.3-4.5,16.9-6.7
		c1.5-0.6,3.1-1,4.7-1.6c1.9-0.7,2.9-2.1,3.8-3.8c4.1-7.8,8.3-15.7,12.5-23.4c0.6-1,1-2.6,2.6-2.3c1.6,0.3,2.8,1.4,3.2,3.1
		c0.2,0.8,0.3,1.7,0,2.4c-4.5,10.1-9.1,20.2-13.7,30.3C379.5,280.6,374.4,286.5,372,288z"/>
	<path class="st0" d="M515.5,307.1c0.4-3.9,1.5-7.6,3.9-10.8c2.1-2.7,4.4-5.2,7.4-6.9c1-0.5,1.9-1.3,3.1-0.3c1.2,1,2.7,1.9,2.2,3.7
		c-0.4,1.7-0.5,3,1.5,3.7c0.4,0.1,0.8,1.3,0.6,1.9c-1,3.4-1.7,7-4,9.8c-2.4,2.9-5.3,5.2-9,6.3c-2.7,0.8-4.2,0-4.9-2.6
		c-0.3-1.2-0.6-2.4-0.9-3.6C515.4,308,515.5,307.6,515.5,307.1z M528,296c-5.1,4-8.7,10.6-8,14c3.4-0.8,8-4.3,8.9-7.4
		C529.5,300.6,529.9,298.2,528,296z"/>
	<path class="st0" d="M362,306.4c6.5-2.1,12.5-4.7,19.9-5.1c-1,1-1.5,1.5-2,1.9c-2.8,2.5-5.6,4.9-8.4,7.4c-1.6,1.4-3.4,2.4-5.6,2.4
		c-1.9,0-3.7,1.1-5.8,0.3c-2.2-0.8-3.6-2.1-4-4.3c-0.9-4.9-0.1-9.5,3.2-13.3c0.8-0.9,1.7-1.8,2.7-2.6c1.3-1,2.3-0.7,3.1,0.7
		c1.1,1.8,1,3.4-0.7,5c-1.7,1.6-3.3,3.3-3,5.8C361.5,305.1,361.7,305.6,362,306.4z"/>
</g>
<g>
	<path class="st0" d="M405.8,171.3c0.3,0,0.5,0,0.8,0c2.3-0.3,4.5,0.4,6.6,1.3c1.9,0.9,3.1,2.7,3,4.9c0,0.5-0.1,1-0.8,1.2
		c-2.1,0.6-4.2,1.2-6.4,1.7c-3.8,0.7-7.2,2.6-10.8,3.8c-3.5,1.2-7,2.3-10.6,3.4c-2.9,0.9-5.8,1.7-8.7,2.7c-1.3,0.4-2.6,0.9-4.1,0.8
		c-2.4-0.1-3.8-1.6-5-3.5c-0.3-0.5-0.2-1.2,0.2-1.7c1.1-1.8,2.7-3.2,4.3-4.5c3.1-2.6,6.8-4.1,10.5-5.6c2.8-1.1,5.7-2.2,8.6-3
		c2.1-0.6,4.4-0.7,6.6-0.9c1.9-0.2,3.8-0.4,5.7-0.6C405.8,171.2,405.8,171.3,405.8,171.3z"/>
	<path class="st0" d="M424.1,201.2c-0.4-1.3-0.8-2.6-0.8-3.9c0-1.1,0-1.1-0.9-1.9c-0.7,0.4-1.5,0.8-2.3,1.2
		c-1.4,0.7-2.8,1.3-4.2,1.9c-0.3,0.1-0.7,0.3-1,0.2c-0.4-0.1-0.8-0.4-0.9-0.7c-0.1-0.2,0.1-0.7,0.3-0.9c0.6-0.5,1.4-0.9,2.1-1.4
		c2.2-1.4,4.4-2.7,6.6-4.2c0.5-0.4,1-0.9,1.3-1.5c0.4-0.7,0.6-1.4,0.8-2.2c0.1-0.4,0-1.1-0.3-1.4c-0.3-0.2-1-0.2-1.4,0
		c-1.9,0.8-3.8,1.7-5.6,2.6c-1,0.5-1.9,1-2.8,1.6c-0.8,0.5-1.7,0.3-2.4-0.4c-0.6-0.7-0.6-1.2,0.1-2c2.9-3.2,7.2-4.5,11.4-3
		c1.5,0.5,1.8,0.4,2.4-1.1c1-2.4,2.5-4.5,4.1-6.5c1.3-1.6,2.6-3.4,4.4-4.5c0.7-0.4,1.1-0.5,1.8-0.2c1.1,0.5,1.9,1.3,2.5,2.3
		c0.3,0.5,0.3,1-0.1,1.4c-2.7,2.3-3.9,5.5-5.6,8.5c-1.7,3.1-3.2,6.2-4.9,9.3c-0.3,0.6-0.8,1.1-1.2,1.6c-0.9,0.9-1.6,1.8-1.8,3.2
		C425.6,200,425.2,200.8,424.1,201.2z"/>
	<path class="st0" d="M449.7,199.1c0.2-1.3,0.4-2.9,0.8-4.4c1.5-5,3.7-9.6,6.4-14.1c0.4-0.7,0.8-1.4,1.2-2c1.1-1.7,1.8-1.4,3.1-0.7
		c1,0.5,1.6,2.1,1.3,3.2c-0.4,1.6-0.9,3.2-1.4,4.8c-0.1,0.2-0.2,0.4-0.2,0.6c0,0.4,0,0.9,0.2,1.1c0.2,0.2,0.8,0.1,1.1,0
		c1.1-0.4,2.2-0.8,3.3-1.2c1.7-0.6,3.5-0.6,5.1,0.1c0.4,0.2,0.8,0.6,1.1,1c0.1,0.2,0.1,0.8-0.1,1c-0.2,0.2-0.7,0.4-0.9,0.3
		c-1.3-0.8-2.5-0.1-3.5,0.4c-2.2,1-4.3,2.2-6.5,3.4c-0.5,0.2-0.9,0.6-1.4,0.7c-1.6,0.5-2.6,1.7-3.2,3.1c-0.8,1.7-1.7,3.5-2.6,5.1
		c-0.7,1.2-1.7,1.5-2.7,1c-0.6-0.3-1-0.7-1-1.4C450,200.5,449.9,199.9,449.7,199.1z"/>
	<path class="st0" d="M401.9,204c6.3-0.7,9.3-0.4,10.9,1.1c-0.6,0.1-1.2,0.2-1.7,0.3c-1.5,0.5-2.9,1.2-4.3,1.9
		c-3.4,1.8-6.8,3.5-10.2,5.2c-1.4,0.7-2.9,1.4-4.3,2.1c-0.9,0.4-1.6,0.2-2.1-0.7c-0.8-1.5-0.7-2.3,0.7-3.4c1.1-0.9,2.2-1.8,3.4-2.5
		c1.1-0.6,1.7-1.5,1.9-2.6c0.7-2.7,1.8-5.1,3.2-7.5c1-1.7,1.9-3.4,2.9-5.1c0.2-0.4,0.5-0.7,0.8-1c1.1-1.2,2.7-0.8,3.3,0.7
		c0.4,0.9,0.2,1.8-0.1,2.5c-1.2,2.6-2.1,5.4-4.3,7.5C401.5,203,401.4,203.5,401.9,204z"/>
	<path class="st0" d="M432.2,200c0.4-1,0.6-2.2,1.1-3.2c1.7-3.3,4.2-6,7.3-8.1c0.4-0.3,0.8-0.4,1.3-0.5c0.7-0.1,1.2,0.1,1.5,0.8
		c0.2,0.5,0.6,0.9,0.9,1.4c0.4,0.6,1,1.1,1.4,1.7c1,1.4,0.9,2.9-0.1,4.3c-1.5,2.1-3.3,3.9-5.3,5.4c-1.1,0.9-2.3,1.8-3.7,2.3
		c-2,0.7-3.5,0-3.9-2.1C432.6,201.4,432.4,200.8,432.2,200z M442.4,191.1c-0.3,0.2-0.4,0.3-0.6,0.4c-2.6,2.6-4.8,5.6-6.5,8.8
		c-0.2,0.5-0.6,1,0,1.7c1.1-0.7,2.2-1.3,3.1-2.2c1.5-1.3,2.8-2.7,4.2-4.2C444,194.3,443.9,192.6,442.4,191.1z"/>
	<path class="st0" d="M389.8,203.1c0.2-5.4,2.4-10,6.5-13.5c0.9-0.8,1.7-0.7,2.5,0c0.9,1,0.9,1.7,0.2,2.7c-1.1,1.5-2.2,3.1-3.2,4.7
		c-1.2,2-2.2,4-3.2,6c-0.3,0.7-0.5,1.4-0.8,2.2c-0.2,0.5-0.5,0.9-1,0.7c-0.4-0.1-0.8-0.5-0.9-0.9
		C389.7,204.5,389.8,203.8,389.8,203.1z"/>
	<path class="st0" d="M416.3,214.4c0.1-3,2.4-6.4,4.9-7.5c1.5-0.6,2.3-0.3,2.9,1.2c0.2,0.6,0.6,1,1.3,1.2c1.1,0.3,1.1,0.6,1,1.8
		c-0.4,3.2-2.6,5.1-5,6.8c-0.3,0.2-0.7,0.4-1.1,0.5c-1.9,0.5-2.8,0-3.4-1.9C416.6,215.9,416.5,215.1,416.3,214.4z M418.8,217.3
		c0.7-0.4,1.1-0.5,1.4-0.8c0.7-0.6,1.3-1.4,2-2c1.2-1.1,1.9-2.3,1.5-3.9c-1.3-0.7-1.6-0.7-2.4,0.2c-1,1.2-2,2.4-2.3,4
		C418.8,215.5,418.9,216.2,418.8,217.3z"/>
	<path class="st0" d="M448.8,207.1c0.2,0.1,0.7,0.2,0.9,0.4c0.5,0.8,1.4,1.2,2.1,1.7c0.5,0.3,0.9,0.8,1.3,1.4
		c0.4,0.6,0.4,1.3-0.2,1.8c-1.6,1.5-3.1,3-4.8,4.4c-0.7,0.6-1.7,0.9-2.6,1.2c-1.2,0.4-1.9-0.2-2.3-1.4c-0.4-1.2-0.1-2.3,0.1-3.4
		c0.6-2.7,2.6-4.4,4.7-5.9C448.1,207.1,448.4,207.2,448.8,207.1z M445,215.9c1.2-0.2,3.5-1.6,4.4-2.6c1.3-1.4,1.3-1.5,0.4-3.2
		c-1.1-0.3-0.9-0.2-2.4,1.3C446.2,212.7,445,214,445,215.9z"/>
	<path class="st0" d="M470.8,195.2c-2.9-0.4-5.3,1.1-8,1.7c-1.1,0.3-2.3,0.5-3.5,0.6c-0.6,0.1-1-0.1-1.2-1.1
		c0.1-0.1,0.4-0.2,0.6-0.4c3.2-1.5,6.6-2.2,10.2-1.8c0.6,0.1,1.2,0.4,1.9,0.6C470.9,194.9,470.9,195,470.8,195.2z"/>
</g>
<polygon class="st2" points="254.1,209.9 250.4,205.5 255.1,197.4 260.7,198.2 262.5,195.1 262.6,195.2 265.1,191.6 252.7,182.6 
	270.7,183.9 273.5,180 254.4,166.3 251.8,169.8 264.6,179 246.2,177.6 243.5,181.4 259.9,193.3 238.2,190.2 235.7,194.6 
	251.6,214.2 "/>
<polygon class="st2" points="249.2,220.1 251.2,215.8 242.3,211.6 233.6,198 231.2,202.9 237.4,211.8 226.6,212.9 224.2,217.9 
	240.2,215.9 "/>
<path class="st2" d="M227.6,288.2c0.9-0.1,1.8-0.5,2.7-1.1c0.9-0.6,1.6-1.4,2.3-2.6c0.6-1.1,1-2.8,1.3-5c0.2-1.9,0.1-3.4-0.3-4.6
	c-0.4-1.2-0.9-2.2-1.6-2.9c-0.7-0.8-1.7-1.3-2.8-1.7s-3.1-0.7-5.9-0.9l-12.3-1.2l-0.4,4.7l13,1.2c1.9,0.2,3.2,0.4,4,0.6
	c0.8,0.2,1.4,0.7,1.9,1.4c0.5,0.7,0.7,1.8,0.5,3.1c-0.1,1.3-0.5,2.3-1.2,3c-0.7,0.7-1.5,1.1-2.4,1.2c-0.6,0.1-1.9,0-3.9-0.2
	l-12.7-1.2l-0.4,4.7l12.5,1.2C224.2,288.3,226.2,288.4,227.6,288.2z"/>
<polygon class="st2" points="232.6,300.8 232.5,296 222.6,296.2 208.8,287.7 208.9,293.2 218.3,298.5 209.1,304.2 209.2,309.8 
	222.7,300.9 "/>
<polygon class="st2" points="295.8,156.7 291.2,151.3 291.7,145.8 303.7,150 308.4,146.1 292,141.1 292.8,129.3 309.7,145.3 
	314,142.4 308.3,125.1 321.9,137.3 326.1,134.5 318,111.7 314,114.3 320,130.1 307.5,118.6 302.8,121.7 308,137.6 296.2,126 
	292.1,128.6 292.4,128.8 288,132.5 287.4,146.7 280.6,138.7 277,141.8 292.2,159.8 "/>
<path class="st2" d="M264.6,172c1.7,1.5,3.5,2.6,5.6,3.2c2,0.6,4.1,0.6,6.1-0.1s3.8-1.9,5.5-3.7c1.3-1.4,2.3-3.1,3-5
	c0.7-1.9,1.1-3.5,1-4.9l-7-6.3l-6.9,7.6l2.9,2.7l3.6-4l2.2,2c-0.1,0.9-0.3,1.9-0.7,2.9c-0.4,1-0.9,1.9-1.6,2.6
	c-1.3,1.5-3,2.2-4.8,2.2c-1.9,0-3.8-1-5.9-2.8c-1.9-1.7-3-3.5-3.1-5.3c-0.2-1.8,0.5-3.5,1.8-5c0.9-1,1.9-1.6,3-1.9
	c1.1-0.2,2.2-0.1,3.3,0.4l2.5-4.1c-1.9-1.1-3.9-1.4-5.9-1c-2,0.4-4,1.7-5.9,3.9c-1.5,1.7-2.5,3.3-2.9,5c-0.6,2.2-0.5,4.2,0.2,6.3
	C261.5,168.6,262.8,170.4,264.6,172z"/>
<path class="st2" d="M593.9,215.8c-1.2,2.7-1.1,5.5,0.1,8.3c1,2.3,2.4,4,4.2,5c1.8,1,4,1.4,6.6,1l-0.5-4.8c-1.7,0.3-3.2,0.2-4.3-0.3
	c-1.1-0.5-1.9-1.4-2.4-2.5c-0.7-1.6-0.6-3.1,0.1-4.6c0.7-1.5,2.5-2.8,5.2-4c2.6-1.1,4.7-1.4,6.2-0.9c1.6,0.5,2.7,1.6,3.4,3.2
	c0.5,1.2,0.6,2.3,0.3,3.4c-0.3,1.1-1,2-2,2.7l2.9,3.9c1.5-1.2,2.5-2.5,3-3.9c0.9-2.3,0.7-4.8-0.4-7.5c-1.3-3-3.3-5.1-6.1-6.1
	c-2.8-1-6-0.7-9.6,0.8C597.4,211,595.1,213.1,593.9,215.8z"/>
<path class="st2" d="M241.5,229.3l-8.9-2.8l-3.1,9.8l3.8,1.2l1.6-5.2l2.8,0.9c0.3,0.9,0.5,1.8,0.6,2.9c0.1,1.1,0,2.1-0.3,3
	c-0.6,1.9-1.8,3.3-3.5,4c-1.7,0.8-3.9,0.7-6.6-0.1c-2.5-0.8-4.1-2-5-3.5c-0.9-1.6-1-3.3-0.4-5.3c0.4-1.3,1.1-2.3,2-3
	c0.9-0.7,2-1,3.2-1l0.6-4.8c-2.2-0.2-4.1,0.3-5.8,1.5c-1.7,1.2-2.9,3.2-3.8,6c-0.7,2.1-0.9,4.1-0.6,5.7c0.4,2.2,1.3,4.1,2.8,5.6
	c1.5,1.6,3.4,2.7,5.8,3.4c2.2,0.7,4.3,0.9,6.4,0.6c2.1-0.3,3.9-1.2,5.5-2.6c1.5-1.4,2.7-3.3,3.4-5.7c0.6-1.8,0.8-3.8,0.7-5.8
	C242.5,232.1,242.2,230.5,241.5,229.3z"/>
<path class="st2" d="M330.1,129.2c2.8,1,5.8,0.8,8.9-0.8c3.1-1.5,5.1-3.7,6-6.5c0.9-2.8,0.6-6-1.1-9.4c-1.7-3.4-3.9-5.7-6.7-6.7
	s-5.8-0.8-8.9,0.7c-1.7,0.8-3.1,1.9-4.2,3.1c-0.8,0.9-1.4,2-1.8,3.2s-0.6,2.5-0.6,3.9c0.1,1.8,0.6,3.7,1.7,5.9
	C325.1,126,327.3,128.1,330.1,129.2z"/>
<polygon class="st2" points="214.1,251 229.5,254 212.2,260.4 211.3,264.9 234.4,269.6 235.3,265.2 220.2,262.2 237.1,255.9 
	238.1,251.3 215,246.6 "/>
<circle class="st2" cx="230.3" cy="369.1" r="3"/>
<path class="st2" d="M225,320.7l-0.3-3.1c-0.2-2.1-0.5-3.8-0.8-4.9c-0.3-0.8-0.7-1.6-1.3-2.3s-1.5-1.3-2.5-1.8s-2.3-0.6-3.7-0.4
	c-1.9,0.2-3.3,0.8-4.4,1.8c-1.1,1-1.7,2.2-2,3.6c-0.1,0.9-0.1,2.8,0.2,5.7l0.7,7.6l23.4-2.3l-0.5-4.7L225,320.7z"/>
<path class="st2" d="M528.4,128.3c-1.3,1.8-2.2,3.8-2.5,5.9c-0.4,2.1-0.1,4.1,0.8,6c0.9,1.9,2.3,3.6,4.3,5c1.6,1.1,3.3,1.9,5.3,2.5
	c2,0.5,3.6,0.7,5,0.5l5.5-7.6l-8.3-6l-2.3,3.2l4.4,3.2l-1.7,2.4c-0.9,0-1.9-0.1-2.9-0.3s-2-0.7-2.8-1.3c-1.6-1.2-2.6-2.7-2.7-4.5
	c-0.2-1.9,0.5-3.9,2.1-6.2c1.5-2.1,3.1-3.3,4.9-3.7c1.8-0.4,3.5,0.1,5.2,1.3c1.1,0.8,1.8,1.7,2.2,2.8c0.4,1.1,0.3,2.2-0.1,3.3l4.4,2
	c0.9-2,1-4,0.4-6c-0.6-2-2.1-3.8-4.5-5.5c-1.8-1.3-3.6-2.1-5.3-2.3c-2.2-0.3-4.3,0-6.2,0.9C531.5,124.8,529.8,126.3,528.4,128.3z"/>
<polygon class="st2" points="509,131 516.6,117.6 517.3,135.6 521.4,138 533,117.5 529.2,115.3 521.4,129 520.8,110.6 516.7,108.3 
	505.2,128.8 "/>
<path class="st2" d="M489.6,116.5c-0.2,0.9-0.1,1.9,0.2,2.9c0.3,1,0.9,2,1.7,3s2.3,1.9,4.4,2.8c1.7,0.7,3.2,1.1,4.4,1.1
	s2.4-0.2,3.3-0.7c1-0.5,1.8-1.2,2.5-2.1s1.6-2.7,2.7-5.3l4.9-11.3l-4.4-1.9l-5.2,11.9c-0.7,1.7-1.3,2.9-1.8,3.6s-1.1,1.1-1.9,1.4
	c-0.8,0.2-1.9,0.1-3.1-0.5c-1.2-0.5-2.1-1.2-2.5-2.1s-0.6-1.7-0.4-2.7c0.1-0.6,0.6-1.8,1.4-3.7l5.1-11.7l-4.4-1.9l-5,11.5
	C490.5,113.3,489.8,115.2,489.6,116.5z"/>
<rect x="258.8" y="406.6" transform="matrix(0.808 -0.5892 0.5892 0.808 -190.2956 232.265)" class="st2" width="4.9" height="3.1"/>
<path class="st2" d="M544.6,155.4l5.1-2.6l6.9,6.4l-2.2,5.3l2.6,2.4l0,0l3.1,3.6l7.4-6.4l0.6,0.7c0.7,0.8,1.2,1.5,1.4,2
	c0.2,0.5,0.3,1.1,0.2,1.7c-0.1,0.7-0.4,2-1,4.2l-1.6,6l3.7,4.3l1.6-5.2c0.6-2.1,1-3.6,1.1-4.5c0.1-1,0-2-0.2-3.2
	c1.6,1.4,3.1,2.1,4.7,2.1s3-0.5,4.3-1.7c1-0.9,1.8-2,2.1-3.2c0.4-1.2,0.3-2.4-0.1-3.5s-1.5-2.7-3.1-4.6l-6.6-7.5l-15.3,13.3
	l7.9-20.4l-3.7-3.4l-22.8,10.9L544.6,155.4z"/>
<polygon class="st2" points="476.1,117.4 480.6,118.9 483.7,109.5 496.1,99.1 490.8,97.4 482.8,104.7 480.4,94.1 475.1,92.4 
	479.2,108 "/>
<polygon class="st2" points="588.7,174.7 572.8,186.1 575.6,190 591.5,178.6 595.5,184.3 598.8,181.9 587.9,166.7 584.6,169.1 "/>
<path class="st2" d="M417.8,109.7c3.5-0.1,6.2-1.2,8.2-3.4c2-2.2,3-5.2,2.9-9c-0.1-3.8-1.2-6.8-3.3-8.9c-2.1-2.1-4.9-3.1-8.4-3.1
	c-1.9,0-3.6,0.4-5.1,1c-1.1,0.5-2.1,1.2-3,2.2c-0.9,1-1.6,2.1-2.1,3.3c-0.7,1.6-1,3.7-1,6.1c0.1,3.7,1.1,6.7,3.2,8.8
	C411.5,108.7,414.3,109.7,417.8,109.7z"/>
<path class="st2" d="M454.2,110.9c1.6,1.4,3.6,2.3,6,2.8c1.9,0.4,3.8,0.4,5.8,0.1c2-0.3,3.6-0.9,4.8-1.6l1.9-9.2l-10-2.1l-0.8,3.9
	l5.3,1.1l-0.6,2.9c-0.8,0.4-1.8,0.7-2.8,0.9s-2.1,0.2-3.1,0c-2-0.4-3.4-1.4-4.4-3c-0.9-1.6-1.1-3.8-0.5-6.5c0.5-2.5,1.5-4.3,3-5.4
	s3.2-1.3,5.3-0.9c1.3,0.3,2.4,0.8,3.2,1.7c0.8,0.8,1.2,1.9,1.3,3.1l4.8,0.1c0-2.2-0.7-4.1-2.1-5.6c-1.4-1.5-3.5-2.6-6.3-3.2
	c-2.2-0.5-4.1-0.5-5.8,0c-2.1,0.6-3.9,1.7-5.3,3.4c-1.4,1.7-2.3,3.7-2.8,6.1c-0.5,2.2-0.4,4.4,0.1,6.4
	C451.5,107.8,452.6,109.5,454.2,110.9z"/>
<polygon class="st2" points="407.4,109.5 407,105.6 393.9,107.1 393.2,100.8 404.9,99.4 404.4,95.4 392.7,96.8 392.1,91.7 
	404.7,90.1 404.2,86.2 386.9,88.3 389.7,111.6 "/>
<path class="st2" d="M371.4,102.7c1.2,0.7,3.1,1.1,5.7,1.1c2,0.1,3.4,0.1,3.9,0.2c0.9,0.1,1.5,0.3,1.9,0.6c0.4,0.3,0.7,0.7,0.8,1.3
	c0.2,0.8,0,1.7-0.7,2.5c-0.6,0.8-1.7,1.4-3.2,1.7c-1.4,0.3-2.6,0.2-3.6-0.3c-1-0.5-1.8-1.5-2.4-3l-4.4,1.4c0.9,2.5,2.2,4.3,4.1,5.3
	s4.2,1.2,7.1,0.6c2-0.4,3.6-1.1,4.8-1.9c1.2-0.9,2.1-1.9,2.5-3.2c0.5-1.3,0.6-2.6,0.3-3.9c-0.3-1.5-0.9-2.6-1.7-3.5
	s-1.8-1.4-3.1-1.8c-1.2-0.3-3-0.5-5.4-0.6c-2.4,0-3.9-0.2-4.6-0.6c-0.5-0.3-0.9-0.7-1-1.2c-0.1-0.6,0-1.1,0.4-1.6
	c0.6-0.7,1.6-1.2,3-1.5c1.3-0.3,2.3-0.2,3.1,0.1c0.8,0.4,1.4,1.1,1.8,2.3l4.6-1.2c-0.5-2.1-1.7-3.6-3.4-4.6c-1.7-0.9-4-1.1-6.9-0.5
	c-1.8,0.4-3.2,1-4.4,1.8s-1.9,1.8-2.4,3c-0.4,1.2-0.5,2.3-0.3,3.5C368.6,100.3,369.7,101.7,371.4,102.7z"/>
<polygon class="st2" points="352.9,121.9 347.7,107.4 361.8,118.7 366.3,117.1 358.4,94.9 354.2,96.4 359.5,111.2 345.2,99.6 
	340.8,101.2 348.7,123.3 "/>
<polygon class="st2" points="445.4,110.6 445.7,106.6 433.9,105.7 435.5,86.4 430.7,86 428.8,109.3 "/>
<path class="st2" d="M290.4,451.1c1.6,1.3,3.4,1.9,5.4,1.8c2.2-0.1,3.9-0.9,5.2-2.5c1.3-1.7,1.8-3.6,1.4-5.7c-0.4-2-1.4-3.6-3-4.9
	c-1.6-1.3-3.4-1.9-5.5-1.9c-2.1,0.1-3.9,0.9-5.2,2.6c-1.3,1.6-1.8,3.5-1.4,5.6C287.8,448.2,288.8,449.8,290.4,451.1z"/>
<path class="st2" d="M589.3,416.8l2.7-3.5l-7-5.4l2.2-2.8l-3.1-2.4l-2.2,2.8l-4.4-3.4l-2.7,3.5l8.1,6.2l-9.7,12.6l-5-3.8l6.8-8.8
	l-3.1-2.4l-9.5,12.3l9.3,7.2c0.7,0.5,1.3,0.8,1.8,0.7c0.5-0.1,0.9-0.4,1.3-1l11.1-14.4L589.3,416.8z"/>
<path class="st2" d="M542.3,470.1l-0.7-0.9l16.2-12.3l-4.6-6.1l-8.1,6.2l-0.7-0.9l8.8-6.7l-2.1-2.8l-21.1,16.1l2.1,2.8l8.8-6.7
	l0.7,0.9l-8.1,6.2l2.1,2.7l16.2-12.3l0.6,0.8l-16.2,12.3l3.3,4.4c0.5,0.7,1.1,1.1,1.6,1.2c0.5,0,1-0.2,1.6-0.6l18-13.7l-2.2-2.8
	L542.3,470.1z"/>
<path class="st2" d="M493.9,470.7l1.3,3.3l-2.3,0.9l0.5,1.2c-0.5-0.5-1.1-1-1.7-1.4c-2-1.3-4.1-1.5-6.3-0.6
	c-2.2,0.9-3.6,2.5-4.1,4.8c-0.5,2.1-0.3,4.3,0.7,6.7c0.9,2.3,2.3,4,4.1,5.2c2,1.3,4.1,1.5,6.3,0.6c2.2-0.9,3.6-2.5,4.1-4.8
	c0.2-0.7,0.3-1.5,0.3-2.2l0.8,2l2.3-0.9l4.1,10l3.8-1.5l-10-24.7L493.9,470.7z"/>
<path class="st2" d="M534.9,456c1.6-2.1,2.5-3.9,2.5-5.4c1.5,0.3,3.4,0,5.8-1c2.1-0.9,4.2-2.1,6.2-3.6l-2.2-2.9
	c-2.5,1.8-4.7,2.9-6.4,3.4c-2,0.5-3.5,0-4.5-1.3l-3.9,2.9c1,1.3,1,2.9,0,4.7c-0.9,1.6-2.5,3.4-4.9,5.3l2.2,2.9
	C531.8,459.4,533.5,457.8,534.9,456z"/>
<path class="st2" d="M615.8,250.4c3.7-1.1,6.2-3,7.7-5.6s1.7-5.6,0.7-8.9c-0.6-1.8-1.3-3.4-2.4-4.6c-0.8-0.9-1.7-1.7-2.9-2.3
	s-2.4-1-3.7-1.2c-1.8-0.2-3.8,0-6.1,0.7c-3.6,1.1-6.1,2.9-7.5,5.5c-1.4,2.6-1.7,5.6-0.6,8.9c1,3.3,2.8,5.6,5.5,7
	C609,251.3,612.2,251.5,615.8,250.4z"/>
<rect x="504" y="466.8" transform="matrix(0.9265 -0.3763 0.3763 0.9265 -143.4883 225.7151)" class="st2" width="4.2" height="26.7"/>
<path class="st2" d="M583.9,430.9l-4.6-3.5l-2.7,3.5l5.8,4.5c0.7,0.5,1.3,0.8,1.8,0.7c0.5-0.1,0.9-0.4,1.3-1l13-16.9l-3.1-2.4
	L583.9,430.9z"/>
<path class="st2" d="M608.6,280.8l8.9-0.6l0.2,3.1c0.1,2.1,0.4,3.8,0.7,4.9c0.2,0.8,0.7,1.6,1.3,2.4c0.6,0.8,1.4,1.4,2.5,1.8
	c1,0.5,2.2,0.6,3.7,0.5c1.9-0.1,3.4-0.7,4.5-1.7c1.1-1,1.8-2.2,2.1-3.5c0.2-0.9,0.2-2.8,0-5.7l-0.5-7.6l-23.5,1.6L608.6,280.8z"/>
<polygon class="st2" points="609.2,307.5 609.1,312.7 632.8,303.7 632.9,298.6 609.5,289.1 609.4,294.1 614.7,296.1 614.6,305.6 "/>
<circle class="st2" cx="611.1" cy="370.1" r="3"/>
<polygon class="st2" points="632.9,308 618.5,315.3 608.6,314.3 608.2,319 618,320 630.7,329.9 631.3,324.5 622.5,318.2 
	632.3,313.6 "/>
<polygon class="st2" points="608.4,275.6 631.6,271.4 630.3,264.4 613.8,263.1 628.8,256.1 627.6,249.1 604.4,253.2 605.2,257.5 
	623.4,254.3 606,262.1 606.8,266.6 625.9,268 607.6,271.2 "/>
<polygon class="st2" points="313.1,451.9 309.7,449.1 301.8,458.9 305.3,461.6 306.4,460.2 309.2,462.5 311.4,459.7 308.6,457.4 
	309.6,456.2 312.4,458.4 314.7,455.6 311.9,453.4 "/>
<path class="st2" d="M333.5,482.2l-4-1.8l-3.2,7.2c-0.3,0.8-0.4,1.5-0.2,1.9c0.2,0.4,0.6,0.8,1.3,1.1l19.5,8.5l1.6-3.6L331,488
	L333.5,482.2z"/>
<path class="st2" d="M386.8,482.4c-0.3,2.1-0.9,3.7-1.9,4.7c-1.2,1.3-3,2-5.5,2l-0.6,3.9c1.7,0.2,3.5,0,5.2-0.5
	c1.8-0.6,3.2-1.5,4.2-2.6c0.6,1.4,1.5,2.6,3,3.6c1.4,1,3.1,1.7,5,2l0.6-4c-2.4-0.7-4-1.8-4.8-3.4c-0.6-1.3-0.8-3-0.5-5.1
	L386.8,482.4z"/>
<polygon class="st2" points="351.9,476.1 348.1,474.4 349.4,471.3 334.9,465 333.4,468.6 343.8,473.1 341.3,478.9 329.7,473.9 
	328.2,477.5 336.3,481 334.4,485.4 338.4,487.2 340.3,482.8 345.6,485.1 347.2,481.5 345.3,480.7 346.5,478 350.4,479.7 
	345.4,491.1 349.4,492.9 357.3,474.8 353.3,473 "/>
<polygon class="st2" points="451.3,483.1 451.5,484.9 447.6,485.3 448,488.8 452,488.4 452.2,490.2 448.2,490.7 448.7,494.2 
	452.6,493.7 452.8,495.8 457.2,495.2 455.7,482.6 "/>
<path class="st2" d="M593.9,185.7c-1.6,0.9-2.6,2.4-3,4.3c-0.3,1.4,0,3.3,0.7,5.8c0.6,2,0.9,3.2,1,3.8c0.2,0.8,0.2,1.5,0,2
	c-0.2,0.5-0.5,0.9-1,1.1c-0.7,0.4-1.6,0.5-2.5,0.1c-1-0.3-1.8-1.2-2.6-2.5c-0.7-1.2-1-2.4-0.8-3.5s0.9-2.2,2.1-3.2l-2.7-3.8
	c-2.1,1.6-3.4,3.4-3.7,5.5c-0.4,2.1,0.2,4.4,1.7,7c1,1.8,2.2,3.1,3.3,4s2.5,1.4,3.9,1.4c1.4,0,2.7-0.3,3.8-1
	c1.3-0.8,2.2-1.7,2.8-2.7c0.6-1.1,0.8-2.2,0.7-3.5c-0.1-1.3-0.4-3-1.1-5.3c-0.7-2.3-1-3.8-0.9-4.6c0.1-0.6,0.4-1.1,0.9-1.3
	c0.5-0.3,1.1-0.3,1.6-0.1c0.9,0.4,1.7,1.2,2.4,2.4c0.7,1.2,1,2.2,0.8,3c-0.1,0.8-0.6,1.7-1.6,2.5l2.6,4c1.8-1.2,2.9-2.7,3.3-4.7
	s-0.2-4.2-1.7-6.7c-0.9-1.6-1.9-2.8-3.1-3.6c-1.1-0.8-2.3-1.3-3.5-1.3C596,184.8,594.9,185.1,593.9,185.7z"/>
<path class="st2" d="M298.5,455.9c-1.8-1.5-3.9-2.2-6.2-2.1c-2.4,0.1-4.4,1.1-5.9,3c-1.5,1.9-2,4-1.6,6.4c0.4,2.2,1.5,4.1,3.4,5.6
	c1.8,1.5,3.9,2.2,6.1,2.1c2.5-0.1,4.4-1,5.9-2.9c1.5-1.9,2-4,1.5-6.4C301.4,459.2,300.3,457.3,298.5,455.9z"/>
<path class="st2" d="M446.6,485.8l-0.2-2.1l-14.8,1.8l0.4,3.8l10.2-1.2c0.2,1.5-0.5,2.9-1.9,4.1c-1.8,1.5-4.4,2.5-8,3.1l0.5,4
	c4-0.6,7.3-1.8,9.7-3.7C445.7,493.1,447,489.9,446.6,485.8z"/>
<path class="st2" d="M453.6,496.9c-1.9-1.3-4-1.8-6.3-1.5c-2.3,0.3-4.2,1.3-5.8,2.9c-1.6,1.8-2.3,3.9-2,6.3c0.3,2.4,1.4,4.2,3.4,5.6
	c1.9,1.3,4,1.8,6.3,1.5s4.3-1.3,5.8-3c1.7-1.8,2.4-3.9,2.1-6.2C456.8,500.1,455.7,498.2,453.6,496.9z"/>
<circle class="st2" cx="420.9" cy="297.6" r="158.5"/>
<polygon class="st2" points="401.4,486.6 396.5,485.9 395.9,489.6 400.8,490.3 400,496.3 404.3,497 406,485.2 401.7,484.6 "/>
<path class="st2" d="M380.6,498.6l18.7,2.7l-0.2,1.2l-18.7-2.7l-0.9,6.1c-0.1,0.9,0,1.5,0.3,1.9c0.3,0.4,0.8,0.6,1.5,0.7l20.9,3
	l0.6-3.8l-18.7-2.7l0.2-1.2l18.7,2.7l1.2-8.2l-23-3.3L380.6,498.6z"/>
<polygon class="st2" points="272.7,415.4 270.7,412.8 267.9,414.8 269.8,417.5 268.5,418.5 266.6,415.8 263.7,417.9 265.7,420.5 
	263.5,422.1 266.1,425.6 276.4,418.1 273.8,414.6 "/>
<path class="st2" d="M264.1,416.2l-1.4-1.9l4-2.9l1.4,1.9l3.2-2.3l-9.5-13l-3.2,2.3l1.2,1.7l-4,2.9l-1.2-1.7l-3.2,2.3l5.9,8.1
	c-0.5-0.2-1-0.4-1.6-0.5c-2.4-0.6-4.6-0.1-6.5,1.3c-2,1.4-3.1,3.4-3.3,5.8c-0.2,2.3,0.4,4.4,1.8,6.3c1.4,1.9,3.2,3.1,5.5,3.6
	c2.4,0.6,4.6,0.1,6.6-1.3c2-1.4,3-3.4,3.2-5.9c0.2-1.9-0.2-3.7-1.1-5.3L264.1,416.2z M258.8,422.4c-0.1,1.2-0.7,2.2-1.7,2.9
	s-2.1,0.9-3.3,0.7c-1.2-0.2-2.1-0.8-2.8-1.8c-0.7-0.9-1-2-0.8-3.2c0.1-1.2,0.7-2.2,1.7-2.9c1-0.7,2.1-0.9,3.3-0.7
	c1.2,0.2,2.1,0.8,2.8,1.8C258.6,420.1,258.9,421.2,258.8,422.4z M260.2,410.8l-1.8-2.5l4-2.9l1.8,2.5L260.2,410.8z"/>
<path class="st0" d="M420.9,53.7C286.2,53.7,177,162.9,177,297.6s109.2,243.9,243.9,243.9s243.9-109.2,243.9-243.9
	S555.7,53.7,420.9,53.7z M609.4,294.1l0.1-5l23.4,9.6l-0.1,5l-23.7,9l0.1-5.2l5.4-2l0.2-9.4L609.4,294.1z M632.3,282.1
	c0.2,2.9,0.2,4.8,0,5.7c-0.3,1.4-1,2.5-2.1,3.5c-1.1,1-2.6,1.5-4.5,1.7c-1.4,0.1-2.7-0.1-3.7-0.5c-1-0.5-1.8-1.1-2.5-1.8
	c-0.6-0.8-1-1.6-1.3-2.4c-0.3-1.1-0.5-2.7-0.7-4.9l-0.2-3.1l-8.9,0.6l-0.3-4.7l23.5-1.6L632.3,282.1z M610.4,208.8
	c2.8,1,4.8,3,6.1,6.1c1.1,2.6,1.3,5.1,0.4,7.5c-0.5,1.4-1.5,2.7-3,3.9l-2.9-3.9c1-0.7,1.7-1.6,2-2.7c0.3-1.1,0.2-2.2-0.3-3.4
	c-0.7-1.6-1.8-2.7-3.4-3.2c-1.6-0.5-3.7-0.2-6.2,0.9c-2.7,1.2-4.5,2.5-5.2,4c-0.7,1.5-0.8,3-0.1,4.6c0.5,1.2,1.3,2,2.4,2.5
	c1.1,0.5,2.5,0.6,4.3,0.3l0.5,4.8c-2.6,0.4-4.9,0-6.6-1c-1.8-1-3.2-2.7-4.2-5c-1.2-2.9-1.3-5.7-0.1-8.3c1.2-2.7,3.5-4.8,6.9-6.2
	C604.4,208,607.6,207.8,610.4,208.8z M603.9,189.8c1.5,2.5,2.1,4.8,1.7,6.7s-1.5,3.5-3.3,4.7l-2.6-4c0.9-0.8,1.5-1.6,1.6-2.5
	c0.1-0.8-0.2-1.8-0.8-3c-0.7-1.2-1.5-2-2.4-2.4c-0.6-0.2-1.1-0.2-1.6,0.1c-0.5,0.3-0.8,0.7-0.9,1.3c-0.1,0.8,0.2,2.3,0.9,4.6
	c0.7,2.3,1.1,4,1.1,5.3c0.1,1.3-0.2,2.4-0.7,3.5c-0.6,1.1-1.5,2-2.8,2.7c-1.2,0.7-2.4,1-3.8,1c-1.4,0-2.7-0.5-3.9-1.4
	s-2.3-2.2-3.3-4c-1.5-2.6-2.1-4.9-1.7-7c0.4-2.1,1.6-3.9,3.7-5.5l2.7,3.8c-1.2,1-1.9,2.1-2.1,3.2s0.1,2.3,0.8,3.5
	c0.8,1.3,1.6,2.1,2.6,2.5c1,0.3,1.8,0.3,2.5-0.1c0.5-0.3,0.8-0.7,1-1.1c0.2-0.5,0.2-1.1,0-2c-0.1-0.6-0.5-1.8-1-3.8
	c-0.7-2.5-1-4.4-0.7-5.8c0.4-1.9,1.4-3.3,3-4.3c1-0.6,2.2-0.9,3.4-0.8c1.2,0.1,2.4,0.5,3.5,1.3C601.9,187,603,188.2,603.9,189.8z
	 M598.8,181.9l-3.2,2.3l-4.1-5.7L575.6,190l-2.8-3.9l15.9-11.4l-4.1-5.7l3.2-2.3L598.8,181.9z M567.4,144.4l-7.9,20.4l15.3-13.3
	l6.6,7.5c1.7,1.9,2.7,3.4,3.1,4.6s0.5,2.3,0.1,3.5c-0.4,1.2-1.1,2.3-2.1,3.2c-1.3,1.2-2.8,1.7-4.3,1.7s-3.1-0.7-4.7-2.1
	c0.2,1.2,0.3,2.2,0.2,3.2c-0.1,1-0.5,2.5-1.1,4.5l-1.6,5.2l-3.7-4.3l1.6-6c0.6-2.1,0.9-3.5,1-4.2c0.1-0.7,0-1.2-0.2-1.7
	c-0.2-0.5-0.7-1.2-1.4-2l-0.6-0.7l-7.4,6.4L557,167l0,0l-2.6-2.4l2.2-5.3l-6.9-6.4l-5.1,2.6l-3.7-3.4l22.8-10.9L567.4,144.4z
	 M539.7,122.9c1.7,0.2,3.4,1,5.3,2.3c2.4,1.7,3.9,3.5,4.5,5.5c0.6,2,0.5,3.9-0.4,6l-4.4-2c0.4-1.1,0.4-2.2,0.1-3.3
	c-0.4-1.1-1.1-2-2.2-2.8c-1.7-1.2-3.4-1.6-5.2-1.3c-1.8,0.4-3.4,1.6-4.9,3.7c-1.6,2.3-2.3,4.3-2.1,6.2c0.2,1.9,1.1,3.4,2.7,4.5
	c0.8,0.6,1.7,1,2.8,1.3s2,0.4,2.9,0.3l1.7-2.4l-4.4-3.2l2.3-3.2l8.3,6l-5.5,7.6c-1.4,0.2-3,0.1-5-0.5c-2-0.5-3.7-1.3-5.3-2.5
	c-2-1.4-3.4-3.1-4.3-5c-0.9-1.9-1.1-3.9-0.8-6c0.4-2.1,1.2-4.1,2.5-5.9c1.4-2,3.1-3.5,5.1-4.4C535.4,122.9,537.5,122.6,539.7,122.9z
	 M520.8,110.6l0.7,18.4l7.7-13.7l3.8,2.2L521.4,138l-4.2-2.3l-0.7-18L509,131l-3.8-2.2l11.6-20.5L520.8,110.6z M500.9,101.3
	l-5.1,11.7c-0.8,1.9-1.3,3.1-1.4,3.7c-0.2,1-0.1,1.9,0.4,2.7s1.3,1.5,2.5,2.1c1.2,0.5,2.3,0.7,3.1,0.5c0.8-0.2,1.5-0.7,1.9-1.4
	s1-1.9,1.8-3.6l5.2-11.9l4.4,1.9l-4.9,11.3c-1.1,2.6-2,4.4-2.7,5.3s-1.5,1.7-2.5,2.1c-1,0.5-2.1,0.7-3.3,0.7s-2.7-0.4-4.4-1.1
	c-2.1-0.9-3.5-1.8-4.4-2.8s-1.4-1.9-1.7-3c-0.3-1-0.3-2-0.2-2.9c0.3-1.4,0.9-3.2,2-5.7l5-11.5L500.9,101.3z M480.4,94.1l2.4,10.6
	l8-7.2l5.2,1.7l-12.4,10.4l-3,9.4l-4.5-1.4l3-9.4l-4.1-15.6L480.4,94.1z M451,99.3c0.5-2.4,1.4-4.4,2.8-6.1c1.4-1.7,3.2-2.8,5.3-3.4
	c1.6-0.5,3.6-0.5,5.8,0c2.9,0.6,5,1.7,6.3,3.2c1.4,1.5,2,3.4,2.1,5.6l-4.8-0.1c-0.1-1.2-0.5-2.2-1.3-3.1c-0.8-0.8-1.8-1.4-3.2-1.7
	c-2-0.4-3.8-0.1-5.3,0.9s-2.5,2.8-3,5.4c-0.6,2.7-0.4,4.9,0.5,6.5c0.9,1.6,2.4,2.6,4.4,3c1,0.2,2,0.2,3.1,0s2-0.5,2.8-0.9l0.6-2.9
	l-5.3-1.1l0.8-3.9l10,2.1l-1.9,9.2c-1.2,0.7-2.8,1.3-4.8,1.6c-2,0.3-3.9,0.3-5.8-0.1c-2.4-0.5-4.4-1.4-6-2.8
	c-1.6-1.4-2.6-3.1-3.1-5.2C450.5,103.7,450.5,101.5,451,99.3z M435.5,86.4l-1.6,19.3l11.8,1l-0.3,4l-16.5-1.3l1.9-23.3L435.5,86.4z
	 M407.1,91.8c0.5-1.2,1.2-2.3,2.1-3.3c0.9-1,1.9-1.7,3-2.2c1.5-0.6,3.1-1,5.1-1c3.5-0.1,6.3,1,8.4,3.1c2.1,2.1,3.2,5.1,3.3,8.9
	c0.1,3.8-0.9,6.8-2.9,9c-2,2.2-4.8,3.3-8.2,3.4c-3.5,0.1-6.3-1-8.4-3.1c-2.1-2.1-3.2-5-3.2-8.8C406.1,95.4,406.4,93.4,407.1,91.8z
	 M404.2,86.2l0.5,4l-12.6,1.5l0.6,5.2l11.7-1.4l0.5,3.9l-11.7,1.4l0.8,6.4l13.1-1.6l0.5,3.9l-17.8,2.1l-2.8-23.4L404.2,86.2z
	 M368.5,95c0.4-1.2,1.2-2.1,2.4-3s2.6-1.4,4.4-1.8c2.9-0.6,5.2-0.5,6.9,0.5c1.7,0.9,2.9,2.5,3.4,4.6l-4.6,1.2
	c-0.5-1.1-1.1-1.9-1.8-2.3c-0.8-0.4-1.8-0.4-3.1-0.1c-1.3,0.3-2.3,0.8-3,1.5c-0.4,0.5-0.6,1-0.4,1.6c0.1,0.5,0.4,1,1,1.2
	c0.7,0.4,2.2,0.6,4.6,0.6c2.4,0,4.2,0.2,5.4,0.6c1.2,0.3,2.2,0.9,3.1,1.8s1.4,2,1.7,3.5c0.3,1.3,0.2,2.6-0.3,3.9
	c-0.5,1.3-1.3,2.4-2.5,3.2c-1.2,0.9-2.8,1.5-4.8,1.9c-2.9,0.6-5.3,0.4-7.1-0.6s-3.2-2.8-4.1-5.3l4.4-1.4c0.6,1.5,1.4,2.5,2.4,3
	c1,0.5,2.2,0.6,3.6,0.3c1.5-0.3,2.6-0.9,3.2-1.7c0.6-0.8,0.8-1.6,0.7-2.5c-0.1-0.5-0.4-1-0.8-1.3c-0.4-0.3-1-0.5-1.9-0.6
	c-0.6-0.1-1.9-0.1-3.9-0.2c-2.6-0.1-4.5-0.5-5.7-1.1c-1.7-1-2.7-2.3-3.1-4.2C368,97.3,368.1,96.2,368.5,95z M345.2,99.6l14.4,11.6
	l-5.3-14.8l4.2-1.5l7.9,22.2l-4.5,1.6l-14.1-11.3l5.2,14.5l-4.2,1.5l-7.9-22.2L345.2,99.6z M322.4,112.8c0.4-1.3,1-2.3,1.8-3.2
	c1-1.2,2.4-2.2,4.2-3.1c3.1-1.5,6.1-1.8,8.9-0.7s5.1,3.3,6.7,6.7c1.7,3.4,2,6.5,1.1,9.4c-0.9,2.8-2.9,5-6,6.5
	c-3.1,1.5-6.1,1.8-8.9,0.8c-2.8-1-5-3.2-6.6-6.6c-1-2.2-1.6-4.1-1.7-5.9C321.7,115.4,321.9,114.1,322.4,112.8z M280.6,138.7l6.7,8
	l0.6-14.2l4.4-3.7l-0.2-0.2l4.1-2.7l11.8,11.6l-5.3-15.9l4.7-3.1l12.5,11.5l-6-15.7l4-2.6l8.1,22.8l-4.2,2.8l-13.6-12.2l5.7,17.3
	l-4.3,2.8l-16.9-16l-0.8,11.9l16.4,4.9l-4.7,4l-12.1-4.3l-0.4,5.5l4.6,5.4l-3.6,3.1l-15.2-18L280.6,138.7z M260.5,160.2
	c0.4-1.6,1.4-3.3,2.9-5c2-2.2,3.9-3.5,5.9-3.9c2-0.4,4-0.1,5.9,1l-2.5,4.1c-1.1-0.5-2.2-0.7-3.3-0.4c-1.1,0.2-2.1,0.9-3,1.9
	c-1.4,1.5-2,3.2-1.8,5c0.2,1.8,1.2,3.6,3.1,5.3c2.1,1.9,4,2.8,5.9,2.8c1.9,0,3.5-0.7,4.8-2.2c0.7-0.7,1.2-1.6,1.6-2.6
	c0.4-1,0.6-2,0.7-2.9l-2.2-2l-3.6,4l-2.9-2.7l6.9-7.6l7,6.3c0,1.4-0.3,3-1,4.9c-0.7,1.9-1.7,3.6-3,5c-1.6,1.8-3.5,3.1-5.5,3.7
	s-4,0.7-6.1,0.1c-2-0.6-3.9-1.7-5.6-3.2c-1.8-1.6-3.1-3.5-3.8-5.5C260,164.5,260,162.4,260.5,160.2z M238.2,190.2l21.7,3.1
	l-16.5-11.9l2.7-3.7l18.4,1.4l-12.7-9.2l2.6-3.6l19.1,13.8l-2.8,3.9l-18-1.3l12.4,9l-2.6,3.6l0,0l-1.8,3.1l-5.7-0.9l-4.7,8.2
	l3.7,4.3l-2.5,4.4l-15.8-19.7L238.2,190.2z M226.6,212.9l10.8-1.1l-6.1-8.9l2.3-5l8.7,13.6l8.9,4.2l-2,4.3l-9-4.2l-16,2L226.6,212.9
	z M209.5,282.2l12.7,1.2c2,0.2,3.3,0.3,3.9,0.2c1-0.1,1.8-0.5,2.4-1.2c0.7-0.7,1-1.7,1.2-3c0.1-1.3-0.1-2.4-0.5-3.1
	c-0.5-0.7-1.1-1.2-1.9-1.4c-0.8-0.2-2.1-0.4-4-0.6l-13-1.2l0.4-4.7l12.3,1.2c2.8,0.3,4.8,0.6,5.9,0.9s2.1,0.9,2.8,1.7
	c0.7,0.8,1.3,1.7,1.6,2.9c0.4,1.2,0.5,2.7,0.3,4.6c-0.2,2.2-0.6,3.9-1.3,5c-0.6,1.1-1.4,2-2.3,2.6c-0.9,0.6-1.8,1-2.7,1.1
	c-1.4,0.2-3.4,0.1-6-0.1l-12.5-1.2L209.5,282.2z M209.1,304.2l9.2-5.7l-9.4-5.3l-0.1-5.5l13.8,8.4l9.9-0.2l0.1,4.7l-9.9,0.2
	l-13.5,8.8L209.1,304.2z M230.3,372.1c-1.7,0-3-1.4-3-3s1.4-3,3-3s3,1.4,3,3S232,372.1,230.3,372.1z M210.8,326.9l-0.7-7.6
	c-0.3-2.9-0.3-4.8-0.2-5.7c0.2-1.4,0.9-2.6,2-3.6c1.1-1,2.6-1.6,4.4-1.8c1.4-0.1,2.7,0,3.7,0.4s1.9,1,2.5,1.8s1.1,1.5,1.3,2.3
	c0.3,1.1,0.6,2.7,0.8,4.9l0.3,3.1l8.8-0.9l0.5,4.7L210.8,326.9z M237.1,255.9l-16.9,6.3l15,3l-0.9,4.3l-23.1-4.6l0.9-4.5l17.3-6.3
	l-15.4-3.1l0.9-4.3l23.1,4.6L237.1,255.9z M242,240c-0.7,2.3-1.9,4.2-3.4,5.7c-1.5,1.4-3.4,2.3-5.5,2.6c-2.1,0.3-4.2,0.1-6.4-0.6
	c-2.3-0.7-4.3-1.9-5.8-3.4c-1.5-1.6-2.4-3.4-2.8-5.6c-0.3-1.7-0.1-3.6,0.6-5.7c0.9-2.8,2.2-4.8,3.8-6c1.7-1.2,3.6-1.7,5.8-1.5
	l-0.6,4.8c-1.2,0-2.3,0.3-3.2,1c-0.9,0.7-1.6,1.7-2,3c-0.6,2-0.5,3.8,0.4,5.3c0.9,1.6,2.6,2.7,5,3.5c2.7,0.8,4.8,0.9,6.6,0.1
	c1.7-0.8,2.9-2.1,3.5-4c0.3-0.9,0.4-2,0.3-3c-0.1-1.1-0.3-2-0.6-2.9l-2.8-0.9l-1.6,5.2l-3.8-1.2l3.1-9.8l8.9,2.8
	c0.6,1.2,1,2.9,1.1,4.9C242.8,236.2,242.6,238.1,242,240z M263,423c-0.2,2.5-1.3,4.4-3.2,5.9c-2,1.4-4.2,1.9-6.6,1.3
	c-2.3-0.5-4.1-1.7-5.5-3.6c-1.4-1.9-2-4-1.8-6.3c0.2-2.5,1.3-4.4,3.3-5.8c2-1.4,4.1-1.9,6.5-1.3c0.6,0.1,1.1,0.3,1.6,0.5l-5.9-8.1
	l3.2-2.3l1.2,1.7l4-2.9l-1.2-1.7l3.2-2.3l9.5,13l-3.2,2.3l-1.4-1.9l-4,2.9l1.4,1.9l-2.2,1.6C262.8,419.4,263.2,421.1,263,423z
	 M266.1,425.6l-2.6-3.6l2.1-1.5l-1.9-2.7l2.8-2.1l1.9,2.7l1.3-1l-1.9-2.7l2.8-2.1l1.9,2.7l1.2-0.8l2.6,3.6L266.1,425.6z
	 M300.3,467.8c-1.5,1.9-3.5,2.8-5.9,2.9c-2.3,0.1-4.3-0.6-6.1-2.1c-1.8-1.5-3-3.3-3.4-5.6c-0.4-2.4,0.1-4.5,1.6-6.4
	c1.5-1.9,3.5-2.9,5.9-3c2.3-0.1,4.3,0.6,6.2,2.1c1.8,1.4,2.9,3.3,3.4,5.5C302.3,463.9,301.8,466,300.3,467.8z M288.8,440.6
	c1.3-1.7,3.1-2.5,5.2-2.6c2,0,3.8,0.6,5.5,1.9c1.6,1.3,2.6,2.9,3,4.9c0.4,2.1-0.1,4-1.4,5.7c-1.3,1.6-3.1,2.5-5.2,2.5
	c-2,0.1-3.9-0.5-5.4-1.8c-1.6-1.3-2.6-3-3-5C287,444.1,287.5,442.2,288.8,440.6z M312.4,458.4l-2.8-2.2l-1,1.2l2.8,2.2l-2.3,2.8
	l-2.8-2.2l-1.1,1.4l-3.4-2.8l7.8-9.8l3.4,2.8l-1.2,1.5l2.8,2.2L312.4,458.4z M346.9,499.2l-19.5-8.5c-0.7-0.3-1.1-0.7-1.3-1.1
	c-0.2-0.5-0.1-1.1,0.2-1.9l3.2-7.2l4,1.8L331,488l17.5,7.6L346.9,499.2z M349.4,492.9l-4-1.8l5-11.4l-3.9-1.7l-1.2,2.7l1.9,0.8
	l-1.6,3.6l-5.3-2.3l-1.9,4.4l-4-1.7l1.9-4.4l-8.2-3.6l1.6-3.6l11.6,5l2.5-5.8l-10.5-4.6l1.5-3.6l14.5,6.3l-1.3,3.1l3.9,1.7l1.3-3.1
	l4,1.8L349.4,492.9z M391.8,488.2c0.8,1.6,2.4,2.8,4.8,3.4l-0.6,4c-1.9-0.4-3.6-1-5-2c-1.4-1-2.4-2.2-3-3.6c-1,1.2-2.4,2.1-4.2,2.6
	c-1.7,0.5-3.4,0.7-5.2,0.5l0.6-3.9c2.5,0,4.3-0.6,5.5-2c1-1,1.6-2.6,1.9-4.7l4.6,0.7C391,485.2,391.2,486.9,391.8,488.2z
	 M402.9,506.5l-18.7-2.7l-0.2,1.2l18.7,2.7l-0.6,3.8l-20.9-3c-0.7-0.1-1.2-0.3-1.5-0.7c-0.3-0.4-0.4-1.1-0.3-1.9l0.9-6.1l18.7,2.7
	l0.2-1.2l-18.7-2.7l0.5-3.7l23,3.3L402.9,506.5z M404.3,497l-4.4-0.6l0.9-6l-4.9-0.7l0.5-3.7l4.9,0.7l0.3-2l4.4,0.6L404.3,497z
	 M262.4,297.6c0-87.6,71-158.5,158.5-158.5s158.5,71,158.5,158.5s-71,158.5-158.5,158.5S262.4,385.2,262.4,297.6z M432.3,495.2
	c3.6-0.5,6.2-1.5,8-3.1c1.4-1.3,2.1-2.6,1.9-4.1l-10.2,1.2l-0.4-3.8l14.8-1.8l0.2,2.1c0.5,4.1-0.9,7.3-4.1,9.7
	c-2.4,1.8-5.7,3.1-9.7,3.7L432.3,495.2z M455,508.7c-1.6,1.7-3.5,2.7-5.8,3s-4.4-0.2-6.3-1.5c-2-1.4-3.2-3.2-3.4-5.6
	c-0.3-2.4,0.4-4.5,2-6.3c1.5-1.7,3.5-2.6,5.8-2.9c2.3-0.3,4.4,0.2,6.3,1.5c2,1.4,3.2,3.2,3.5,5.6C457.4,504.8,456.7,506.9,455,508.7
	z M452.8,495.8l-0.2-2l-3.9,0.5l-0.4-3.5l3.9-0.5l-0.2-1.8l-3.9,0.5l-0.4-3.5l3.9-0.5l-0.2-1.7l4.4-0.5l1.5,12.6L452.8,495.8z
	 M504,495.4l-4.1-10l-2.3,0.9l-0.8-2c0,0.7-0.1,1.5-0.3,2.2c-0.6,2.3-1.9,3.9-4.1,4.8c-2.2,0.9-4.3,0.7-6.3-0.6
	c-1.8-1.2-3.2-2.9-4.1-5.2c-1-2.4-1.2-4.6-0.7-6.7c0.5-2.3,1.9-3.9,4.1-4.8c2.2-0.9,4.3-0.7,6.3,0.6c0.6,0.4,1.2,0.9,1.7,1.4
	l-0.5-1.2l2.3-0.9l-1.3-3.3l3.8-1.5l10,24.7L504,495.4z M509.1,493.3l-10-24.7l3.9-1.6l10,24.7L509.1,493.3z M527.6,458.1
	c2.4-2,4-3.7,4.9-5.3c1-1.8,1-3.4,0-4.7l3.9-2.9c1,1.3,2.5,1.8,4.5,1.3c1.8-0.4,3.9-1.6,6.4-3.4l2.2,2.9c-2.1,1.5-4.1,2.7-6.2,3.6
	c-2.4,1-4.4,1.3-5.8,1c-0.1,1.5-0.9,3.3-2.5,5.4c-1.4,1.8-3.1,3.4-5.1,5L527.6,458.1z M542.7,474.4c-0.6,0.4-1.1,0.6-1.6,0.6
	c-0.5-0.1-1-0.5-1.6-1.2l-3.3-4.4l16.2-12.3l-0.6-0.8l-16.2,12.3l-2.1-2.7l8.1-6.2l-0.7-0.9l-8.8,6.7l-2.1-2.8l21.1-16.1l2.1,2.8
	l-8.8,6.7l0.7,0.9l8.1-6.2l4.6,6.1l-16.2,12.3l0.7,0.9l16.2-12.3l2.2,2.8L542.7,474.4z M573.5,429.6c-0.5,0.1-1.1-0.2-1.8-0.7
	l-9.3-7.2l9.5-12.3l3.1,2.4l-6.8,8.8l5,3.8l9.7-12.6l-8.1-6.2l2.7-3.5l4.4,3.4l2.2-2.8l3.1,2.4l-2.2,2.8l7,5.4l-2.7,3.5l-3.3-2.5
	l-11.1,14.4C574.4,429.2,574,429.6,573.5,429.6z M585.7,435.1c-0.4,0.6-0.9,0.9-1.3,1c-0.5,0.1-1.1-0.2-1.8-0.7l-5.8-4.5l2.7-3.5
	l4.6,3.5l11.6-15.1l3.1,2.4L585.7,435.1z M600.9,243c-1-3.3-0.8-6.3,0.6-8.9c1.4-2.6,4-4.4,7.5-5.5c2.3-0.7,4.3-0.9,6.1-0.7
	c1.3,0.2,2.5,0.5,3.7,1.2s2.2,1.4,2.9,2.3c1,1.2,1.8,2.8,2.4,4.6c1,3.3,0.8,6.3-0.7,8.9s-4,4.5-7.7,5.6c-3.6,1.1-6.8,1-9.4-0.4
	C603.7,248.6,601.9,246.3,600.9,243z M606.8,266.6l-0.8-4.5l17.4-7.8l-18.2,3.2l-0.8-4.3l23.2-4.1l1.2,7l-15.1,7l16.5,1.3l1.3,7
	l-23.2,4.1l-0.8-4.3l18.2-3.2L606.8,266.6z M611.1,373.1c-1.7,0-3-1.4-3-3s1.4-3,3-3s3,1.4,3,3S612.8,373.1,611.1,373.1z
	 M631.3,324.5l-0.5,5.4L618,320l-9.8-1l0.5-4.7l9.9,1l14.4-7.2l-0.6,5.5l-9.8,4.6L631.3,324.5z"/>
<path class="st0" d="M255.2,417.4c-1.2-0.3-2.3,0-3.3,0.7c-1,0.7-1.5,1.7-1.7,2.9c-0.1,1.2,0.1,2.2,0.8,3.2c0.7,1,1.6,1.6,2.8,1.8
	c1.2,0.3,2.3,0,3.3-0.7s1.5-1.7,1.7-2.9c0.1-1.2-0.2-2.2-0.9-3.2C257.2,418.2,256.3,417.6,255.2,417.4z"/>
</svg>
