<?xml version="1.0" encoding="utf-8"?>
<!-- Generator: Adobe Illustrator 22.0.1, SVG Export Plug-In . SVG Version: 6.00 Build 0)  -->
<svg version="1.1" id="Layer_1" xmlns="http://www.w3.org/2000/svg" xmlns:xlink="http://www.w3.org/1999/xlink" x="0px" y="0px"
	 viewBox="0 0 841.9 595.3" style="enable-background:new 0 0 841.9 595.3;" xml:space="preserve">
<style type="text/css">
	.st0{fill:#040000;}
</style>
<g>
	<path class="st0" d="M581,280.4c-2.4,0.6-4.7,1.2-7.1,1.7c-4.2,0.9-8.3,2.5-12.6,2.8c-1.4,0.1-2.8,0.4-4.3,0.7
		c-2.8,0.5-4.1-0.3-4.5-3.1c0-0.1,0-0.3,0-0.4c-0.4-2.6-0.4-2.6,1.7-3.9c5.9-3.3,12.1-6.1,18.8-7.7c2.8-0.7,5.5-1.6,8.4-2.2
		c2.7-0.6,5.5-1,8.3-1.4c2.4-0.3,4.7-0.7,7.1-0.8c1.9-0.1,3.8,0.2,5.6,0.5c1.7,0.3,2.5,1.6,3.3,3c0.5,0.8,0.2,1.6-0.5,2.1
		c-0.8,0.5-1.7,1.1-2.5,1.1c-3.9,0.2-6.7,2.3-9,5c-2.7,3.1-5.2,6.2-7.8,9.4c-0.3,0.4-0.4,1.1-0.7,2c1.6,0,2.8,0,4,0
		c2.1,0,4.1,0.1,6.2,0.5c3,0.6,4.2,2.7,5.1,5.1c1.3,3.8,0.4,6-3.3,7.8c-3.8,1.8-7.7,3.4-11.4,5.3c-3.3,1.7-6.5,3.8-9.7,5.7
		c-0.8,0.4-0.9,1.1-0.5,2c0.5,0.1,1,0.2,1.6,0.2c2.8,0,5.5-0.1,8.3,0c3,0.2,5.9,0.6,8.5,2.3c2.2,1.4,2.5,3.8,0.7,5.7
		c-1.5,1.6-3.5,2.4-5.4,3.2c-8,3.1-16.3,5.1-24.7,7.3c-6.1,1.6-12.1,3.2-18.1,4.9c-3.2,0.9-6.3,2.1-9.5,3.1
		c-0.4,0.1-0.8,0.3-1.2,0.6c-0.6,0.3-1.3,0.7-1,1.5c0.3,0.8,1,0.7,1.7,0.5c2.8-0.5,5.5-1,8.3-1.5c1.8-0.3,3.7-0.6,5.5-0.9
		c1.6-0.3,3.1-0.5,4.7-0.7c2.6-0.4,5.3-0.8,7.9-1.1c4.3-0.6,8.6-1.1,12.9-1.6c0.4,0,0.7-0.1,1.1-0.1c7.1-0.1,14.2-1,21.4-0.5
		c4.1,0.3,8.1,0.2,12.2,0.5c2.7,0.2,5.5,0.7,8.2,1c1.9,0.2,3.9,0.4,5.8,0.8c2.4,0.4,4.8,1,6.9,2.4c1.8,1.2,3,2.8,2.7,5.1
		c-0.1,0.6-0.5,1.4-1,1.8c-0.6,0.5-1.3,0.9-2.1,1.1c-0.6,0.2-1.6,0.2-2-0.2c-1.3-1.1-2.8-1.4-4.3-1.5c-0.8-0.1-1.5-0.3-2.3-0.4
		c-2.8-0.3-5.6-0.3-8.3-1.2c-0.5-0.2-1-0.1-1.5-0.1c-2.6,0.2-5.2-0.2-7.7-0.9c-0.4-0.1-0.9-0.2-1.3,0c-2.2,0.7-4.4,0.3-6.7,0
		c-2.3-0.3-4.6-0.1-7-0.2c-4.6-0.1-9.3-0.3-13.9-0.4c-2,0-4,0.2-6.1,0.3c-3.9,0.2-7.8,0.3-11.7,0.8c-3.4,0.4-6.8,1.1-10.3,1.7
		c-2.9,0.5-5.8,0.8-8.8,1.3c-1,0.2-2,0.4-3,0.6c-5.7,1.1-11.4,2.3-17,4c-2.4,0.7-4.9,1.1-7.4,1.6c-0.6,0.1-1.3,0.2-1.9,0
		c-0.6-0.2-1.3-0.5-1.5-1c-1.1-1.9,0-5.2,2-6.2c1.8-0.9,3.7-1.7,5.6-2.4c5.8-2.1,11.5-4.1,17.4-6.1c6.4-2.1,12.8-4,19.2-6.1
		c7.8-2.5,15.5-5,23.3-7.4c3.8-1.2,7.6-2.2,11.4-3.4c1.3-0.4,2.5-1.1,3.8-1.6c0.6-0.3,1.3-0.5,1.2-1.3c-0.1-0.9-0.7-1.3-1.5-1.4
		c-1.9-0.1-3.8-0.4-5.6-0.2c-3.6,0.3-7.2,0.9-10.8,1.2c-1.4,0.2-2.9,0.1-4.4,0.1c-1.8,0-2.6-1-2.5-2.8c0.2-2.6,1.2-5,3.1-6.7
		c2.2-2,4.7-3.9,7-5.8c0.2-0.2,0.6-0.3,0.7-0.5c0.3-0.5,0.6-1.1,0.5-1.4c-0.2-0.4-1-0.9-1.3-0.8c-1.5,0.8-3.4,0.3-4.9,1.3
		c-1.9,1.2-4.1,1.8-6.1,2.6c-0.4,0.2-1.1,0.1-1.4-0.1c-0.9-0.8-1.9-1.6-2.5-2.6c-0.6-1-0.9-2.3-1.3-3.4c-0.5-1.9-0.3-2.6,1.5-3.5
		c2.7-1.3,5.5-2.5,8.3-3.7c1.3-0.5,2.6-1,3.9-1.2c1.3-0.2,2-0.9,2.3-2c0.6-2.5,2-4.6,3.5-6.7C581.4,281.9,581.4,281.8,581,280.4z"/>
	<path class="st0" d="M353,270.4c-0.5,2.7-2.4,3.8-4.5,4.9c-2.2,1.2-4.5,2.1-6.6,3.6c-1.6,1.2-3.7,1.9-5.6,2.7
		c-2,0.8-3.5,1.9-3.4,4.4c0,1-0.9,2.1-1.3,3.2c-1.4,4-2.8,8-4.2,12c-0.3,0.8-0.7,1.6-1.3,2.1c-1.3,1.2-2.7,0.6-3.3-1.1
		c-1-2.9-0.5-5.7,0.3-8.5c0.3-1,0.6-1.9,0.8-2.9c0.3-1.2-0.6-2-1.7-1.6c-5.8,2.3-11.5,4.6-17.3,6.9c-2.2,0.9-4.3,1.9-6.5,2.9
		c-1.6,0.7-3.3,0.1-4.1-1.5c-0.2-0.4-0.4-0.8-0.6-1.2c-0.6-1.4-0.6-2.7,0.7-3.7c2.6-2.2,5.2-4.4,7.9-6.4c4.7-3.6,9.9-6.6,15-9.6
		c0.7-0.4,1.4-1.1,1.8-1.8c3.8-6.4,7.5-12.8,11.2-19.3c0.1-0.2,0.4-0.3,0.4-0.5c0-0.5,0.1-1.2-0.1-1.5c-0.2-0.3-0.9-0.4-1.3-0.3
		c-1.3,0.3-2.6,0.8-4,1c-1.6,0.3-3.3,0.4-4.9,0.5c-1.3,0.1-2.3-0.5-2.9-1.5c-0.9-1.6-1.7-3.2-2.3-4.9c-0.4-1.1,0.5-1.9,1.3-2.2
		c3.4-1.6,6.8-3.3,10.5-3.8c1.3-0.2,2.5-0.6,3.8-0.3c5.9,1.3,9.1,5.4,10.9,10.7c0.9,2.8,0.7,5.9-1.1,8.6c-0.9,1.3-1.7,2.5-2.6,3.7
		c-0.5,0.7-0.8,1.5-0.2,2.2c0.3,0.3,1.2,0.3,1.8,0.1c3-1.1,6.1-1,9.2-0.9C350.6,266.6,352.1,268.1,353,270.4z"/>
	<path class="st0" d="M217.1,239.9c0.4,0,0.7,0,1.1,0c3.3-0.4,6.3,0.6,9.2,1.9c2.6,1.2,4.4,3.8,4.3,6.8c0,0.8-0.2,1.4-1.1,1.7
		c-3,0.8-5.9,1.7-8.9,2.3c-5.3,1-10,3.6-15,5.3c-4.9,1.6-9.8,3.3-14.8,4.8c-4.1,1.3-8.2,2.4-12.2,3.7c-1.9,0.6-3.7,1.2-5.7,1.2
		c-3.4-0.1-5.4-2.3-7-4.9c-0.5-0.7-0.2-1.6,0.3-2.4c1.6-2.5,3.7-4.4,5.9-6.3c4.3-3.7,9.5-5.8,14.7-7.9c3.9-1.6,7.9-3,12-4.1
		c3-0.8,6.1-0.9,9.2-1.3c2.7-0.3,5.3-0.6,8-0.9C217,239.7,217.1,239.8,217.1,239.9z"/>
	<path class="st0" d="M444.4,281.4c-1.3-1.5-1.4-1.6-2.7-0.9c-3.1,1.5-6.2,3.1-9.3,4.7c-2.4,1.2-3.7,0.9-5-1.4c-0.5-0.9-0.9-2-1.3-3
		c-0.6-1.5-0.5-1.9,0.7-2.8c4-2.7,8-5.3,12.7-6.4c2.1-0.5,4.5-0.4,6.7-0.2c0.8,0.1,1.6,0.9,2.3,1.6c0.7,0.6,1.3,0.7,2.1,0.3
		c2-0.9,4-1.6,6.1-2.3c2-0.6,4-0.5,6,0.3c0.5,0.2,1,0.6,1.4,1c0.9,0.9,0.6,2.2-0.6,2.3c-3.7,0.4-6.5,2.7-9.6,4.3
		c-1.3,0.7-1.8,2.9-1.1,4.2c0.4,0.6,0.9,1,1.6,0.5c0.6-0.4,1.3-0.7,1.9-1c4.2-2,8.3-4,12.6-5.9c1.4-0.6,2.4-1.6,3-3
		c1.6-3.9,3.6-7.6,6-11c0.6-0.9,1.4-1.6,2-2.5c1.7,0.9,2.5,2.3,3,3.8c0.4,1.2,0.5,2.5-0.5,3.7c-0.8,1-1.4,2.2-2,3.4
		c-2.5,4.6-4.8,9.4-7.7,13.8c-1.7,2.6-3.5,5.1-4.1,8.3c-0.1,0.3-0.3,0.7-0.5,1.3c-1.3-2.1-1.1-3.7-0.8-5.2c0.3-1.9,0.7-3.8,0.9-5.8
		c0.2-1.5-0.6-2.1-2-1.5c-1,0.5-1.9,1.3-2.9,1.9c-3.4,2.1-6.8,4.1-10.2,6.1c-0.2,0.1-0.6,0.3-0.8,0.2c-1.8-0.1-2.8,1-3.5,2.5
		c-2.2,4.7-5,9.1-8.1,13.3c-1.4,2-3.2,3-5.2,4c-1.1-0.4-1.5-1.4-1.6-2.2c0-1.8,0-3.6,0.4-5.4c1-4.6,3.4-8.8,5.6-12.9
		C441.5,286.9,442.9,284.2,444.4,281.4z"/>
	<path class="st0" d="M404.7,303.2c2.1,0,3.6,0.1,5,0c1.9-0.1,3.4,0.6,4.9,1.6c1.4,0.9,1.7,2.2,0.8,3.6c-0.7,1-1.7,1.9-2.7,2.5
		c-4.1,2.3-8.3,4.5-12.4,6.7c-2.4,1.3-4.8,2.7-7.2,4.1c-0.5,0.3-0.9,0.8-1.4,1.3c1,1.1,1.9,0.8,2.8,0.5c3.7-1.1,7.3-2.5,11-3.1
		c4.2-0.7,8.4-1.4,12.7-0.4c4,0.9,7.8,2,11.3,4.2c2,1.3,3.5,2.9,4.5,4.7c-1.4-0.6-2.6-0.8-3.6-1.5c-1.2-0.8-2.6-0.9-3.9-1.2
		c-4-0.7-7.9-0.6-11.9,0.2c-4.9,1-9.7,2-14.6,3c-3.4,0.7-6.8,1.3-10.2,2c-2,0.4-3.9,0.9-5.9,1.4c-0.2,0.1-0.4,0.2-0.6,0.2
		c-2.6,0.2-3.5,0.1-3.9-1.4c-0.6-2.1,0.6-4.6,2.2-5.5c3.9-2,7.9-3.9,11.7-6.2c4.4-2.6,8.6-5.4,12.8-8.2c1.4-0.9,2.7-2,4-3
		c0.7-0.5,0.9-1.1,0.4-2c-2.1-0.7-4,0.3-6.1,0.7c-2.1,0.4-4.1,0.7-6.2,0.9c-1.7,0.1-2.1-0.4-2.1-2c-0.1-2.9,0.8-5.6,2.9-7.6
		c2.3-2.2,4.7-4.3,7.1-6.4c0.4-0.4,0.7-0.8,1.1-1.3c-0.7-1-1.4-0.8-2.2-0.4c-3.1,1.4-6.2,2.7-9.3,4.1c-2.7,1.2-4.2,0.6-5-2.3
		c-0.7-2.4-0.6-2.3,1.5-3.8c3.7-2.6,7.8-4.5,12.2-5.6c2.5-0.6,5.1-1.2,7.7-0.8c1.1,0.1,2.2,0.7,3.1,1.4c1,0.8,1.8,1.9,2.4,3
		c1.1,1.9,0.3,3.8-0.8,5.4c-1.4,2-3.3,3.4-5.3,4.7c-1.9,1.3-3.8,2.7-5.6,4.2C405.4,301.3,405.2,302.1,404.7,303.2z"/>
	<path class="st0" d="M526.7,266.8c1.2,0.5,1.9-0.2,2.5-0.9c1.6-1.7,3.5-2.7,5.8-3.8c0.6,0.7,1.3,1.3,1.8,2c0.9,1.4,0.5,2.3-0.8,3.4
		c-1.3,1.1-2.6,2.4-3.3,3.9c-2.1,4.2-4,8.5-5.7,12.9c-1.4,3.5-2.4,7.1-3,10.8c-0.1,0.3-0.3,0.6-0.5,1.1c-1.9-1.2-2.4-3-2.8-4.8
		c-0.7-3.4,0.1-6.8,0.9-10.1c0.2-0.8,0.2-1.7,0.3-2.9c-0.9,0.3-1.5,0.4-1.9,0.7c-2.1,1.5-4.2,3-6.4,4.5c-0.5,0.3-1,0.6-1.5,0.9
		c-1.2,0.6-2,0.4-2.8-0.7c-0.4-0.6-0.8-1.2-1.2-1.8c0.3-1.4,1.2-2.3,2.4-3c3.4-1.8,6.7-3.7,10.1-5.5c1.2-0.6,2.5-1.1,3.7-1.8
		c0.7-0.4,1.3-1,1.8-1.6c0.6-0.7,1-1.6,0.3-2.6c-0.9-1.2-1.9-1.6-3.2-1.1c-5.4,2.2-10.8,4.5-15.5,8.1c-1,0.8-2,1.6-3,2.5
		c-1.3,1.1-1.6,2.7-2.1,4.2c-0.2,0.5,0,1.2,0.3,1.6c2.3,3.8,1.7,7.4-0.4,11.1c-2.4,4.4-6.4,6-10.9,7c-2.1,0.5-3.4-0.5-4.5-2.1
		c-3.1-4.5-2.9-9.1-0.4-13.7c1.5-2.7,3.4-5.2,6.1-7c1.3-0.9,2.4-2.1,3.5-3.3c5.3-5.8,11.8-9.7,19-12.6c2-0.8,4.1-0.9,6.2-0.7
		C524,261.8,526.3,264.1,526.7,266.8z M499.3,284.7c-3.3,3.3-6,6.6-7.6,10.8c-0.1,0.3,0,0.8,0.1,1.2c2.8-1,6.7-4.7,7.6-7.5
		C499.9,287.8,500.5,286.4,499.3,284.7z"/>
	<path class="st0" d="M655,256.1c2.7,2.2,3.2,4.1,2,6.5c-1.3,2.8-2.8,5.6-4.2,8.4c-0.1,0.3-0.2,0.5-0.3,0.8c0.7,1,1.7,0.8,2.6,0.5
		c4.9-1.5,9.8-2.6,14.9-2.2c2.3,0.2,4.3,0.9,5.4,3.1c0.7,1.3,0.5,1.9-0.7,2.8c-0.2,0.1-0.4,0.3-0.5,0.4c-2,1.2-2.8,1-4.1-1.1
		c-4.5,0.2-9.2-0.6-13.8,0.7c-2.3,0.6-4.5,1.5-6.7,2.5c-1.9,0.8-2.9,2.5-3.9,4.3c-0.5,0.9-1.1,1.7-1.9,2.2c-0.9,0.7-1.8,0.4-2.1-0.6
		c-0.6-1.9-1.5-3.8-0.5-5.9c0.4-0.8,0.3-0.8-0.9-1.9c-3,1.8-6,3.6-9,5.5c-3.9,2.5-7.5,5.7-11.9,7.4c-0.7,0.3-1.3,0.7-1.8,1.2
		c-1.3,1.3-2.8,1.6-4.6,1.6c-1.3,0-2.3-0.5-2.8-1.6c-0.7-1.6-1.3-3.1-0.8-5c1-4.4,3-8.1,6-11.4c0.7-0.7,0.8-1.5,0.3-2.4
		c-0.4-0.8-0.9-1.7-1.2-2.5c-0.8-1.8-0.2-3,1.7-3.6c3.3-0.9,6.7-1.6,10.2-1.7c3-0.1,4.6,1.8,5.9,4c0.2,0.4,0.1,1.2-0.1,1.6
		c-1.2,1.5-2.5,2.9-4.4,3.3c-2.1,0.4-3.8,1.3-5.2,2.9c-1.6,1.7-3.3,3.3-4.9,5c-0.3,0.3-0.7,0.6-0.8,1c-0.2,0.6-0.4,1.4-0.2,1.8
		c0.4,0.7,1.1,0.2,1.7-0.1c4-1.8,7.9-3.6,12-5.2c3.2-1.3,6.5-2.3,9.8-3.4c2.6-0.8,4.2-2.5,5.5-4.8c2.4-4.2,5.1-8.1,7.8-12.1
		C653.9,257.3,654.4,256.8,655,256.1z"/>
	<path class="st0" d="M369,279.8c-0.2-2,0.6-3.9,1.7-5.7c2.7-4.5,5.8-8.8,9.5-12.6c2.1-2.2,4.1-4.5,6.2-6.7c1.5-1.5,3.2-2.8,4.7-4.2
		c1.6-1.5,3.5-1.6,5.5,0.6c1.4,1.6,2,3.7,2.2,5.8c0.1,1-0.6,2.2-1.2,3.1c-2.3,2.9-4.8,5.6-7.2,8.4c-0.9,1-0.5,1.8,0.8,2.1
		c1.6,0.4,3.2,0.8,4.8,1.1c2.5,0.4,4.9,1.3,7.1,2.5c0.7,0.4,1.3,0.9,1,1.6c-0.3,0.7-0.8,1.3-1.5,1.7c-0.4,0.3-1.2,0.2-1.7,0.1
		c-2.9-1-6-0.7-8.8-2.2c-1-0.5-2.4-0.6-3.6-0.8c-2-0.2-3.4,0.8-4.4,2.3c-2.2,3.3-4.3,6.7-6.3,10.1c-1.5,2.4-4.6,2.8-6.3,0.7
		C370,285.5,368.8,283,369,279.8z"/>
	<path class="st0" d="M242.6,281.6c-0.5-1.9-1.1-3.6-1.1-5.5c0-1.6,0-1.6-1.3-2.6c-1,0.6-2.1,1.2-3.2,1.7c-1.9,0.9-3.9,1.8-5.9,2.7
		c-0.4,0.2-1,0.4-1.4,0.2c-0.5-0.1-1.1-0.5-1.3-0.9c-0.1-0.3,0.1-1,0.5-1.3c0.9-0.7,1.9-1.3,2.9-1.9c3.1-1.9,6.1-3.8,9.2-5.8
		c0.7-0.5,1.4-1.3,1.8-2c0.5-0.9,0.9-2,1.1-3c0.1-0.6,0-1.6-0.5-1.9c-0.4-0.3-1.4-0.3-2-0.1c-2.7,1.1-5.3,2.3-7.9,3.6
		c-1.4,0.7-2.6,1.5-4,2.2c-1.1,0.7-2.4,0.5-3.3-0.6c-0.9-0.9-0.8-1.7,0.2-2.9c4.1-4.5,10-6.2,16-4.1c2.1,0.8,2.5,0.6,3.4-1.5
		c1.4-3.4,3.5-6.3,5.8-9.1c1.9-2.3,3.6-4.7,6.2-6.4c0.9-0.6,1.5-0.7,2.5-0.2c1.6,0.7,2.6,1.8,3.5,3.2c0.5,0.7,0.5,1.4-0.2,2
		c-3.7,3.2-5.5,7.8-7.8,11.9c-2.3,4.3-4.5,8.7-6.9,13c-0.4,0.8-1.1,1.5-1.7,2.2c-1.2,1.3-2.2,2.6-2.5,4.4
		C244.6,279.9,244.1,281.1,242.6,281.6z"/>
	<path class="st0" d="M588.7,251.8c3.1,0.2,5.7,1.3,8.1,3c1.6,1.1,2.1,2.9,3,4.5c0.1,0.2,0,0.8-0.2,1c-1.3,0.7-2.2,2.1-4.2,2
		c0.4-0.6,0.7-1.2,1.2-2c-0.4-0.4-0.8-0.9-1.3-1.1c-1.1-0.5-2.3-1.1-3.5-1.1c-2.1-0.1-4.1-0.9-6.2-0.3c-1.4,0.4-2.9,0.2-4.3,0.1
		c-2-0.1-3.8,0.6-5.6,1.6c-3.1,1.7-6.2,3.4-9.3,5.1c-1,0.5-2.1,1.2-3.2,0.2c-1.3-1.2-2.3-2.5-1.9-4.4c0.2-1.1,0.6-2.2,1.5-3
		c2.4-2,4.8-4.2,7.3-6.2c2.2-1.8,4.5-3.6,6.9-5.3c1.8-1.3,3.7-2.6,5.5-3.8c1.7-1.1,2.5-0.9,3.6,0.7c0,0.1,0.1,0.1,0.1,0.2
		c2.2,2.2,2.9,4.9,2.4,8C588.5,251,588.6,251.3,588.7,251.8z"/>
	<path class="st0" d="M278.4,278.7c0.3-1.8,0.5-4,1.2-6.2c2.1-7,5.2-13.5,8.9-19.7c0.6-0.9,1.1-1.9,1.7-2.8c1.6-2.3,2.5-1.9,4.4-1
		c1.4,0.7,2.3,2.9,1.8,4.5c-0.6,2.2-1.3,4.4-1.9,6.6c-0.1,0.3-0.2,0.6-0.2,0.8c0,0.5,0,1.3,0.3,1.6c0.3,0.3,1.1,0.1,1.6,0
		c1.6-0.5,3.1-1.2,4.7-1.7c2.4-0.9,4.8-0.8,7.2,0.2c0.6,0.2,1.2,0.8,1.6,1.4c0.2,0.3,0.2,1.1-0.1,1.4c-0.2,0.3-1,0.6-1.3,0.4
		c-1.8-1.2-3.4-0.1-4.9,0.6c-3.1,1.4-6,3.1-9.1,4.7c-0.6,0.3-1.2,0.8-1.9,1c-2.3,0.7-3.6,2.3-4.5,4.4c-1.1,2.4-2.3,4.8-3.6,7.2
		c-1,1.7-2.3,2.1-3.8,1.4c-0.8-0.4-1.4-1-1.4-2C278.8,280.6,278.6,279.9,278.4,278.7z"/>
	<path class="st0" d="M211.6,285.5c8.8-0.9,13-0.6,15.2,1.5c-0.9,0.2-1.7,0.2-2.4,0.5c-2.1,0.7-4.1,1.7-6,2.7
		c-4.7,2.5-9.5,4.9-14.3,7.3c-2,1-4,1.9-6,2.9c-1.2,0.6-2.3,0.2-2.9-1c-1.1-2.1-0.9-3.2,0.9-4.7c1.5-1.2,3-2.5,4.7-3.5
		c1.5-0.9,2.3-2.1,2.7-3.7c0.9-3.8,2.6-7.2,4.5-10.5c1.4-2.4,2.7-4.8,4.1-7.1c0.3-0.5,0.7-1,1.1-1.4c1.6-1.6,3.7-1.1,4.7,1
		c0.6,1.3,0.3,2.5-0.2,3.5c-1.6,3.7-3,7.5-6,10.4C211,284.1,210.9,284.8,211.6,285.5z"/>
	<path class="st0" d="M416.7,277.3c-0.3-2.6-0.3-5.1-0.1-7.5c0.2-2.4,1.7-4.5,1.8-7.4c-0.9,0.2-1.6,0.2-2,0.5
		c-2,1.5-4.4,2.1-6.7,2.9c-1.1,0.4-2.1,1-3.2,1.1c-2.8,0.2-3.2-0.2-4.1-3.4c0.9-0.5,1.7-1.4,2.8-1.7c3.7-1.3,7.5-2.5,11.3-3.7
		c0.3-0.1,0.7-0.3,1-0.4c3.5-0.8,5.9-2.7,7.6-5.9c0.9-1.8,2.3-3.3,3.6-4.9c1.2-1.4,2-1.3,2.9,0.2c1.1,1.8,2.2,3.6,0.7,5.8
		c-0.6,0.9-0.4,2.3-0.9,3.3c-2,4.1-3.9,8.2-6.2,12.2c-1.1,1.9-2.8,3.5-4.4,5.1C419.6,274.8,418.3,275.8,416.7,277.3z"/>
	<path class="st0" d="M553.5,264.6c-5.1,5.8-7.8,12.7-11,19.5c-1.2,2.5-2.4,4.9-3.5,7.4c-0.5,1.1-0.8,2.3-1.1,3.5
		c-0.2,1.1-0.5,2.2-0.4,3.2c0.1,1.2,0.6,2.3,1,3.4c0.2,0.5,0.7,1,1.3,1.7c-1.8-0.7-4.4-2.8-5.1-4.5c-1.6-3.8-2.3-7.6-1.6-11.8
		c1.3-8.3,5.5-15.1,10.6-21.5c1.4-1.8,3.4-3.1,5.2-4.6c0.7-0.6,1.4-0.6,2.1,0.1C551.9,262.1,553.2,262.9,553.5,264.6z"/>
	<path class="st0" d="M353.9,292.5c-1.4-1.8,0.8-4-1.1-5.8c-0.7,0.4-1.3,0.8-1.9,1.2c-2.2,1.7-4.7,2.4-7.3,3.1
		c-2.4,0.6-4.9,0.2-7.2,1.5c-1,0.6-2,0-2.6-0.9c-0.6-1-0.2-1.7,0.6-2.3c1.6-1,3.1-2.1,4.8-2.9c3.9-1.7,7.9-3.2,11.9-4.7
		c1.1-0.4,2.2-0.7,3.3-1.1c1.3-0.5,2-1.5,2.7-2.7c2.9-5.5,5.8-11,8.7-16.4c0.4-0.7,0.7-1.8,1.8-1.6c1.1,0.2,1.9,1,2.2,2.2
		c0.1,0.5,0.2,1.2,0,1.6c-3.2,7.1-6.4,14.2-9.6,21.3C359.2,287.3,355.6,291.4,353.9,292.5z"/>
	<path class="st0" d="M663.2,302.7c-1.6,0-2.9,0-4.2,0c-2.5,0.1-5.1,0.1-7.6,0.3c-4.7,0.3-9.4,0.7-14.1,1.2c-1.7,0.2-3.4,0.6-5,1.2
		c-2.6,1-4.6-0.2-6.3-1.7c-0.9-0.8-1.2-2.3-0.8-3.6c0.4-1.7,1.1-3.2,2.5-4.2c1.2-0.9,2.5-1.7,3.8-2.5c1.1-0.7,2.1-0.3,2.6,0.6
		c0.6,1.1,0.3,2.2-0.8,3c-0.5,0.4-1.1,0.7-1.6,1.1c-0.5,0.4-0.8,1-0.3,1.5c0.3,0.3,0.9,0.6,1.2,0.5c3.4-0.5,6.8-1.3,10.3-1.5
		c4.6-0.3,9.3-1.3,13.8-0.1c2.4,0.6,4.7,1.5,6.3,3.6C663.1,302.2,663.1,302.5,663.2,302.7z"/>
	<path class="st0" d="M253.9,280c0.5-1.4,0.8-3.1,1.6-4.5c2.4-4.6,5.9-8.4,10.2-11.4c0.5-0.4,1.2-0.6,1.8-0.7
		c0.9-0.2,1.7,0.1,2.1,1.1c0.3,0.7,0.8,1.3,1.3,1.9c0.6,0.8,1.4,1.5,1.9,2.3c1.3,2,1.3,4.1-0.1,6.1c-2.1,2.9-4.6,5.4-7.4,7.6
		c-1.6,1.2-3.2,2.5-5.1,3.2c-2.8,1-4.9-0.1-5.5-2.9C254.5,281.9,254.2,281.1,253.9,280z M268.1,267.5c-0.4,0.2-0.6,0.4-0.8,0.6
		c-3.6,3.7-6.7,7.8-9,12.4c-0.3,0.6-0.8,1.4,0,2.4c1.5-1,3.1-1.9,4.4-3c2.1-1.8,3.9-3.8,5.9-5.8C270.4,272,270.3,269.7,268.1,267.5z
		"/>
	<path class="st0" d="M194.6,284.3c0.3-7.6,3.3-13.9,9.1-18.9c1.3-1.1,2.4-1,3.4,0.1c1.3,1.4,1.2,2.4,0.2,3.8
		c-1.6,2.1-3.1,4.3-4.5,6.6c-1.6,2.7-3,5.6-4.5,8.4c-0.5,1-0.8,2-1.1,3c-0.2,0.7-0.7,1.3-1.4,1c-0.5-0.2-1.1-0.8-1.3-1.3
		C194.5,286.2,194.6,285.2,194.6,284.3z"/>
	<path class="st0" d="M454.6,309.6c0.3-2.8,1-5.4,2.8-7.6c1.5-1.9,3.1-3.7,5.2-4.8c0.7-0.4,1.4-0.9,2.2-0.2c0.8,0.7,1.9,1.3,1.6,2.6
		c-0.3,1.2-0.4,2.1,1,2.6c0.3,0.1,0.5,0.9,0.4,1.3c-0.7,2.4-1.2,4.9-2.8,6.9c-1.7,2-3.7,3.6-6.3,4.4c-1.9,0.6-2.9,0-3.4-1.8
		c-0.2-0.8-0.4-1.7-0.6-2.5C454.5,310.1,454.6,309.8,454.6,309.6z M463.3,301.8c-3.5,2.8-6.1,7.4-5.6,9.8c2.4-0.5,5.6-3,6.2-5.2
		C464.3,305,464.6,303.3,463.3,301.8z"/>
	<path class="st0" d="M231.6,300.1c0.2-4.2,3.3-9,6.8-10.4c2.1-0.8,3.3-0.4,4.1,1.7c0.3,0.9,0.8,1.4,1.8,1.7
		c1.5,0.4,1.6,0.9,1.3,2.6c-0.6,4.5-3.7,7.1-7,9.5c-0.5,0.3-1,0.6-1.6,0.7c-2.6,0.7-3.9,0-4.7-2.7
		C232.1,302.2,231.9,301.1,231.6,300.1z M235.2,304.1c1-0.5,1.6-0.7,2-1.1c1-0.9,1.8-1.9,2.8-2.8c1.7-1.5,2.7-3.2,2.1-5.5
		c-1.8-0.9-2.2-0.9-3.4,0.3c-1.5,1.6-2.8,3.4-3.3,5.6C235.2,301.6,235.3,302.6,235.2,304.1z"/>
	<path class="st0" d="M346.9,305.4c4.6-1.4,8.8-3.3,14-3.6c-0.7,0.7-1,1-1.4,1.3c-2,1.7-3.9,3.4-5.9,5.2c-1.1,1-2.4,1.7-3.9,1.7
		c-1.3,0-2.6,0.8-4,0.2c-1.5-0.6-2.5-1.5-2.8-3c-0.7-3.4-0.1-6.6,2.3-9.4c0.6-0.7,1.2-1.3,1.9-1.8c0.9-0.7,1.6-0.5,2.2,0.5
		c0.8,1.3,0.7,2.4-0.5,3.5c-1.2,1.1-2.3,2.3-2.1,4.1C346.6,304.5,346.7,304.8,346.9,305.4z"/>
	<path class="st0" d="M277.1,289.9c0.3,0.2,1,0.2,1.2,0.6c0.8,1.1,1.9,1.7,3,2.4c0.7,0.5,1.3,1.2,1.8,1.9c0.6,0.9,0.6,1.8-0.2,2.6
		c-2.2,2.1-4.4,4.2-6.7,6.1c-1,0.8-2.4,1.3-3.7,1.7c-1.7,0.5-2.6-0.2-3.2-1.9c-0.5-1.6-0.2-3.2,0.1-4.7c0.9-3.8,3.6-6.1,6.6-8.3
		C276.1,290,276.6,290,277.1,289.9z M271.8,302.2c1.7-0.3,4.9-2.3,6.1-3.7c1.8-1.9,1.8-2.1,0.5-4.5c-1.6-0.4-1.3-0.2-3.3,1.9
		C273.5,297.7,271.8,299.5,271.8,302.2z"/>
	<path class="st0" d="M307.9,273.2c-4-0.6-7.5,1.5-11.2,2.3c-1.6,0.4-3.2,0.6-4.9,0.9c-0.8,0.1-1.4-0.2-1.7-1.5
		c0.2-0.1,0.5-0.3,0.9-0.5c4.5-2.1,9.3-3.1,14.3-2.6c0.9,0.1,1.7,0.6,2.6,0.9C308,272.9,308,273.1,307.9,273.2z"/>
</g>
</svg>
