<?xml version="1.0" encoding="utf-8"?>
<!-- Generator: Adobe Illustrator 22.0.1, SVG Export Plug-In . SVG Version: 6.00 Build 0)  -->
<svg version="1.1" id="Layer_1" xmlns="http://www.w3.org/2000/svg" xmlns:xlink="http://www.w3.org/1999/xlink" x="0px" y="0px"
	 viewBox="0 0 900 120" style="enable-background:new 0 0 900 120;" xml:space="preserve">
<style type="text/css">
	.st0{fill:none;stroke:#F6BD4B;}
	.st1{fill:none;stroke:#B1D581;}
	.st2{fill:none;stroke:#64A9DD;}
	.st3{fill:none;stroke:#7266AC;}
	.st4{fill:none;stroke:#BF73AC;}
	.st5{fill:none;stroke:#EB698D;}
</style>
<g>
	<path class="st0" d="M83.9,25.4l0.5,22.1h-2c-0.9-5.5-3.3-10-7-13.4c-3.7-3.4-7.7-5.1-12-5.1c-3.3,0-5.9,0.9-7.9,2.7
		c-1.9,1.8-2.9,3.8-2.9,6.1c0,1.5,0.3,2.8,1,3.9c0.9,1.5,2.5,3,4.5,4.5c1.5,1.1,5.1,3,10.6,5.7c7.7,3.8,13,7.4,15.7,10.8
		c2.7,3.4,4,7.3,4,11.6c0,5.5-2.2,10.3-6.5,14.3c-4.3,4-9.8,6-16.4,6c-2.1,0-4.1-0.2-5.9-0.6c-1.9-0.4-4.2-1.2-7-2.4
		c-1.6-0.7-2.8-1-3.9-1c-0.8,0-1.7,0.3-2.7,1c-0.9,0.7-1.7,1.6-2.3,3h-1.8v-25h1.8c1.4,7,4.2,12.4,8.3,16.1
		c4.1,3.7,8.5,5.5,13.2,5.5c3.6,0,6.6-1,8.7-3c2.2-2,3.2-4.3,3.2-6.9c0-1.6-0.4-3.1-1.2-4.5s-2.1-2.9-3.8-4.2c-1.7-1.3-4.7-3-9-5.2
		c-6-3-10.4-5.5-13-7.6s-4.7-4.4-6.1-7c-1.4-2.6-2.1-5.4-2.1-8.5c0-5.3,1.9-9.8,5.8-13.5c3.9-3.7,8.8-5.6,14.6-5.6
		c2.1,0,4.2,0.3,6.3,0.8c1.5,0.4,3.4,1.1,5.6,2.2c2.2,1.1,3.7,1.6,4.6,1.6c0.8,0,1.5-0.3,2-0.8c0.5-0.5,0.9-1.8,1.4-3.8H83.9z"/>
	<path class="st1" d="M163.8,26.9v1.8c-2.4,0.4-4.6,1.7-6.4,3.9c-1.4,1.6-3.4,5.5-6.1,11.5l-22.8,50.6h-1.6L104.1,42
		c-2.7-6.3-4.6-10.1-5.5-11.2c-0.9-1.1-2.7-1.8-5.2-2.1v-1.8h31.7v1.8H124c-2.9,0-4.8,0.4-5.9,1.1c-0.7,0.5-1.1,1.2-1.1,2.1
		c0,0.6,0.1,1.3,0.4,2.1c0.3,0.8,1.1,2.9,2.6,6.4l14.1,33L147.3,44c1.6-3.5,2.5-5.9,2.9-7.1c0.4-1.2,0.5-2.2,0.5-3.1
		c0-1-0.3-1.8-0.8-2.6c-0.5-0.7-1.3-1.3-2.3-1.7c-1.4-0.6-3.3-0.8-5.6-0.8v-1.8H163.8z"/>
	<path class="st2" d="M233.8,25.4v23.3H232c-2.2-6.4-5.5-11.2-9.8-14.6c-4.4-3.3-9.1-5-14.3-5c-4.9,0-9.1,1.4-12.4,4.2
		c-3.3,2.8-5.6,6.7-7,11.6s-2.1,10.1-2.1,15.3c0,6.3,0.7,11.9,2.2,16.7c1.5,4.8,3.9,8.3,7.3,10.5c3.3,2.2,7.3,3.4,11.9,3.4
		c1.6,0,3.2-0.2,4.9-0.5c1.7-0.3,3.4-0.8,5.2-1.5V75.2c0-2.6-0.2-4.3-0.5-5.1c-0.4-0.8-1.1-1.5-2.2-2.1s-2.5-0.9-4.1-0.9h-1.7v-1.8
		h32.2v1.8c-2.4,0.2-4.1,0.5-5.1,1c-1,0.5-1.7,1.3-2.2,2.5c-0.3,0.6-0.4,2.1-0.4,4.5V89c-4.2,1.9-8.6,3.3-13.2,4.3
		c-4.6,1-9.3,1.4-14.2,1.4c-6.3,0-11.5-0.9-15.6-2.6s-7.8-4-11-6.7s-5.7-5.9-7.4-9.4c-2.3-4.5-3.4-9.5-3.4-15.1
		c0-10,3.5-18.4,10.5-25.2c7-6.9,15.8-10.3,26.4-10.3c3.3,0,6.3,0.3,8.9,0.8c1.4,0.3,3.8,1,7,2.2c3.2,1.2,5.1,1.8,5.7,1.8
		c0.9,0,1.8-0.3,2.5-1c0.8-0.7,1.5-1.9,2.1-3.8H233.8z"/>
	<path class="st3" d="M303.7,74.3h-23.4l-2.8,6.4c-0.9,2.1-1.4,3.9-1.4,5.3c0,1.9,0.7,3.2,2.2,4.1c0.9,0.5,3,0.9,6.5,1.2v1.8h-22
		v-1.8c2.4-0.4,4.3-1.3,5.9-3c1.5-1.6,3.4-4.9,5.7-10L298,25.5h0.9l23.9,54.3c2.3,5.1,4.2,8.4,5.6,9.7c1.1,1,2.7,1.6,4.7,1.8v1.8
		h-32v-1.8h1.3c2.6,0,4.4-0.4,5.4-1.1c0.7-0.5,1.1-1.3,1.1-2.2c0-0.6-0.1-1.2-0.3-1.8c-0.1-0.3-0.6-1.5-1.5-3.7L303.7,74.3z
		 M302,70.6l-9.9-22.8L282,70.6H302z"/>
	<path class="st4" d="M359.2,26.9L391.8,68V39.5c0-4-0.6-6.7-1.7-8.1c-1.6-1.9-4.2-2.8-7.9-2.7v-1.8h21.9v1.8
		c-2.8,0.4-4.7,0.8-5.6,1.4c-1,0.6-1.7,1.5-2.2,2.8c-0.5,1.3-0.8,3.5-0.8,6.6v55.1h-1.7L349,39.5v42.1c0,3.8,0.9,6.4,2.6,7.7
		c1.7,1.3,3.7,2,6,2h1.6v1.8h-23.5v-1.8c3.6,0,6.2-0.8,7.6-2.2c1.4-1.5,2.1-4,2.1-7.5V34.9l-1.4-1.8c-1.4-1.8-2.6-2.9-3.7-3.5
		c-1.1-0.6-2.6-0.9-4.6-0.9v-1.8H359.2z"/>
	<path class="st5" d="M443.1,91.3v1.8h-34.6v-1.8h2.2c1.9,0,3.5-0.3,4.6-1c0.8-0.5,1.5-1.2,2-2.3c0.4-0.8,0.5-2.8,0.5-6.2V38.2
		c0-3.4-0.2-5.5-0.5-6.3c-0.4-0.8-1.1-1.6-2.2-2.2c-1.1-0.6-2.6-1-4.4-1h-2.2v-1.8h34.6v1.8h-2.2c-1.9,0-3.5,0.3-4.6,1
		c-0.8,0.5-1.5,1.2-2,2.3c-0.4,0.8-0.5,2.8-0.5,6.2v43.6c0,3.4,0.2,5.5,0.6,6.3c0.4,0.8,1.1,1.6,2.2,2.2c1.1,0.6,2.6,1,4.4,1H443.1z
		"/>
	<path class="st0" d="M493.1,70.5l18-43.7h27v1.8h-2.1c-2,0-3.5,0.3-4.7,1c-0.8,0.5-1.5,1.2-2,2.3c-0.4,0.8-0.5,2.8-0.5,6.1v43.7
		c0,3.4,0.2,5.5,0.5,6.3c0.4,0.8,1.1,1.6,2.2,2.2c1.1,0.6,2.6,1,4.4,1h2.1v1.8h-34.6v-1.8h2.1c2,0,3.5-0.3,4.7-1
		c0.8-0.5,1.5-1.2,2-2.3c0.4-0.8,0.5-2.8,0.5-6.2V32.7l-25.4,60.4h-1.2l-25.8-60v46.6c0,3.3,0.1,5.3,0.2,6c0.4,1.6,1.3,3,2.8,4
		s3.6,1.5,6.7,1.5v1.8h-22.7v-1.8h0.7c1.5,0,2.8-0.2,4.1-0.7s2.2-1.2,2.9-2c0.7-0.8,1.2-2,1.5-3.6c0.1-0.4,0.1-2,0.1-5V38.1
		c0-3.4-0.2-5.4-0.5-6.3c-0.4-0.8-1.1-1.6-2.2-2.2c-1.1-0.6-2.6-1-4.4-1h-2.1v-1.8h27.1L493.1,70.5z"/>
	<path class="st1" d="M581.4,74.3H558l-2.8,6.4c-0.9,2.1-1.4,3.9-1.4,5.3c0,1.9,0.7,3.2,2.2,4.1c0.9,0.5,3,0.9,6.5,1.2v1.8h-22v-1.8
		c2.4-0.4,4.3-1.3,5.9-3c1.5-1.6,3.4-4.9,5.7-10l23.7-52.8h0.9l23.9,54.3c2.3,5.1,4.2,8.4,5.6,9.7c1.1,1,2.7,1.6,4.7,1.8v1.8h-32
		v-1.8h1.3c2.6,0,4.4-0.4,5.4-1.1c0.7-0.5,1.1-1.3,1.1-2.2c0-0.6-0.1-1.2-0.3-1.8c-0.1-0.3-0.6-1.5-1.5-3.7L581.4,74.3z M579.7,70.6
		l-9.9-22.8l-10.2,22.8H579.7z"/>
	<path class="st4" d="M667.7,26.9v17.9h-1.8c-1-4.1-2.2-7.1-3.5-8.9s-3-3.2-5.2-4.3c-1.2-0.6-3.4-0.9-6.5-0.9h-4.9v51.1
		c0,3.4,0.2,5.5,0.6,6.3c0.4,0.8,1.1,1.6,2.2,2.2c1.1,0.6,2.6,1,4.5,1h2.2v1.8h-34.7v-1.8h2.2c1.9,0,3.5-0.3,4.6-1
		c0.8-0.5,1.5-1.2,2-2.3c0.4-0.8,0.5-2.8,0.5-6.2V30.7h-4.8c-4.5,0-7.7,0.9-9.7,2.8c-2.8,2.6-4.6,6.4-5.4,11.3h-1.9V26.9H667.7z"/>
	<path class="st2" d="M707.9,91.3v1.8h-34.6v-1.8h2.2c1.9,0,3.5-0.3,4.6-1c0.8-0.5,1.5-1.2,2-2.3c0.4-0.8,0.5-2.8,0.5-6.2V38.2
		c0-3.4-0.2-5.5-0.5-6.3c-0.4-0.8-1.1-1.6-2.2-2.2c-1.1-0.6-2.6-1-4.4-1h-2.2v-1.8h34.6v1.8h-2.2c-1.9,0-3.5,0.3-4.6,1
		c-0.8,0.5-1.5,1.2-2,2.3c-0.4,0.8-0.5,2.8-0.5,6.2v43.6c0,3.4,0.2,5.5,0.6,6.3c0.4,0.8,1.1,1.6,2.2,2.2c1.1,0.6,2.6,1,4.4,1H707.9z
		"/>
	<path class="st1" d="M748.8,26c10.5-0.4,19.1,2.7,25.7,9.2s9.9,14.7,9.9,24.6c0,8.4-2.5,15.8-7.4,22.2
		c-6.5,8.5-15.7,12.7-27.6,12.7c-11.9,0-21.1-4-27.6-12.1c-5.1-6.4-7.7-13.9-7.7-22.7c0-9.8,3.3-18,10-24.6
		C730.8,28.7,739.1,25.6,748.8,26z M749.4,29.1c-6.1,0-10.7,3.1-13.8,9.3c-2.6,5.1-3.9,12.4-3.9,21.9c0,11.3,2,19.6,6,25
		c2.8,3.8,6.6,5.7,11.6,5.7c3.4,0,6.2-0.8,8.4-2.4c2.9-2.1,5.1-5.4,6.7-10c1.6-4.6,2.4-10.5,2.4-17.9c0-8.8-0.8-15.3-2.4-19.7
		c-1.6-4.3-3.7-7.4-6.2-9.2C755.6,30,752.7,29.1,749.4,29.1z"/>
	<path class="st0" d="M812.9,26.9L845.6,68V39.5c0-4-0.6-6.7-1.7-8.1c-1.6-1.9-4.2-2.8-7.9-2.7v-1.8h21.9v1.8
		c-2.8,0.4-4.7,0.8-5.6,1.4c-1,0.6-1.7,1.5-2.2,2.8c-0.5,1.3-0.8,3.5-0.8,6.6v55.1h-1.7l-44.8-55.1v42.1c0,3.8,0.9,6.4,2.6,7.7
		c1.7,1.3,3.7,2,6,2h1.6v1.8h-23.5v-1.8c3.6,0,6.2-0.8,7.6-2.2c1.4-1.5,2.1-4,2.1-7.5V34.9l-1.4-1.8c-1.4-1.8-2.6-2.9-3.7-3.5
		c-1.1-0.6-2.6-0.9-4.6-0.9v-1.8H812.9z"/>
</g>
</svg>
