<?xml version="1.0" encoding="utf-8"?>
<!-- Generator: Adobe Illustrator 22.0.1, SVG Export Plug-In . SVG Version: 6.00 Build 0)  -->
<svg version="1.1" id="Layer_1" xmlns="http://www.w3.org/2000/svg" xmlns:xlink="http://www.w3.org/1999/xlink" x="0px" y="0px"
	 viewBox="0 0 841.9 595.3" style="enable-background:new 0 0 841.9 595.3;" xml:space="preserve">
<style type="text/css">
	.st0{fill:#791935;}
	.st1{fill:#FFFFFF;}
</style>
<path class="st0" d="M420.9,53.7C286.2,53.7,177,162.9,177,297.6s109.2,243.9,243.9,243.9s243.9-109.2,243.9-243.9
	S555.7,53.7,420.9,53.7z M420.9,456.2c-87.6,0-158.5-71-158.5-158.5s71-158.5,158.5-158.5s158.5,71,158.5,158.5
	S508.5,456.2,420.9,456.2z"/>
<path class="st1" d="M234.3,324.6l-23.4,2.3l-0.7-7.6c-0.3-2.9-0.3-4.8-0.2-5.7c0.2-1.4,0.9-2.6,2-3.6c1.1-1,2.6-1.6,4.4-1.8
	c1.4-0.1,2.7,0,3.7,0.4s1.9,1,2.5,1.8s1.1,1.5,1.3,2.3c0.3,1.1,0.6,2.7,0.8,4.9l0.3,3.1l8.8-0.9L234.3,324.6z M214.3,321.7l6.6-0.6
	l-0.3-2.6c-0.2-1.9-0.4-3.1-0.7-3.7c-0.3-0.6-0.7-1.1-1.3-1.4c-0.6-0.3-1.2-0.4-1.9-0.4c-0.9,0.1-1.5,0.4-2,1
	c-0.5,0.6-0.8,1.2-0.9,2c-0.1,0.6,0,1.7,0.2,3.4L214.3,321.7z"/>
<path class="st1" d="M232.6,300.8l-9.9,0.2l-13.5,8.8l-0.1-5.6l9.2-5.7l-9.4-5.3l-0.1-5.5l13.8,8.4l9.9-0.2L232.6,300.8z"/>
<path class="st1" d="M209.1,286.9l0.4-4.7l12.7,1.2c2,0.2,3.3,0.3,3.9,0.2c1-0.1,1.8-0.5,2.4-1.2c0.7-0.7,1-1.7,1.2-3
	c0.1-1.3-0.1-2.4-0.5-3.1c-0.5-0.7-1.1-1.2-1.9-1.4c-0.8-0.2-2.1-0.4-4-0.6l-13-1.2l0.4-4.7l12.3,1.2c2.8,0.3,4.8,0.6,5.9,0.9
	s2.1,0.9,2.8,1.7c0.7,0.8,1.3,1.7,1.6,2.9c0.4,1.2,0.5,2.7,0.3,4.6c-0.2,2.2-0.6,3.9-1.3,5c-0.6,1.1-1.4,2-2.3,2.6
	c-0.9,0.6-1.8,1-2.7,1.1c-1.4,0.2-3.4,0.1-6-0.1L209.1,286.9z"/>
<path class="st1" d="M234.4,269.6l-23.1-4.6l0.9-4.5l17.3-6.3l-15.4-3.1l0.9-4.3l23.1,4.6l-0.9,4.7l-16.9,6.3l15,3L234.4,269.6z"/>
<path class="st1" d="M233.3,237.4l-3.8-1.2l3.1-9.8l8.9,2.8c0.6,1.2,1,2.9,1.1,4.9c0.1,2-0.1,4-0.7,5.8c-0.7,2.3-1.9,4.2-3.4,5.7
	c-1.5,1.4-3.4,2.3-5.5,2.6c-2.1,0.3-4.2,0.1-6.4-0.6c-2.3-0.7-4.3-1.9-5.8-3.4c-1.5-1.6-2.4-3.4-2.8-5.6c-0.3-1.7-0.1-3.6,0.6-5.7
	c0.9-2.8,2.2-4.8,3.8-6c1.7-1.2,3.6-1.7,5.8-1.5l-0.6,4.8c-1.2,0-2.3,0.3-3.2,1c-0.9,0.7-1.6,1.7-2,3c-0.6,2-0.5,3.8,0.4,5.3
	c0.9,1.6,2.6,2.7,5,3.5c2.7,0.8,4.8,0.9,6.6,0.1c1.7-0.8,2.9-2.1,3.5-4c0.3-0.9,0.4-2,0.3-3c-0.1-1.1-0.3-2-0.6-2.9l-2.8-0.9
	L233.3,237.4z"/>
<path class="st1" d="M249.2,220.1l-9-4.2l-16,2l2.4-5l10.8-1.1l-6.1-8.9l2.3-5l8.7,13.6l8.9,4.2L249.2,220.1z"/>
<path class="st1" d="M263.3,193.8l-2.6,4.5l-5.7-0.9l-4.7,8.2l3.7,4.3l-2.5,4.4l-15.8-19.7l2.5-4.4L263.3,193.8z M250.9,196.7
	l-9.2-1.5l6,7.1L250.9,196.7z"/>
<path class="st1" d="M262.6,195.2l-19.1-13.8l2.7-3.7l18.4,1.4l-12.7-9.2l2.6-3.6l19.1,13.8l-2.8,3.9l-18-1.3l12.4,9L262.6,195.2z"
	/>
<path class="st1" d="M274.8,165.4l-2.9-2.7l6.9-7.6l7,6.3c0,1.4-0.3,3-1,4.9c-0.7,1.9-1.7,3.6-3,5c-1.6,1.8-3.5,3.1-5.5,3.7
	s-4,0.7-6.1,0.1c-2-0.6-3.9-1.7-5.6-3.2c-1.8-1.6-3.1-3.5-3.8-5.5c-0.7-2-0.8-4.1-0.2-6.3c0.4-1.6,1.4-3.3,2.9-5
	c2-2.2,3.9-3.5,5.9-3.9c2-0.4,4-0.1,5.9,1l-2.5,4.1c-1.1-0.5-2.2-0.7-3.3-0.4c-1.1,0.2-2.1,0.9-3,1.9c-1.4,1.5-2,3.2-1.8,5
	c0.2,1.8,1.2,3.6,3.1,5.3c2.1,1.9,4,2.8,5.9,2.8c1.9,0,3.5-0.7,4.8-2.2c0.7-0.7,1.2-1.6,1.6-2.6c0.4-1,0.6-2,0.7-2.9l-2.2-2
	L274.8,165.4z"/>
<path class="st1" d="M292.2,159.8l-15.2-18l3.6-3.1l6.7,8l0.6-14.2l4.9-4.1l-0.9,12.7l16.4,4.9l-4.7,4l-12.1-4.3l-0.4,5.5l4.6,5.4
	L292.2,159.8z"/>
<path class="st1" d="M309.7,145.3l-17.6-16.6l4.1-2.7l11.8,11.6l-5.3-15.9l4.7-3.1l12.5,11.5l-6-15.7l4-2.6l8.1,22.8l-4.2,2.8
	l-13.6-12.2l5.7,17.3L309.7,145.3z"/>
<path class="st1" d="M323.5,122.6c-1-2.2-1.6-4.1-1.7-5.9c0-1.3,0.1-2.6,0.6-3.9s1-2.3,1.8-3.2c1-1.2,2.4-2.2,4.2-3.1
	c3.1-1.5,6.1-1.8,8.9-0.7s5.1,3.3,6.7,6.7c1.7,3.4,2,6.5,1.1,9.4c-0.9,2.8-2.9,5-6,6.5c-3.1,1.5-6.1,1.8-8.9,0.8
	C327.3,128.1,325.1,126,323.5,122.6z M327.8,120.3c1.2,2.4,2.6,3.9,4.3,4.6c1.7,0.7,3.4,0.6,5.1-0.2c1.7-0.8,2.8-2.1,3.3-3.9
	c0.5-1.8,0.1-3.9-1-6.3c-1.2-2.4-2.6-4-4.2-4.7c-1.6-0.7-3.3-0.6-5.1,0.3c-1.8,0.9-2.9,2.1-3.4,3.9
	C326.3,115.8,326.6,117.9,327.8,120.3z"/>
<path class="st1" d="M348.7,123.3l-7.9-22.2l4.4-1.6l14.4,11.6l-5.3-14.8l4.2-1.5l7.9,22.2l-4.5,1.6l-14.1-11.3l5.2,14.5
	L348.7,123.3z"/>
<path class="st1" d="M369.5,108.2l4.4-1.4c0.6,1.5,1.4,2.5,2.4,3c1,0.5,2.2,0.6,3.6,0.3c1.5-0.3,2.6-0.9,3.2-1.7
	c0.6-0.8,0.8-1.6,0.7-2.5c-0.1-0.5-0.4-1-0.8-1.3c-0.4-0.3-1-0.5-1.9-0.6c-0.6-0.1-1.9-0.1-3.9-0.2c-2.6-0.1-4.5-0.5-5.7-1.1
	c-1.7-1-2.7-2.3-3.1-4.2c-0.3-1.2-0.2-2.3,0.3-3.5c0.4-1.2,1.2-2.1,2.4-3s2.6-1.4,4.4-1.8c2.9-0.6,5.2-0.5,6.9,0.5
	c1.7,0.9,2.9,2.5,3.4,4.6l-4.6,1.2c-0.5-1.1-1.1-1.9-1.8-2.3c-0.8-0.4-1.8-0.4-3.1-0.1c-1.3,0.3-2.3,0.8-3,1.5
	c-0.4,0.5-0.6,1-0.4,1.6c0.1,0.5,0.4,1,1,1.2c0.7,0.4,2.2,0.6,4.6,0.6c2.4,0,4.2,0.2,5.4,0.6c1.2,0.3,2.2,0.9,3.1,1.8s1.4,2,1.7,3.5
	c0.3,1.3,0.2,2.6-0.3,3.9c-0.5,1.3-1.3,2.4-2.5,3.2c-1.2,0.9-2.8,1.5-4.8,1.9c-2.9,0.6-5.3,0.4-7.1-0.6S370.3,110.7,369.5,108.2z"/>
<path class="st1" d="M389.7,111.6l-2.8-23.4l17.3-2.1l0.5,4l-12.6,1.5l0.6,5.2l11.7-1.4l0.5,3.9l-11.7,1.4l0.8,6.4l13.1-1.6l0.5,3.9
	L389.7,111.6z"/>
<path class="st1" d="M406.2,97.8c0-2.4,0.3-4.4,1-6.1c0.5-1.2,1.2-2.3,2.1-3.3c0.9-1,1.9-1.7,3-2.2c1.5-0.6,3.1-1,5.1-1
	c3.5-0.1,6.3,1,8.4,3.1c2.1,2.1,3.2,5.1,3.3,8.9c0.1,3.8-0.9,6.8-2.9,9c-2,2.2-4.8,3.3-8.2,3.4c-3.5,0.1-6.3-1-8.4-3.1
	C407.3,104.5,406.2,101.6,406.2,97.8z M411.1,97.6c0,2.7,0.7,4.7,1.9,6c1.3,1.4,2.8,2,4.7,2c1.9,0,3.4-0.7,4.6-2.1
	c1.2-1.4,1.8-3.4,1.7-6.2c0-2.7-0.7-4.7-1.9-6c-1.2-1.3-2.8-1.9-4.7-1.9c-2,0-3.5,0.7-4.7,2.1C411.6,92.9,411,94.9,411.1,97.6z"/>
<path class="st1" d="M428.8,109.3l1.9-23.3l4.7,0.4l-1.6,19.3l11.8,1l-0.3,4L428.8,109.3z"/>
<path class="st1" d="M461.8,104.8l0.8-3.9l10,2.1l-1.9,9.2c-1.2,0.7-2.8,1.3-4.8,1.6c-2,0.3-3.9,0.3-5.8-0.1c-2.4-0.5-4.4-1.4-6-2.8
	c-1.6-1.4-2.6-3.1-3.1-5.2c-0.5-2.1-0.5-4.2-0.1-6.4c0.5-2.4,1.4-4.4,2.8-6.1c1.4-1.7,3.2-2.8,5.3-3.4c1.6-0.5,3.6-0.5,5.8,0
	c2.9,0.6,5,1.7,6.3,3.2c1.4,1.5,2,3.4,2.1,5.6l-4.8-0.1c-0.1-1.2-0.5-2.2-1.3-3.1c-0.8-0.8-1.8-1.4-3.2-1.7c-2-0.4-3.8-0.1-5.3,0.9
	s-2.5,2.8-3,5.4c-0.6,2.7-0.4,4.9,0.5,6.5c0.9,1.6,2.4,2.6,4.4,3c1,0.2,2,0.2,3.1,0s2-0.5,2.8-0.9l0.6-2.9L461.8,104.8z"/>
<path class="st1" d="M476.1,117.4l3-9.4l-4.1-15.6l5.3,1.7l2.4,10.6l8-7.2l5.2,1.7l-12.4,10.4l-3,9.4L476.1,117.4z"/>
<path class="st1" d="M496.5,99.4l4.4,1.9l-5.1,11.7c-0.8,1.9-1.3,3.1-1.4,3.7c-0.2,1-0.1,1.9,0.4,2.7s1.3,1.5,2.5,2.1
	c1.2,0.5,2.3,0.7,3.1,0.5c0.8-0.2,1.5-0.7,1.9-1.4s1-1.9,1.8-3.6l5.2-11.9l4.4,1.9l-4.9,11.3c-1.1,2.6-2,4.4-2.7,5.3
	s-1.5,1.7-2.5,2.1c-1,0.5-2.1,0.7-3.3,0.7s-2.7-0.4-4.4-1.1c-2.1-0.9-3.5-1.8-4.4-2.8s-1.4-1.9-1.7-3c-0.3-1-0.3-2-0.2-2.9
	c0.3-1.4,0.9-3.2,2-5.7L496.5,99.4z"/>
<path class="st1" d="M505.2,128.8l11.6-20.5l4,2.3l0.7,18.4l7.7-13.7l3.8,2.2L521.4,138l-4.2-2.3l-0.7-18L509,131L505.2,128.8z"/>
<path class="st1" d="M536.1,137.7l2.3-3.2l8.3,6l-5.5,7.6c-1.4,0.2-3,0.1-5-0.5c-2-0.5-3.7-1.3-5.3-2.5c-2-1.4-3.4-3.1-4.3-5
	c-0.9-1.9-1.1-3.9-0.8-6c0.4-2.1,1.2-4.1,2.5-5.9c1.4-2,3.1-3.5,5.1-4.4c1.9-0.9,4-1.3,6.2-0.9c1.7,0.2,3.4,1,5.3,2.3
	c2.4,1.7,3.9,3.5,4.5,5.5c0.6,2,0.5,3.9-0.4,6l-4.4-2c0.4-1.1,0.4-2.2,0.1-3.3c-0.4-1.1-1.1-2-2.2-2.8c-1.7-1.2-3.4-1.6-5.2-1.3
	c-1.8,0.4-3.4,1.6-4.9,3.7c-1.6,2.3-2.3,4.3-2.1,6.2c0.2,1.9,1.1,3.4,2.7,4.5c0.8,0.6,1.7,1,2.8,1.3s2,0.4,2.9,0.3l1.7-2.4
	L536.1,137.7z"/>
<path class="st1" d="M558.2,168.1l-3.8-3.5l2.2-5.3l-6.9-6.4l-5.1,2.6l-3.7-3.4l22.8-10.9l3.7,3.4L558.2,168.1z M558.2,155.3
	l3.6-8.6l-8.3,4.2L558.2,155.3z"/>
<path class="st1" d="M557,167l17.8-15.4l6.6,7.5c1.7,1.9,2.7,3.4,3.1,4.6s0.5,2.3,0.1,3.5c-0.4,1.2-1.1,2.3-2.1,3.2
	c-1.3,1.2-2.8,1.7-4.3,1.7s-3.1-0.7-4.7-2.1c0.2,1.2,0.3,2.2,0.2,3.2c-0.1,1-0.5,2.5-1.1,4.5l-1.6,5.2l-3.7-4.3l1.6-6
	c0.6-2.1,0.9-3.5,1-4.2c0.1-0.7,0-1.2-0.2-1.7c-0.2-0.5-0.7-1.2-1.4-2l-0.6-0.7l-7.4,6.4L557,167z M570.3,161.6l2.3,2.7
	c1.5,1.7,2.5,2.7,3,3c0.5,0.3,1.1,0.4,1.6,0.4c0.6-0.1,1.1-0.3,1.6-0.8c0.6-0.5,0.9-1.1,1-1.7s-0.1-1.3-0.5-2
	c-0.2-0.3-1-1.2-2.2-2.7l-2.4-2.8L570.3,161.6z"/>
<path class="st1" d="M572.8,186.1l15.9-11.4l-4.1-5.7l3.2-2.3l10.9,15.2l-3.2,2.3l-4.1-5.7L575.6,190L572.8,186.1z"/>
<path class="st1" d="M585,189.9l2.7,3.8c-1.2,1-1.9,2.1-2.1,3.2s0.1,2.3,0.8,3.5c0.8,1.3,1.6,2.1,2.6,2.5c1,0.3,1.8,0.3,2.5-0.1
	c0.5-0.3,0.8-0.7,1-1.1c0.2-0.5,0.2-1.1,0-2c-0.1-0.6-0.5-1.8-1-3.8c-0.7-2.5-1-4.4-0.7-5.8c0.4-1.9,1.4-3.3,3-4.3
	c1-0.6,2.2-0.9,3.4-0.8c1.2,0.1,2.4,0.5,3.5,1.3c1.1,0.8,2.1,2,3.1,3.6c1.5,2.5,2.1,4.8,1.7,6.7s-1.5,3.5-3.3,4.7l-2.6-4
	c0.9-0.8,1.5-1.6,1.6-2.5c0.1-0.8-0.2-1.8-0.8-3c-0.7-1.2-1.5-2-2.4-2.4c-0.6-0.2-1.1-0.2-1.6,0.1c-0.5,0.3-0.8,0.7-0.9,1.3
	c-0.1,0.8,0.2,2.3,0.9,4.6c0.7,2.3,1.1,4,1.1,5.3c0.1,1.3-0.2,2.4-0.7,3.5c-0.6,1.1-1.5,2-2.8,2.7c-1.2,0.7-2.4,1-3.8,1
	c-1.4,0-2.7-0.5-3.9-1.4s-2.3-2.2-3.3-4c-1.5-2.6-2.1-4.9-1.7-7C581.7,193.3,582.9,191.5,585,189.9z"/>
<path class="st1" d="M604.4,225.3l0.5,4.8c-2.6,0.4-4.9,0-6.6-1c-1.8-1-3.2-2.7-4.2-5c-1.2-2.9-1.3-5.7-0.1-8.3
	c1.2-2.7,3.5-4.8,6.9-6.2c3.6-1.5,6.8-1.8,9.6-0.8c2.8,1,4.8,3,6.1,6.1c1.1,2.6,1.3,5.1,0.4,7.5c-0.5,1.4-1.5,2.7-3,3.9l-2.9-3.9
	c1-0.7,1.7-1.6,2-2.7c0.3-1.1,0.2-2.2-0.3-3.4c-0.7-1.6-1.8-2.7-3.4-3.2c-1.6-0.5-3.7-0.2-6.2,0.9c-2.7,1.2-4.5,2.5-5.2,4
	c-0.7,1.5-0.8,3-0.1,4.6c0.5,1.2,1.3,2,2.4,2.5C601.2,225.6,602.6,225.7,604.4,225.3z"/>
<path class="st1" d="M609,228.5c2.3-0.7,4.3-0.9,6.1-0.7c1.3,0.2,2.5,0.5,3.7,1.2s2.2,1.4,2.9,2.3c1,1.2,1.8,2.8,2.4,4.6
	c1,3.3,0.8,6.3-0.7,8.9s-4,4.5-7.7,5.6c-3.6,1.1-6.8,1-9.4-0.4c-2.7-1.4-4.5-3.7-5.5-7c-1-3.3-0.8-6.3,0.6-8.9
	C602.9,231.5,605.5,229.6,609,228.5z M610.6,233.2c-2.5,0.8-4.3,2-5.3,3.5c-1,1.6-1.2,3.3-0.6,5.1c0.6,1.8,1.7,3.1,3.3,3.9
	c1.7,0.8,3.8,0.8,6.4,0c2.6-0.8,4.3-1.9,5.3-3.5c0.9-1.5,1.1-3.2,0.5-5.1c-0.6-1.9-1.7-3.2-3.3-3.9S613.2,232.4,610.6,233.2z"/>
<path class="st1" d="M604.4,253.2l23.2-4.1l1.2,7l-15.1,7l16.5,1.3l1.3,7l-23.2,4.1l-0.8-4.3l18.2-3.2l-19.1-1.4l-0.8-4.5l17.4-7.8
	l-18.2,3.2L604.4,253.2z"/>
<path class="st1" d="M608.3,276.1l23.5-1.6l0.5,7.6c0.2,2.9,0.2,4.8,0,5.7c-0.3,1.4-1,2.5-2.1,3.5c-1.1,1-2.6,1.5-4.5,1.7
	c-1.4,0.1-2.7-0.1-3.7-0.5c-1-0.5-1.8-1.1-2.5-1.8c-0.6-0.8-1-1.6-1.3-2.4c-0.3-1.1-0.5-2.7-0.7-4.9l-0.2-3.1l-8.9,0.6L608.3,276.1z
	 M628.1,279.5l-6.7,0.5l0.2,2.6c0.1,1.9,0.3,3.1,0.6,3.7c0.3,0.6,0.7,1.1,1.3,1.4c0.5,0.3,1.2,0.5,1.9,0.4c0.9-0.1,1.5-0.4,2.1-0.9
	c0.5-0.5,0.8-1.2,0.9-2c0.1-0.6,0-1.7-0.1-3.4L628.1,279.5z"/>
<path class="st1" d="M609.1,312.7l0.1-5.2l5.4-2l0.2-9.4l-5.3-2l0.1-5l23.4,9.6l-0.1,5L609.1,312.7z M618.6,304.1l8.8-3.1l-8.7-3.3
	L618.6,304.1z"/>
<path class="st1" d="M608.6,314.3l9.9,1l14.4-7.2l-0.6,5.5l-9.8,4.6l8.7,6.3l-0.5,5.4L618,320l-9.8-1L608.6,314.3z"/>
<path class="st1" d="M263,423c-0.2,2.5-1.3,4.4-3.2,5.9c-2,1.4-4.2,1.9-6.6,1.3c-2.3-0.5-4.1-1.7-5.5-3.6c-1.4-1.9-2-4-1.8-6.3
	c0.2-2.5,1.3-4.4,3.3-5.8c2-1.4,4.1-1.9,6.5-1.3c2.2,0.5,4.1,1.7,5.5,3.6C262.6,418.6,263.2,420.7,263,423z M255.2,417.4
	c-1.2-0.3-2.3,0-3.3,0.7c-1,0.7-1.5,1.7-1.7,2.9c-0.1,1.2,0.1,2.2,0.8,3.2c0.7,1,1.6,1.6,2.8,1.8c1.2,0.3,2.3,0,3.3-0.7
	s1.5-1.7,1.7-2.9c0.1-1.2-0.2-2.2-0.9-3.2C257.2,418.2,256.3,417.6,255.2,417.4z M262.7,414.3l1.4,1.9l-3.2,2.3l-9.5-13l3.2-2.3
	l1.2,1.7l4-2.9l-1.2-1.7l3.2-2.3l9.5,13l-3.2,2.3l-1.4-1.9L262.7,414.3z M262.3,405.4l-4,2.9l1.8,2.5l4-2.9L262.3,405.4z
	 M272.7,415.4l1.2-0.8l2.6,3.6l-10.3,7.5l-2.6-3.6l2.1-1.5l-1.9-2.7l2.8-2.1l1.9,2.7l1.3-1l-1.9-2.7l2.8-2.1L272.7,415.4z"/>
<path class="st1" d="M301.8,461.4c0.5,2.4-0.1,4.6-1.5,6.4c-1.5,1.9-3.5,2.8-5.9,2.9c-2.3,0.1-4.3-0.6-6.1-2.1
	c-1.8-1.5-3-3.3-3.4-5.6c-0.4-2.4,0.1-4.5,1.6-6.4c1.5-1.9,3.5-2.9,5.9-3c2.3-0.1,4.3,0.6,6.2,2.1
	C300.3,457.3,301.4,459.2,301.8,461.4z M302.5,444.7c0.4,2.1-0.1,4-1.4,5.7c-1.3,1.6-3.1,2.5-5.2,2.5c-2,0.1-3.9-0.5-5.4-1.8
	c-1.6-1.3-2.6-3-3-5c-0.4-2.1,0.1-4,1.4-5.6c1.3-1.7,3.1-2.5,5.2-2.6c2,0,3.8,0.6,5.5,1.9C301.1,441.1,302.1,442.7,302.5,444.7z
	 M292.8,458c-1.2,0.1-2.2,0.6-2.9,1.5s-1,2-0.8,3.2c0.2,1.2,0.7,2.1,1.7,2.9c0.9,0.7,2,1.1,3.1,1c1.2-0.1,2.2-0.6,2.9-1.5
	s1-2,0.8-3.2c-0.2-1.1-0.7-2.1-1.6-2.8C295.1,458.3,294,458,292.8,458z M294.5,442c-1,0.1-1.8,0.5-2.4,1.2c-0.6,0.7-0.8,1.6-0.7,2.6
	c0.2,0.9,0.6,1.7,1.4,2.3c0.7,0.6,1.6,0.9,2.5,0.8c1-0.1,1.8-0.5,2.4-1.2c0.6-0.7,0.8-1.6,0.7-2.6c-0.2-0.9-0.6-1.6-1.3-2.2
	C296.3,442.3,295.4,442,294.5,442z M311.9,453.4l2.8,2.2l-2.3,2.8l-2.8-2.2l-1,1.2l2.8,2.2l-2.3,2.8l-2.8-2.2l-1.1,1.4l-3.4-2.8
	l7.8-9.8l3.4,2.8L311.9,453.4z"/>
<path class="st1" d="M329.5,480.4l4,1.8L331,488l17.5,7.6l-1.6,3.6l-19.5-8.5c-0.7-0.3-1.1-0.7-1.3-1.1c-0.2-0.5-0.1-1.1,0.2-1.9
	L329.5,480.4z M336.3,481l-8.2-3.6l1.6-3.6l17.5,7.6l-1.6,3.6l-5.3-2.3l-1.9,4.4l-4-1.7L336.3,481z M340.6,480.6l3.2-7.4l-10.5-4.6
	l1.5-3.6l14.5,6.3l-4.8,11L340.6,480.6z M351.9,476.1l1.3-3.1l4,1.8l-7.9,18.1l-4-1.8l5-11.4l-5.2-2.3l1.6-3.6L351.9,476.1z"/>
<path class="st1" d="M391.3,483.1c-0.3,2.1-0.1,3.7,0.5,5.1c0.8,1.6,2.4,2.8,4.8,3.4l-0.6,4c-1.9-0.4-3.6-1-5-2
	c-1.4-1-2.4-2.2-3-3.6c-1,1.2-2.4,2.1-4.2,2.6c-1.7,0.5-3.4,0.7-5.2,0.5l0.6-3.9c2.5,0,4.3-0.6,5.5-2c1-1,1.6-2.6,1.9-4.7
	L391.3,483.1z M399.2,501.3l-18.7-2.7l0.5-3.7l23,3.3l-1.2,8.2l-18.7-2.7l-0.2,1.2l18.7,2.7l-0.6,3.8l-20.9-3
	c-0.7-0.1-1.2-0.3-1.5-0.7c-0.3-0.4-0.4-1.1-0.3-1.9l0.9-6.1l18.7,2.7L399.2,501.3z M401.4,486.6l0.3-2l4.4,0.6l-1.7,11.8l-4.4-0.6
	l0.9-6l-4.9-0.7l0.5-3.7L401.4,486.6z"/>
<path class="st1" d="M446.3,483.7l0.2,2.1c0.5,4.1-0.9,7.3-4.1,9.7c-2.4,1.8-5.7,3.1-9.7,3.7l-0.5-4c3.6-0.5,6.2-1.5,8-3.1
	c1.4-1.3,2.1-2.6,1.9-4.1l-10.2,1.2l-0.4-3.8L446.3,483.7z M453.6,496.9c2,1.4,3.2,3.2,3.5,5.6c0.3,2.4-0.4,4.4-2.1,6.2
	c-1.6,1.7-3.5,2.7-5.8,3s-4.4-0.2-6.3-1.5c-2-1.4-3.2-3.2-3.4-5.6c-0.3-2.4,0.4-4.5,2-6.3c1.5-1.7,3.5-2.6,5.8-2.9
	C449.6,495.1,451.7,495.6,453.6,496.9z M444.9,500.9c-0.8,0.9-1.2,2-1,3.1c0.1,1.2,0.7,2.1,1.7,2.8c1,0.7,2,1,3.2,0.8
	c1.2-0.1,2.1-0.7,2.9-1.5c0.8-0.9,1.1-2,1-3.1c-0.1-1.2-0.7-2.1-1.7-2.8c-0.9-0.7-2-0.9-3.2-0.8
	C446.6,499.6,445.7,500.1,444.9,500.9z M451.5,484.9l-0.2-1.7l4.4-0.5l1.5,12.6l-4.4,0.5l-0.2-2l-3.9,0.5l-0.4-3.5l3.9-0.5l-0.2-1.8
	l-3.9,0.5l-0.4-3.5L451.5,484.9z"/>
<path class="st1" d="M491.8,474.7c1.8,1.1,3.2,2.9,4.2,5.3c0.9,2.3,1.2,4.5,0.7,6.6c-0.6,2.3-1.9,3.9-4.1,4.8
	c-2.2,0.9-4.3,0.7-6.3-0.6c-1.8-1.2-3.2-2.9-4.1-5.2c-1-2.4-1.2-4.6-0.7-6.7c0.5-2.3,1.9-3.9,4.1-4.8
	C487.6,473.3,489.8,473.5,491.8,474.7z M485.2,480.3c-0.1,1.2,0.1,2.5,0.6,3.8c0.5,1.4,1.3,2.4,2.2,3.2c1,0.8,2,1,3,0.6
	c1-0.4,1.6-1.3,1.7-2.5c0.2-1.2,0-2.4-0.6-3.8c-0.6-1.4-1.3-2.4-2.2-3.2c-1-0.8-2-1-3-0.6C485.9,478.1,485.3,479,485.2,480.3z
	 M495.3,474l-1.3-3.3l3.8-1.5l10,24.7l-3.8,1.5l-4.1-10l-2.3,0.9l-1.5-3.6l2.3-0.9l-1.7-4.2l-2.3,0.9l-1.5-3.6L495.3,474z
	 M499.1,468.6l3.9-1.6l10,24.7l-3.9,1.6L499.1,468.6z"/>
<path class="st1" d="M536.3,445.1c1,1.3,2.5,1.8,4.5,1.3c1.8-0.4,3.9-1.6,6.4-3.4l2.2,2.9c-2.1,1.5-4.1,2.7-6.2,3.6
	c-2.4,1-4.4,1.3-5.8,1c-0.1,1.5-0.9,3.3-2.5,5.4c-1.4,1.8-3.1,3.4-5.1,5l-2.2-2.9c2.4-2,4-3.7,4.9-5.3c1-1.8,1-3.4,0-4.7
	L536.3,445.1z M542.2,460.4l-1.3-1.7l-8.8,6.7l-2.1-2.8l21.1-16.1l2.1,2.8l-8.8,6.7l1.3,1.7L542.2,460.4z M551.8,456.3l-16.2,12.3
	l-2.1-2.7l19.7-15l4.6,6.1l-16.2,12.3l0.7,0.9l16.2-12.3l2.2,2.8l-18,13.7c-0.6,0.4-1.1,0.6-1.6,0.6c-0.5-0.1-1-0.5-1.6-1.2
	l-3.3-4.4l16.2-12.3L551.8,456.3z"/>
<path class="st1" d="M573.2,424.5l10.3-13.4l3.1,2.4l-11.7,15.2c-0.4,0.6-0.9,0.9-1.3,1c-0.5,0.1-1.1-0.2-1.8-0.7l-9.3-7.2l9.5-12.3
	l3.1,2.4l-6.8,8.8L573.2,424.5z M585,407.9l7,5.4l-2.7,3.5l-14.5-11.1l2.7-3.5l4.4,3.4l2.2-2.8l3.1,2.4L585,407.9z M576.7,430.9
	l2.7-3.5l4.6,3.5l11.6-15.1l3.1,2.4l-13,16.9c-0.4,0.6-0.9,0.9-1.3,1c-0.5,0.1-1.1-0.2-1.8-0.7L576.7,430.9z"/>
<circle class="st1" cx="230.3" cy="369.1" r="3"/>
<circle class="st1" cx="611.1" cy="370.1" r="3"/>
<path class="st0" d="M431.5,374.6c-1.9,0.4-3.7,0.9-5.6,1.3c-3.3,0.7-6.5,2-9.9,2.2c-1.1,0.1-2.2,0.3-3.3,0.5
	c-2.2,0.4-3.2-0.3-3.5-2.4c0-0.1,0-0.2,0-0.3c-0.3-2-0.4-2.1,1.4-3c4.7-2.6,9.5-4.8,14.8-6c2.2-0.5,4.4-1.2,6.6-1.7
	c2.2-0.5,4.4-0.8,6.5-1.1c1.9-0.3,3.7-0.6,5.6-0.6c1.5-0.1,3,0.2,4.4,0.4c1.3,0.2,2,1.3,2.6,2.3c0.4,0.6,0.2,1.3-0.4,1.7
	c-0.6,0.4-1.3,0.8-2,0.9c-3,0.1-5.2,1.8-7.1,3.9c-2.1,2.4-4.1,4.9-6.1,7.4c-0.3,0.3-0.3,0.9-0.6,1.6c1.3,0,2.2,0,3.2,0
	c1.6,0,3.3,0.1,4.9,0.4c2.4,0.5,3.3,2.1,4,4c1.1,3,0.3,4.7-2.6,6.1c-3,1.4-6,2.6-9,4.1c-2.6,1.4-5.1,3-7.7,4.5
	c-0.6,0.4-0.7,0.8-0.4,1.6c0.4,0,0.8,0.1,1.2,0.1c2.2,0,4.4-0.1,6.5,0c2.3,0.1,4.6,0.5,6.7,1.8c1.7,1.1,1.9,3,0.5,4.5
	c-1.2,1.3-2.7,1.9-4.2,2.5c-6.3,2.4-12.9,4-19.4,5.7c-4.8,1.2-9.5,2.5-14.3,3.8c-2.5,0.7-5,1.6-7.4,2.5c-0.3,0.1-0.6,0.3-0.9,0.4
	c-0.5,0.2-1,0.5-0.8,1.2c0.2,0.6,0.8,0.5,1.3,0.4c2.2-0.4,4.3-0.8,6.5-1.2c1.4-0.3,2.9-0.5,4.4-0.7c1.2-0.2,2.5-0.4,3.7-0.6
	c2.1-0.3,4.2-0.6,6.2-0.9c3.4-0.4,6.8-0.8,10.2-1.3c0.3,0,0.6-0.1,0.9-0.1c5.6-0.1,11.2-0.8,16.8-0.4c3.2,0.2,6.4,0.2,9.6,0.4
	c2.2,0.1,4.3,0.5,6.4,0.8c1.5,0.2,3,0.4,4.6,0.6c1.9,0.3,3.8,0.8,5.4,1.9c1.4,0.9,2.3,2.2,2.2,4c-0.1,0.5-0.4,1.1-0.8,1.4
	c-0.4,0.4-1.1,0.7-1.6,0.9c-0.5,0.1-1.3,0.1-1.6-0.2c-1-0.9-2.2-1.1-3.4-1.2c-0.6-0.1-1.2-0.3-1.8-0.3c-2.2-0.2-4.4-0.3-6.6-0.9
	c-0.4-0.1-0.8-0.1-1.2-0.1c-2.1,0.2-4.1-0.2-6.1-0.7c-0.3-0.1-0.7-0.1-1,0c-1.8,0.5-3.5,0.2-5.2,0c-1.8-0.2-3.7-0.1-5.5-0.1
	c-3.7-0.1-7.3-0.3-11-0.3c-1.6,0-3.2,0.2-4.8,0.3c-3.1,0.2-6.2,0.3-9.2,0.6c-2.7,0.3-5.4,0.9-8.1,1.3c-2.3,0.4-4.6,0.7-6.9,1
	c-0.8,0.1-1.6,0.3-2.3,0.5c-4.5,0.9-9,1.8-13.4,3.1c-1.9,0.6-3.9,0.9-5.8,1.2c-0.5,0.1-1.1,0.2-1.5,0c-0.5-0.1-1-0.4-1.2-0.8
	c-0.8-1.5,0-4.1,1.6-4.9c1.4-0.7,2.9-1.4,4.4-1.9c4.5-1.6,9.1-3.3,13.7-4.8c5-1.7,10.1-3.2,15.1-4.8c6.1-1.9,12.2-3.9,18.3-5.8
	c3-0.9,6-1.8,8.9-2.7c1-0.3,2-0.8,3-1.2c0.5-0.2,1-0.4,0.9-1c-0.1-0.7-0.6-1-1.2-1.1c-1.5-0.1-3-0.3-4.4-0.2c-2.8,0.2-5.6,0.7-8.5,1
	c-1.1,0.1-2.3,0.1-3.4,0.1c-1.4,0-2.1-0.8-2-2.2c0.2-2.1,1-3.9,2.5-5.3c1.8-1.6,3.7-3.1,5.5-4.6c0.2-0.1,0.5-0.2,0.6-0.4
	c0.2-0.4,0.5-0.8,0.4-1.1c-0.1-0.3-0.8-0.7-1-0.6c-1.2,0.7-2.6,0.3-3.9,1c-1.5,0.9-3.2,1.4-4.8,2.1c-0.3,0.1-0.9,0.1-1.1-0.1
	c-0.7-0.6-1.5-1.2-2-2c-0.5-0.8-0.7-1.8-1-2.7c-0.4-1.5-0.2-2,1.2-2.8c2.1-1,4.3-2,6.5-2.9c1-0.4,2-0.8,3.1-0.9
	c1-0.1,1.6-0.7,1.8-1.6c0.5-2,1.6-3.6,2.7-5.3C431.8,375.7,431.8,375.7,431.5,374.6z"/>
<path class="st0" d="M388.8,363.9c1,0.4,1.5-0.1,2-0.7c1.2-1.3,2.8-2.2,4.6-3c0.5,0.5,1.1,1,1.4,1.6c0.7,1.1,0.4,1.8-0.6,2.7
	c-1,0.9-2,1.9-2.6,3.1c-1.6,3.3-3.2,6.7-4.5,10.1c-1.1,2.7-1.9,5.6-2.4,8.5c0,0.3-0.2,0.5-0.4,0.9c-1.5-0.9-1.9-2.3-2.2-3.7
	c-0.5-2.7,0-5.3,0.7-7.9c0.2-0.6,0.1-1.3,0.2-2.3c-0.7,0.3-1.1,0.3-1.5,0.5c-1.7,1.2-3.3,2.4-5,3.6c-0.4,0.3-0.8,0.5-1.2,0.7
	c-1,0.5-1.6,0.3-2.2-0.6c-0.3-0.5-0.6-0.9-1-1.4c0.3-1.1,0.9-1.8,1.9-2.3c2.7-1.4,5.3-2.9,8-4.3c1-0.5,2-0.9,2.9-1.4
	c0.5-0.3,1-0.8,1.4-1.2c0.4-0.6,0.8-1.3,0.2-2c-0.7-0.9-1.5-1.2-2.5-0.8c-4.3,1.8-8.5,3.5-12.2,6.4c-0.8,0.6-1.6,1.3-2.4,1.9
	c-1,0.9-1.3,2.1-1.6,3.3c-0.1,0.4,0,0.9,0.3,1.3c1.8,3,1.3,5.8-0.3,8.7c-1.9,3.4-5.1,4.7-8.6,5.5c-1.7,0.4-2.7-0.4-3.6-1.7
	c-2.4-3.5-2.3-7.2-0.3-10.8c1.2-2.1,2.7-4.1,4.8-5.5c1-0.7,1.9-1.7,2.7-2.6c4.2-4.6,9.3-7.7,15-9.9c1.6-0.6,3.2-0.7,4.9-0.5
	C386.7,360,388.5,361.8,388.8,363.9z M367.2,378c-2.6,2.6-4.7,5.2-5.9,8.5c-0.1,0.3,0,0.6,0.1,0.9c2.2-0.8,5.3-3.7,6-5.9
	C367.7,380.4,368.2,379.3,367.2,378z"/>
<path class="st0" d="M489.7,355.4c2.1,1.7,2.5,3.2,1.6,5.2c-1.1,2.2-2.2,4.4-3.3,6.6c-0.1,0.2-0.1,0.4-0.2,0.7
	c0.6,0.8,1.3,0.6,2,0.4c3.8-1.2,7.7-2,11.7-1.8c1.8,0.1,3.3,0.7,4.2,2.4c0.5,1,0.4,1.5-0.5,2.2c-0.1,0.1-0.3,0.2-0.4,0.3
	c-1.6,0.9-2.2,0.8-3.3-0.8c-3.6,0.2-7.2-0.5-10.8,0.5c-1.8,0.5-3.5,1.2-5.2,2c-1.5,0.7-2.3,2-3,3.4c-0.4,0.7-0.9,1.3-1.5,1.8
	c-0.7,0.5-1.4,0.3-1.7-0.5c-0.5-1.5-1.2-3-0.4-4.6c0.3-0.6,0.3-0.7-0.7-1.5c-2.3,1.4-4.7,2.8-7.1,4.3c-3.1,2-5.9,4.5-9.4,5.9
	c-0.5,0.2-1,0.5-1.4,0.9c-1,1-2.2,1.3-3.6,1.3c-1,0-1.8-0.4-2.2-1.3c-0.5-1.2-1-2.4-0.7-3.9c0.8-3.4,2.4-6.4,4.7-9
	c0.5-0.6,0.7-1.2,0.3-1.9c-0.4-0.6-0.7-1.3-1-2c-0.6-1.4-0.2-2.4,1.3-2.8c2.6-0.7,5.3-1.3,8.1-1.4c2.3-0.1,3.6,1.4,4.7,3.2
	c0.2,0.3,0.1,1-0.1,1.3c-0.9,1.2-1.9,2.3-3.5,2.6c-1.6,0.3-3,1-4.1,2.3c-1.2,1.4-2.6,2.6-3.9,3.9c-0.2,0.2-0.6,0.5-0.7,0.8
	c-0.1,0.5-0.3,1.1-0.1,1.4c0.3,0.5,0.9,0.2,1.4,0c3.1-1.4,6.2-2.8,9.4-4.1c2.5-1,5.1-1.8,7.7-2.7c2-0.6,3.3-1.9,4.3-3.8
	c1.9-3.3,4-6.3,6.1-9.5C488.8,356.4,489.3,356,489.7,355.4z"/>
<path class="st0" d="M437.4,354.5c2.4,0.2,4.4,1,6.2,2.3c1.2,0.8,1.6,2.2,2.3,3.4c0.1,0.2,0,0.6-0.2,0.7c-1,0.6-1.7,1.6-3.2,1.5
	c0.3-0.5,0.5-0.9,0.9-1.6c-0.3-0.3-0.6-0.7-1-0.9c-0.9-0.4-1.8-0.8-2.7-0.8c-1.6,0-3.1-0.7-4.8-0.2c-1.1,0.3-2.2,0.1-3.3,0.1
	c-1.6,0-2.9,0.4-4.2,1.2c-2.4,1.3-4.7,2.6-7.1,3.9c-0.8,0.4-1.6,0.9-2.5,0.1c-1-0.9-1.8-1.9-1.5-3.3c0.2-0.8,0.4-1.7,1.2-2.3
	c1.9-1.6,3.7-3.2,5.6-4.7c1.7-1.4,3.5-2.8,5.3-4.1c1.4-1,2.8-2,4.2-2.9c1.3-0.8,1.9-0.7,2.8,0.6c0,0,0,0.1,0.1,0.1
	c1.7,1.7,2.2,3.8,1.9,6.1C437.2,353.8,437.3,354,437.4,354.5z"/>
<path class="st0" d="M409.9,362.1c-4,4.6-6.2,10-8.6,15.3c-0.9,2-1.9,3.9-2.8,5.9c-0.4,0.9-0.7,1.8-0.9,2.7
	c-0.2,0.8-0.4,1.7-0.3,2.5c0.1,0.9,0.4,1.8,0.8,2.7c0.2,0.4,0.6,0.8,1,1.4c-1.5-0.5-3.4-2.2-4-3.5c-1.3-3-1.8-6-1.3-9.3
	c1-6.5,4.4-11.9,8.3-16.9c1.1-1.4,2.7-2.4,4.1-3.6c0.6-0.5,1.1-0.5,1.7,0.1C408.6,360.2,409.7,360.8,409.9,362.1z"/>
<path class="st0" d="M496.2,392.1c-1.2,0-2.3,0-3.3,0c-2,0.1-4,0.1-6,0.2c-3.7,0.3-7.4,0.6-11.1,1c-1.3,0.1-2.7,0.5-3.9,0.9
	c-2.1,0.8-3.6-0.1-5-1.3c-0.7-0.6-0.9-1.8-0.7-2.9c0.3-1.3,0.9-2.5,2-3.3c1-0.7,2-1.3,3-2c0.8-0.6,1.7-0.2,2.1,0.5
	c0.5,0.8,0.2,1.8-0.7,2.3c-0.4,0.3-0.9,0.5-1.3,0.8c-0.4,0.3-0.6,0.8-0.2,1.2c0.2,0.2,0.7,0.5,1,0.4c2.7-0.4,5.4-1,8.1-1.2
	c3.6-0.2,7.3-1,10.9,0c1.9,0.5,3.7,1.2,5,2.8C496.1,391.8,496.1,392,496.2,392.1z"/>
<path class="st0" d="M370.7,256.4c-0.7,3.8-3.4,5.4-6.5,7.1c-3.1,1.7-6.5,3-9.4,5.2c-2.3,1.8-5.3,2.7-8,3.9c-2.9,1.2-5,2.7-4.9,6.3
	c0,1.5-1.3,3-1.8,4.5c-2,5.7-4,11.5-6.1,17.1c-0.4,1.1-1,2.3-1.9,3c-1.9,1.7-3.8,0.9-4.7-1.5c-1.5-4.1-0.7-8.1,0.4-12.1
	c0.4-1.4,0.9-2.7,1.2-4.1c0.4-1.7-0.8-2.9-2.5-2.2c-8.2,3.2-16.4,6.5-24.6,9.8c-3.1,1.3-6.2,2.8-9.3,4.1c-2.3,1-4.7,0.1-5.9-2.2
	c-0.3-0.5-0.6-1.1-0.8-1.7c-0.8-2-0.9-3.8,1-5.3c3.8-3.1,7.5-6.2,11.3-9.2c6.7-5.2,14.1-9.4,21.4-13.7c1-0.6,1.9-1.6,2.6-2.6
	c5.4-9.1,10.7-18.3,16-27.5c0.2-0.3,0.5-0.5,0.5-0.8c0-0.7,0.2-1.6-0.2-2.2c-0.2-0.4-1.3-0.5-1.9-0.4c-1.9,0.4-3.8,1.1-5.7,1.5
	c-2.3,0.4-4.7,0.5-7,0.8c-1.9,0.2-3.3-0.7-4.2-2.2c-1.2-2.2-2.4-4.6-3.3-6.9c-0.6-1.6,0.7-2.7,1.9-3.2c4.8-2.2,9.6-4.7,15-5.4
	c1.8-0.3,3.5-0.8,5.5-0.4c8.4,1.9,13,7.8,15.5,15.3c1.3,4,1.1,8.4-1.5,12.2c-1.2,1.8-2.4,3.6-3.7,5.3c-0.7,1-1.2,2.2-0.3,3.1
	c0.4,0.5,1.8,0.4,2.5,0.1c4.3-1.5,8.7-1.4,13.2-1.2C367.2,251,369.3,253.2,370.7,256.4z"/>
<path class="st0" d="M501,266.9c-1.8-2.2-2-2.3-3.9-1.3c-4.4,2.2-8.8,4.4-13.2,6.6c-3.4,1.7-5.3,1.3-7.1-2c-0.8-1.3-1.3-2.8-1.8-4.2
	c-0.8-2.2-0.7-2.7,1.1-3.9c5.7-3.8,11.5-7.5,18.1-9.2c3-0.7,6.4-0.5,9.5-0.3c1.1,0.1,2.2,1.4,3.2,2.2c1,0.9,1.8,1,3,0.5
	c2.8-1.2,5.7-2.4,8.7-3.3c2.8-0.9,5.7-0.8,8.5,0.4c0.7,0.3,1.5,0.8,2,1.4c1.2,1.3,0.8,3.1-0.9,3.3c-5.3,0.6-9.2,3.9-13.7,6.2
	c-1.8,0.9-2.6,4.2-1.5,5.9c0.5,0.9,1.2,1.4,2.3,0.8c0.9-0.5,1.8-1,2.8-1.4c6-2.8,11.9-5.7,17.9-8.4c2.1-0.9,3.4-2.2,4.2-4.2
	c2.3-5.5,5.2-10.8,8.6-15.7c0.9-1.2,1.9-2.3,2.9-3.5c2.5,1.3,3.6,3.3,4.3,5.5c0.6,1.7,0.7,3.6-0.7,5.2c-1.2,1.4-2,3.2-2.8,4.8
	c-3.6,6.6-6.8,13.4-10.9,19.7c-2.4,3.6-5,7.3-5.8,11.8c-0.1,0.5-0.4,1-0.7,1.8c-1.9-3-1.6-5.2-1.2-7.4c0.5-2.7,1-5.5,1.3-8.2
	c0.3-2.1-0.9-3-2.8-2.1c-1.5,0.7-2.8,1.8-4.2,2.7c-4.9,2.9-9.7,5.8-14.6,8.7c-0.3,0.2-0.8,0.4-1.2,0.3c-2.6-0.2-4,1.4-4.9,3.5
	c-3.1,6.8-7.2,12.9-11.6,19c-2,2.8-4.5,4.3-7.4,5.7c-1.6-0.6-2.2-1.9-2.2-3.2c0-2.6,0-5.2,0.6-7.7c1.5-6.6,4.8-12.5,7.9-18.4
	C496.9,274.8,498.9,270.9,501,266.9z"/>
<path class="st0" d="M444.5,304.6c3,0,5.1,0.1,7.1,0c2.6-0.2,4.8,0.9,6.9,2.3c1.9,1.3,2.4,3.2,1.1,5.1c-1,1.4-2.4,2.7-3.8,3.5
	c-5.8,3.3-11.8,6.4-17.7,9.6c-3.4,1.9-6.9,3.8-10.2,5.8c-0.7,0.4-1.3,1.2-1.9,1.8c1.4,1.5,2.7,1.1,4,0.8c5.2-1.5,10.4-3.6,15.7-4.5
	c5.9-1,11.9-2,18.2-0.6c5.7,1.3,11.1,2.9,16.1,6c2.9,1.8,5,4.1,6.4,6.7c-1.9-0.8-3.7-1.2-5.2-2.2c-1.7-1.2-3.6-1.3-5.6-1.7
	c-5.7-1-11.3-0.9-16.9,0.3c-6.9,1.5-13.9,2.9-20.8,4.3c-4.8,1-9.7,1.8-14.5,2.8c-2.8,0.6-5.6,1.3-8.4,2c-0.3,0.1-0.6,0.3-0.9,0.3
	c-3.7,0.3-5,0.1-5.5-2c-0.8-2.9,0.8-6.6,3.1-7.8c5.6-2.8,11.3-5.6,16.7-8.8c6.2-3.7,12.2-7.7,18.3-11.6c2-1.3,3.8-2.8,5.7-4.3
	c1-0.7,1.3-1.6,0.6-2.8c-3-0.9-5.8,0.5-8.6,1c-2.9,0.5-5.9,1-8.9,1.2c-2.4,0.2-2.9-0.5-3-2.8c-0.2-4.2,1.1-7.9,4.1-10.9
	c3.3-3.2,6.7-6.1,10.1-9.2c0.6-0.5,1.1-1.2,1.6-1.8c-1.1-1.4-2-1.1-3.2-0.6c-4.4,2-8.9,3.8-13.3,5.8c-3.9,1.8-6,0.8-7.1-3.3
	c-1-3.4-0.9-3.3,2.1-5.4c5.3-3.7,11.1-6.4,17.4-8c3.6-0.9,7.3-1.7,11-1.2c1.5,0.2,3.2,1,4.4,2c1.4,1.2,2.6,2.7,3.5,4.3
	c1.6,2.8,0.4,5.5-1.2,7.7c-2,2.8-4.8,4.8-7.6,6.8c-2.7,1.8-5.4,3.9-7.9,6C445.4,302,445.2,303.1,444.5,304.6z"/>
<path class="st0" d="M393.5,269.9c-0.3-2.9,0.9-5.6,2.4-8.2c3.9-6.5,8.3-12.5,13.6-17.9c3-3.1,5.8-6.5,8.8-9.6
	c2.1-2.1,4.5-3.9,6.7-6c2.2-2.1,5.1-2.3,7.8,0.8c2,2.3,2.8,5.3,3.2,8.3c0.2,1.4-0.8,3.2-1.8,4.4c-3.3,4.1-6.8,8-10.2,12
	c-1.2,1.4-0.8,2.6,1.2,3.1c2.3,0.6,4.6,1.2,6.9,1.6c3.6,0.6,6.9,1.8,10.1,3.6c1,0.6,1.9,1.2,1.5,2.3c-0.4,1-1.2,1.9-2.1,2.4
	c-0.6,0.4-1.7,0.3-2.4,0.1c-4.1-1.4-8.5-1-12.5-3.1c-1.5-0.8-3.4-0.9-5.1-1.1c-2.8-0.3-4.8,1.2-6.2,3.3c-3.1,4.7-6.1,9.5-9,14.4
	c-2.1,3.5-6.6,4.1-9,0.9C394.9,278.1,393.3,274.4,393.5,269.9z"/>
<path class="st0" d="M461.6,266.3c-0.4-3.8-0.4-7.3-0.1-10.7c0.3-3.4,2.4-6.4,2.6-10.5c-1.2,0.3-2.2,0.2-2.9,0.7
	c-2.9,2.1-6.3,3-9.6,4.1c-1.5,0.5-3.1,1.4-4.6,1.5c-4,0.3-4.6-0.2-5.8-4.8c1.2-0.8,2.5-1.9,4-2.5c5.3-1.9,10.7-3.6,16.1-5.3
	c0.5-0.2,1-0.4,1.4-0.5c4.9-1.1,8.4-3.9,10.8-8.4c1.4-2.5,3.3-4.8,5.1-7c1.7-1.9,2.8-1.8,4.1,0.3c1.6,2.5,3.1,5.1,1.1,8.3
	c-0.8,1.3-0.5,3.3-1.2,4.8c-2.8,5.9-5.6,11.7-8.9,17.4c-1.6,2.7-4,5-6.2,7.3C465.7,262.7,463.8,264.3,461.6,266.3z"/>
<path class="st0" d="M372,288c-1.9-2.6,1.2-5.7-1.6-8.3c-0.9,0.6-1.9,1.1-2.8,1.8c-3.1,2.4-6.7,3.4-10.4,4.4
	c-3.4,0.9-7,0.3-10.2,2.1c-1.4,0.8-2.8,0.1-3.7-1.3c-0.8-1.4-0.3-2.5,0.8-3.2c2.2-1.5,4.4-3,6.8-4.1c5.6-2.4,11.3-4.5,16.9-6.7
	c1.5-0.6,3.1-1,4.7-1.6c1.9-0.7,2.9-2.1,3.8-3.8c4.1-7.8,8.3-15.7,12.5-23.4c0.6-1,1-2.6,2.6-2.3c1.6,0.3,2.8,1.4,3.2,3.1
	c0.2,0.8,0.3,1.7,0,2.4c-4.5,10.1-9.1,20.2-13.7,30.3C379.5,280.6,374.4,286.5,372,288z"/>
<path class="st0" d="M515.5,307.1c0.4-3.9,1.5-7.6,3.9-10.8c2.1-2.7,4.4-5.2,7.4-6.9c1-0.5,1.9-1.3,3.1-0.3c1.2,1,2.7,1.9,2.2,3.7
	c-0.4,1.7-0.5,3,1.5,3.7c0.4,0.1,0.8,1.3,0.6,1.9c-1,3.4-1.7,7-4,9.8c-2.4,2.9-5.3,5.2-9,6.3c-2.7,0.8-4.2,0-4.9-2.6
	c-0.3-1.2-0.6-2.4-0.9-3.6C515.4,308,515.5,307.6,515.5,307.1z M528,296c-5.1,4-8.7,10.6-8,14c3.4-0.8,8-4.3,8.9-7.4
	C529.5,300.6,529.9,298.2,528,296z"/>
<path class="st0" d="M362,306.4c6.5-2.1,12.5-4.7,19.9-5.1c-1,1-1.5,1.5-2,1.9c-2.8,2.5-5.6,4.9-8.4,7.4c-1.6,1.4-3.4,2.4-5.6,2.4
	c-1.9,0-3.7,1.1-5.8,0.3c-2.2-0.8-3.6-2.1-4-4.3c-0.9-4.9-0.1-9.5,3.2-13.3c0.8-0.9,1.7-1.8,2.7-2.6c1.3-1,2.3-0.7,3.1,0.7
	c1.1,1.8,1,3.4-0.7,5c-1.7,1.6-3.3,3.3-3,5.8C361.5,305.1,361.7,305.6,362,306.4z"/>
<path class="st0" d="M405.8,171.3c0.3,0,0.5,0,0.8,0c2.3-0.3,4.5,0.4,6.6,1.3c1.9,0.9,3.1,2.7,3,4.9c0,0.5-0.1,1-0.8,1.2
	c-2.1,0.6-4.2,1.2-6.4,1.7c-3.8,0.7-7.2,2.6-10.8,3.8c-3.5,1.2-7,2.3-10.6,3.4c-2.9,0.9-5.8,1.7-8.7,2.7c-1.3,0.4-2.6,0.9-4.1,0.8
	c-2.4-0.1-3.8-1.6-5-3.5c-0.3-0.5-0.2-1.2,0.2-1.7c1.1-1.8,2.7-3.2,4.3-4.5c3.1-2.6,6.8-4.1,10.5-5.6c2.8-1.1,5.7-2.2,8.6-3
	c2.1-0.6,4.4-0.7,6.6-0.9c1.9-0.2,3.8-0.4,5.7-0.6C405.8,171.2,405.8,171.3,405.8,171.3z"/>
<path class="st0" d="M424.1,201.2c-0.4-1.3-0.8-2.6-0.8-3.9c0-1.1,0-1.1-0.9-1.9c-0.7,0.4-1.5,0.8-2.3,1.2c-1.4,0.7-2.8,1.3-4.2,1.9
	c-0.3,0.1-0.7,0.3-1,0.2c-0.4-0.1-0.8-0.4-0.9-0.7c-0.1-0.2,0.1-0.7,0.3-0.9c0.6-0.5,1.4-0.9,2.1-1.4c2.2-1.4,4.4-2.7,6.6-4.2
	c0.5-0.4,1-0.9,1.3-1.5c0.4-0.7,0.6-1.4,0.8-2.2c0.1-0.4,0-1.1-0.3-1.4c-0.3-0.2-1-0.2-1.4,0c-1.9,0.8-3.8,1.7-5.6,2.6
	c-1,0.5-1.9,1-2.8,1.6c-0.8,0.5-1.7,0.3-2.4-0.4c-0.6-0.7-0.6-1.2,0.1-2c2.9-3.2,7.2-4.5,11.4-3c1.5,0.5,1.8,0.4,2.4-1.1
	c1-2.4,2.5-4.5,4.1-6.5c1.3-1.6,2.6-3.4,4.4-4.5c0.7-0.4,1.1-0.5,1.8-0.2c1.1,0.5,1.9,1.3,2.5,2.3c0.3,0.5,0.3,1-0.1,1.4
	c-2.7,2.3-3.9,5.5-5.6,8.5c-1.7,3.1-3.2,6.2-4.9,9.3c-0.3,0.6-0.8,1.1-1.2,1.6c-0.9,0.9-1.6,1.8-1.8,3.2
	C425.6,200,425.2,200.8,424.1,201.2z"/>
<path class="st0" d="M449.7,199.1c0.2-1.3,0.4-2.9,0.8-4.4c1.5-5,3.7-9.6,6.4-14.1c0.4-0.7,0.8-1.4,1.2-2c1.1-1.7,1.8-1.4,3.1-0.7
	c1,0.5,1.6,2.1,1.3,3.2c-0.4,1.6-0.9,3.2-1.4,4.8c-0.1,0.2-0.2,0.4-0.2,0.6c0,0.4,0,0.9,0.2,1.1c0.2,0.2,0.8,0.1,1.1,0
	c1.1-0.4,2.2-0.8,3.3-1.2c1.7-0.6,3.5-0.6,5.1,0.1c0.4,0.2,0.8,0.6,1.1,1c0.1,0.2,0.1,0.8-0.1,1c-0.2,0.2-0.7,0.4-0.9,0.3
	c-1.3-0.8-2.5-0.1-3.5,0.4c-2.2,1-4.3,2.2-6.5,3.4c-0.5,0.2-0.9,0.6-1.4,0.7c-1.6,0.5-2.6,1.7-3.2,3.1c-0.8,1.7-1.7,3.5-2.6,5.1
	c-0.7,1.2-1.7,1.5-2.7,1c-0.6-0.3-1-0.7-1-1.4C450,200.5,449.9,199.9,449.7,199.1z"/>
<path class="st0" d="M401.9,204c6.3-0.7,9.3-0.4,10.9,1.1c-0.6,0.1-1.2,0.2-1.7,0.3c-1.5,0.5-2.9,1.2-4.3,1.9
	c-3.4,1.8-6.8,3.5-10.2,5.2c-1.4,0.7-2.9,1.4-4.3,2.1c-0.9,0.4-1.6,0.2-2.1-0.7c-0.8-1.5-0.7-2.3,0.7-3.4c1.1-0.9,2.2-1.8,3.4-2.5
	c1.1-0.6,1.7-1.5,1.9-2.6c0.7-2.7,1.8-5.1,3.2-7.5c1-1.7,1.9-3.4,2.9-5.1c0.2-0.4,0.5-0.7,0.8-1c1.1-1.2,2.7-0.8,3.3,0.7
	c0.4,0.9,0.2,1.8-0.1,2.5c-1.2,2.6-2.1,5.4-4.3,7.5C401.5,203,401.4,203.5,401.9,204z"/>
<path class="st0" d="M432.2,200c0.4-1,0.6-2.2,1.1-3.2c1.7-3.3,4.2-6,7.3-8.1c0.4-0.3,0.8-0.4,1.3-0.5c0.7-0.1,1.2,0.1,1.5,0.8
	c0.2,0.5,0.6,0.9,0.9,1.4c0.4,0.6,1,1.1,1.4,1.7c1,1.4,0.9,2.9-0.1,4.3c-1.5,2.1-3.3,3.9-5.3,5.4c-1.1,0.9-2.3,1.8-3.7,2.3
	c-2,0.7-3.5,0-3.9-2.1C432.6,201.4,432.4,200.8,432.2,200z M442.4,191.1c-0.3,0.2-0.4,0.3-0.6,0.4c-2.6,2.6-4.8,5.6-6.5,8.8
	c-0.2,0.5-0.6,1,0,1.7c1.1-0.7,2.2-1.3,3.1-2.2c1.5-1.3,2.8-2.7,4.2-4.2C444,194.3,443.9,192.6,442.4,191.1z"/>
<path class="st0" d="M389.8,203.1c0.2-5.4,2.4-10,6.5-13.5c0.9-0.8,1.7-0.7,2.5,0c0.9,1,0.9,1.7,0.2,2.7c-1.1,1.5-2.2,3.1-3.2,4.7
	c-1.2,2-2.2,4-3.2,6c-0.3,0.7-0.5,1.4-0.8,2.2c-0.2,0.5-0.5,0.9-1,0.7c-0.4-0.1-0.8-0.5-0.9-0.9
	C389.7,204.5,389.8,203.8,389.8,203.1z"/>
<path class="st0" d="M416.3,214.4c0.1-3,2.4-6.4,4.9-7.5c1.5-0.6,2.3-0.3,2.9,1.2c0.2,0.6,0.6,1,1.3,1.2c1.1,0.3,1.1,0.6,1,1.8
	c-0.4,3.2-2.6,5.1-5,6.8c-0.3,0.2-0.7,0.4-1.1,0.5c-1.9,0.5-2.8,0-3.4-1.9C416.6,215.9,416.5,215.1,416.3,214.4z M418.8,217.3
	c0.7-0.4,1.1-0.5,1.4-0.8c0.7-0.6,1.3-1.4,2-2c1.2-1.1,1.9-2.3,1.5-3.9c-1.3-0.7-1.6-0.7-2.4,0.2c-1,1.2-2,2.4-2.3,4
	C418.8,215.5,418.9,216.2,418.8,217.3z"/>
<path class="st0" d="M448.8,207.1c0.2,0.1,0.7,0.2,0.9,0.4c0.5,0.8,1.4,1.2,2.1,1.7c0.5,0.3,0.9,0.8,1.3,1.4
	c0.4,0.6,0.4,1.3-0.2,1.8c-1.6,1.5-3.1,3-4.8,4.4c-0.7,0.6-1.7,0.9-2.6,1.2c-1.2,0.4-1.9-0.2-2.3-1.4c-0.4-1.2-0.1-2.3,0.1-3.4
	c0.6-2.7,2.6-4.4,4.7-5.9C448.1,207.1,448.4,207.2,448.8,207.1z M445,215.9c1.2-0.2,3.5-1.6,4.4-2.6c1.3-1.4,1.3-1.5,0.4-3.2
	c-1.1-0.3-0.9-0.2-2.4,1.3C446.2,212.7,445,214,445,215.9z"/>
<path class="st0" d="M470.8,195.2c-2.9-0.4-5.3,1.1-8,1.7c-1.1,0.3-2.3,0.5-3.5,0.6c-0.6,0.1-1-0.1-1.2-1.1c0.1-0.1,0.4-0.2,0.6-0.4
	c3.2-1.5,6.6-2.2,10.2-1.8c0.6,0.1,1.2,0.4,1.9,0.6C470.9,194.9,470.9,195,470.8,195.2z"/>
</svg>
